<svg width="326" height="44" viewBox="0 0 326 44" fill="none" xmlns="http://www.w3.org/2000/svg">
  <rect y="32" width="326" height="2" rx="1" fill="#E2E2E2"/>
  <rect y="32" width="312" height="2" rx="1" fill="#62AE90"/>
  <circle cx="311" cy="33" r="10" transform="rotate(-180 311 33)" fill="#62AE90" stroke="#F8F9FB" stroke-width="2"/>
  <circle cx="311" cy="33" r="5.5" transform="rotate(-180 311 33)" fill="#F8F9FB"/>
  <rect x="326" y="21" width="30" height="21" rx="6" transform="rotate(-180 326 21)" fill="#62AE90"/>
  <path d="M308.036 7.08L305.288 7.98L305.6 9.096L307.208 8.58L307.208 15L308.48 15L308.48 7.08L308.036 7.08ZM310.408 10.968C310.408 13.308 311.404 15.132 313.432 15.132C315.472 15.132 316.444 13.308 316.444 10.968C316.444 9.756 316.192 8.784 315.676 8.052C315.172 7.32 314.428 6.948 313.432 6.948C312.436 6.948 311.692 7.32 311.176 8.064C310.66 8.796 310.408 9.768 310.408 10.968ZM315.124 10.98C315.124 12.852 314.596 13.968 313.432 13.968C312.268 13.968 311.728 12.852 311.728 10.98C311.728 9.072 312.292 8.112 313.432 8.112C314.56 8.112 315.124 9.072 315.124 10.98Z" fill="#F8F9FB"/>
  <path d="M314 18C313.546 19.2924 313.308 20.6301 313.308 22C313.308 23.3699 313.546 24.7076 314 26L308 26C308.454 24.7076 308.692 23.3699 308.692 22C308.692 20.6301 308.454 19.2924 308 18L314 18Z" fill="#62AE90"/>
</svg>
