<svg width="326" height="44" viewBox="0 0 326 44" fill="none" xmlns="http://www.w3.org/2000/svg">
  <rect y="32" width="326" height="2" rx="1" fill="#E2E2E2"/>
  <rect y="32" width="165" height="2" rx="1" fill="#62AE90"/>
  <circle cx="164" cy="33" r="10" transform="rotate(-180 164 33)" fill="#62AE90" stroke="#F8F9FB" stroke-width="2"/>
  <circle cx="164" cy="33" r="5.5" transform="rotate(-180 164 33)" fill="#F8F9FB"/>
  <rect x="179" y="21" width="30" height="21" rx="6" transform="rotate(-180 179 21)" fill="#62AE90"/>
  <path d="M162.12 12.444C162.12 10.848 160.836 9.972 159.42 9.972C159.06 9.972 158.724 10.008 158.412 10.08L158.412 8.22L161.676 8.22L161.676 7.08L157.164 7.08L157.164 11.064L158.988 11.064C160.152 11.064 160.812 11.568 160.812 12.468C160.812 13.38 160.116 13.968 159.168 13.968C158.316 13.968 157.728 13.524 157.248 12.792L156.36 13.428C156.9 14.448 157.896 15.132 159.204 15.132C160.776 15.132 162.12 14.04 162.12 12.444ZM163.447 14.208C163.447 14.736 163.867 15.132 164.395 15.132C164.923 15.132 165.319 14.736 165.319 14.208C165.319 13.668 164.923 13.272 164.395 13.272C163.867 13.272 163.447 13.68 163.447 14.208ZM166.681 10.968C166.681 13.308 167.677 15.132 169.705 15.132C171.745 15.132 172.717 13.308 172.717 10.968C172.717 9.756 172.465 8.784 171.949 8.052C171.445 7.32 170.701 6.948 169.705 6.948C168.709 6.948 167.965 7.32 167.449 8.064C166.933 8.796 166.681 9.768 166.681 10.968ZM171.397 10.98C171.397 12.852 170.869 13.968 169.705 13.968C168.541 13.968 168.001 12.852 168.001 10.98C168.001 9.072 168.565 8.112 169.705 8.112C170.833 8.112 171.397 9.072 171.397 10.98Z" fill="#F8F9FB"/>
  <path d="M167 18C166.546 19.2924 166.308 20.6301 166.308 22C166.308 23.3699 166.546 24.7076 167 26L161 26C161.454 24.7076 161.692 23.3699 161.692 22C161.692 20.6301 161.454 19.2924 161 18L167 18Z" fill="#62AE90"/>
</svg>
