<svg width="326" height="44" viewBox="0 0 326 44" fill="none" xmlns="http://www.w3.org/2000/svg">
  <rect y="32" width="326" height="2" rx="1" fill="#E2E2E2"/>
  <rect y="32" width="213" height="2" rx="1" fill="#62AE90"/>
  <circle cx="213" cy="33" r="10" transform="rotate(-180 213 33)" fill="#62AE90" stroke="#F8F9FB" stroke-width="2"/>
  <circle cx="213" cy="33" r="5.5" transform="rotate(-180 213 33)" fill="#F8F9FB"/>
  <rect x="228" y="21" width="30" height="21" rx="6" transform="rotate(-180 228 21)" fill="#62AE90"/>
  <path d="M205.432 7.08L205.432 8.22L209.152 8.22L205.66 15L207.04 15L210.868 7.428L210.868 7.08L205.432 7.08ZM210.701 14.208C210.701 14.736 211.121 15.132 211.649 15.132C212.177 15.132 212.573 14.736 212.573 14.208C212.573 13.668 212.177 13.272 211.649 13.272C211.121 13.272 210.701 13.68 210.701 14.208ZM219.44 12.444C219.44 10.848 218.156 9.972 216.74 9.972C216.38 9.972 216.044 10.008 215.732 10.08L215.732 8.22L218.996 8.22L218.996 7.08L214.484 7.08L214.484 11.064L216.308 11.064C217.472 11.064 218.132 11.568 218.132 12.468C218.132 13.38 217.436 13.968 216.488 13.968C215.636 13.968 215.048 13.524 214.568 12.792L213.68 13.428C214.22 14.448 215.216 15.132 216.524 15.132C218.096 15.132 219.44 14.04 219.44 12.444Z" fill="#F8F9FB"/>
  <path d="M216 18C215.546 19.2924 215.308 20.6301 215.308 22C215.308 23.3699 215.546 24.7076 216 26L210 26C210.454 24.7076 210.692 23.3699 210.692 22C210.692 20.6301 210.454 19.2924 210 18L216 18Z" fill="#62AE90"/>
</svg>
