<svg width="900" height="468" viewBox="0 0 900 468" fill="none" xmlns="http://www.w3.org/2000/svg">
  <circle cx="413" cy="234" r="234" fill="#F1F5F6"/>
  <path d="M650.442 186.178L585.632 191.322H650.442V186.178Z" fill="#62AE90"/>
  <path d="M833.557 186.178L898.367 191.322H833.557V186.178Z" fill="#62AE90"/>
  <path d="M648.906 336H836.091C836.76 336 837.425 335.888 838.057 335.669L897.63 315H586.365L646.969 335.679C647.593 335.891 648.247 336 648.906 336Z" fill="#EEEEEE"/>
  <path d="M669.849 144H650.908V321.724H669.849V144Z" fill="#DAEAE5" stroke="#62AE90" stroke-miterlimit="10" stroke-linecap="round"/>
  <path d="M669.594 150.268H651.162V151.067H669.594V150.268Z" fill="#62AE90"/>
  <path d="M669.33 150.522V150.812H651.417V150.522H669.33ZM669.839 150.013H650.908V151.321H669.839V150.013Z" fill="#62AE90"/>
  <path d="M669.594 157.584H651.162V158.382H669.594V157.584Z" fill="#62AE90"/>
  <path d="M669.33 157.838V158.128H651.417V157.838H669.33ZM669.839 157.329H650.908V158.637H669.839V157.329Z" fill="#62AE90"/>
  <path d="M833.086 144H814.146V321.724H833.086V144Z" fill="#DAEAE5" stroke="#62AE90" stroke-miterlimit="10" stroke-linecap="round"/>
  <path d="M832.832 150.267H814.399V151.066H832.832V150.267Z" fill="#62AE90"/>
  <path d="M832.578 150.522V150.812H814.654V150.522H832.578ZM833.086 150.013H814.146V151.321H833.086V150.013Z" fill="#62AE90"/>
  <path d="M832.832 157.588H814.399V158.387H832.832V157.588Z" fill="#62AE90"/>
  <path d="M832.578 157.843V158.133H814.654V157.843H832.578ZM833.086 157.334H814.146V158.642H833.086V157.334Z" fill="#62AE90"/>
  <path d="M814.147 148.09H669.849V331.45H814.147V148.09Z" fill="#BCDBD0" stroke="#62AE90" stroke-miterlimit="10" stroke-linecap="round"/>
  <path d="M813.89 154.225H670.101V154.994H813.89V154.225Z" fill="#62AE90"/>
  <path d="M813.638 154.48V154.74H670.348V154.48H813.638ZM814.147 153.972H669.839V155.249H814.147V153.972Z" fill="#62AE90"/>
  <path d="M813.89 161.388H670.101V162.157H813.89V161.388Z" fill="#62AE90"/>
  <path d="M813.638 161.644V161.903H670.348V161.644H813.638ZM814.147 161.135H669.839V162.412H814.147V161.135Z" fill="#62AE90"/>
  <path d="M826.352 251.667H657.639V331.45H826.352V251.667Z" fill="#BCDBD0" stroke="#62AE90" stroke-miterlimit="10" stroke-linecap="round"/>
  <path d="M813.985 245.845H670.013L657.129 250.988H826.87L813.985 245.845Z" fill="#62AE90"/>
  <path d="M826.352 251.312H657.639V269.337H826.352V251.312Z" fill="#DAEAE5" stroke="#62AE90" stroke-miterlimit="10" stroke-linecap="round"/>
  <g opacity="0.2">
    <path opacity="0.2" d="M826.352 269.464H657.639V276.907H826.352V269.464Z" fill="#62AE90"/>
  </g>
  <path d="M833.052 314.523H898.61V191.991H833.052V314.523Z" fill="#ADD3C5" stroke="#62AE90" stroke-miterlimit="10" stroke-linecap="round"/>
  <path d="M898.349 197.262H833.3V197.822H898.349V197.262Z" fill="#62AE90"/>
  <path d="M898.095 197.516V197.567H833.555V197.516H898.095ZM898.604 197.007H833.046V198.075H898.604V197.007Z" fill="#62AE90"/>
  <path d="M898.349 203.255H833.3V203.815H898.349V203.255Z" fill="#62AE90"/>
  <path d="M898.095 203.509V203.56H833.555V203.509H898.095ZM898.604 203H833.046V204.069H898.604V203Z" fill="#62AE90"/>
  <path d="M719.367 256.914H720.57V259.782H724.337V256.914H725.54V264.115H724.337V260.818H720.57V264.115H719.367V256.914Z" fill="#62AE90"/>
  <path d="M733.305 256.914C734.014 256.924 734.706 257.143 735.291 257.545C735.877 257.946 736.331 258.512 736.595 259.171C736.86 259.829 736.925 260.552 736.78 261.247C736.636 261.942 736.289 262.579 735.783 263.078C735.278 263.576 734.636 263.914 733.939 264.049C733.242 264.184 732.521 264.11 731.866 263.836C731.211 263.562 730.651 263.101 730.258 262.51C729.864 261.919 729.654 261.224 729.654 260.514C729.655 260.038 729.751 259.566 729.935 259.126C730.12 258.687 730.389 258.288 730.729 257.953C731.068 257.618 731.471 257.354 731.913 257.176C732.355 256.997 732.828 256.908 733.305 256.914ZM733.305 257.94C732.792 257.922 732.285 258.058 731.85 258.33C731.414 258.602 731.07 258.998 730.862 259.466C730.653 259.935 730.589 260.456 730.679 260.962C730.768 261.467 731.007 261.934 731.364 262.303C731.721 262.672 732.18 262.926 732.682 263.032C733.184 263.138 733.707 263.091 734.182 262.898C734.658 262.705 735.065 262.374 735.351 261.948C735.637 261.521 735.789 261.019 735.788 260.506C735.795 260.177 735.737 259.849 735.617 259.542C735.497 259.235 735.317 258.955 735.087 258.719C734.857 258.482 734.583 258.294 734.28 258.164C733.977 258.035 733.651 257.967 733.321 257.965L733.305 257.94Z" fill="#62AE90"/>
  <path d="M743.466 257.95H740.971V256.914H747.143V257.95H744.639V264.115H743.448L743.466 257.95Z" fill="#62AE90"/>
  <path d="M751.265 256.914H755.264V257.95H752.241V259.799H754.519V260.801H752.241V263.079H755.373V264.115H751.258L751.265 256.914Z" fill="#62AE90"/>
  <path d="M760.517 256.914H761.585V263.079H764.632V264.115H760.517V256.914Z" fill="#62AE90"/>
  <path d="M802.43 191.991H783.234V195.099H802.435L802.43 191.991Z" fill="#8FC4AF" stroke="#62AE90" stroke-miterlimit="10" stroke-linecap="round"/>
  <path d="M800.404 176.581H785.259V191.991H800.399L800.404 176.581Z" stroke="#62AE90" stroke-miterlimit="10" stroke-linecap="round"/>
  <path d="M798.304 178.565H793.526V191.991H798.304V178.565Z" fill="#DAEAE5" stroke="#62AE90" stroke-miterlimit="10" stroke-linecap="round"/>
  <path d="M792.126 178.565H787.359V191.991H792.137L792.126 178.565Z" fill="#DAEAE5" stroke="#62AE90" stroke-miterlimit="10" stroke-linecap="round"/>
  <path d="M777.012 191.991H757.816V195.099H777.017L777.012 191.991Z" fill="#8FC4AF" stroke="#62AE90" stroke-miterlimit="10" stroke-linecap="round"/>
  <path d="M774.987 176.581H759.842V191.991H774.982L774.987 176.581Z" stroke="#62AE90" stroke-miterlimit="10" stroke-linecap="round"/>
  <path d="M772.885 178.565H768.107V191.991H772.885V178.565Z" fill="#DAEAE5" stroke="#62AE90" stroke-miterlimit="10" stroke-linecap="round"/>
  <path d="M766.71 178.565H761.923V191.991H766.7L766.71 178.565Z" fill="#DAEAE5" stroke="#62AE90" stroke-miterlimit="10" stroke-linecap="round"/>
  <path d="M751.596 191.991H732.416V195.099H751.596V191.991Z" fill="#8FC4AF" stroke="#62AE90" stroke-miterlimit="10" stroke-linecap="round"/>
  <path d="M749.57 176.581H734.45V191.991H749.591L749.57 176.581Z" stroke="#62AE90" stroke-miterlimit="10" stroke-linecap="round"/>
  <path d="M747.47 178.565H742.692V191.991H747.47V178.565Z" fill="#DAEAE5" stroke="#62AE90" stroke-miterlimit="10" stroke-linecap="round"/>
  <path d="M741.292 178.565H736.515V191.991H741.292V178.565Z" fill="#DAEAE5" stroke="#62AE90" stroke-miterlimit="10" stroke-linecap="round"/>
  <path d="M726.178 191.991H706.978V195.099H726.178V191.991Z" fill="#8FC4AF" stroke="#62AE90" stroke-miterlimit="10" stroke-linecap="round"/>
  <path d="M724.153 176.581H709.013V191.991H724.153V176.581Z" stroke="#62AE90" stroke-miterlimit="10" stroke-linecap="round"/>
  <path d="M722.053 178.565H717.275V191.991H722.053V178.565Z" fill="#DAEAE5" stroke="#62AE90" stroke-miterlimit="10" stroke-linecap="round"/>
  <path d="M715.875 178.565H711.098V191.991H715.875V178.565Z" fill="#DAEAE5" stroke="#62AE90" stroke-miterlimit="10" stroke-linecap="round"/>
  <path d="M700.76 191.991H681.539V195.099H700.739L700.76 191.991Z" fill="#8FC4AF" stroke="#62AE90" stroke-miterlimit="10" stroke-linecap="round"/>
  <path d="M698.736 176.581H683.575V191.991H698.736V176.581Z" stroke="#62AE90" stroke-miterlimit="10" stroke-linecap="round"/>
  <path d="M696.634 178.565H691.856V191.991H696.634V178.565Z" fill="#DAEAE5" stroke="#62AE90" stroke-miterlimit="10" stroke-linecap="round"/>
  <path d="M690.458 178.565H685.681V191.991H690.458V178.565Z" fill="#DAEAE5" stroke="#62AE90" stroke-miterlimit="10" stroke-linecap="round"/>
  <path d="M802.43 226.876H783.234V229.984H802.435L802.43 226.876Z" fill="#8FC4AF" stroke="#62AE90" stroke-miterlimit="10" stroke-linecap="round"/>
  <path d="M800.404 211.461H785.259V226.876H800.399L800.404 211.461Z" stroke="#62AE90" stroke-miterlimit="10" stroke-linecap="round"/>
  <path d="M798.304 213.445H793.526V226.876H798.304V213.445Z" fill="#DAEAE5" stroke="#62AE90" stroke-miterlimit="10" stroke-linecap="round"/>
  <path d="M792.126 213.445H787.359V226.876H792.137L792.126 213.445Z" fill="#DAEAE5" stroke="#62AE90" stroke-miterlimit="10" stroke-linecap="round"/>
  <path d="M777.012 226.876H757.816V229.984H777.017L777.012 226.876Z" fill="#8FC4AF" stroke="#62AE90" stroke-miterlimit="10" stroke-linecap="round"/>
  <path d="M774.987 211.461H759.842V226.876H774.982L774.987 211.461Z" stroke="#62AE90" stroke-miterlimit="10" stroke-linecap="round"/>
  <path d="M772.885 213.445H768.107V226.876H772.885V213.445Z" fill="#DAEAE5" stroke="#62AE90" stroke-miterlimit="10" stroke-linecap="round"/>
  <path d="M766.71 213.445H761.923V226.876H766.7L766.71 213.445Z" fill="#DAEAE5" stroke="#62AE90" stroke-miterlimit="10" stroke-linecap="round"/>
  <path d="M751.596 226.876H732.416V229.984H751.596V226.876Z" fill="#8FC4AF" stroke="#62AE90" stroke-miterlimit="10" stroke-linecap="round"/>
  <path d="M749.57 211.461H734.45V226.876H749.591L749.57 211.461Z" stroke="#62AE90" stroke-miterlimit="10" stroke-linecap="round"/>
  <path d="M747.47 213.445H742.692V226.876H747.47V213.445Z" fill="#DAEAE5" stroke="#62AE90" stroke-miterlimit="10" stroke-linecap="round"/>
  <path d="M741.292 213.445H736.515V226.876H741.292V213.445Z" fill="#DAEAE5" stroke="#62AE90" stroke-miterlimit="10" stroke-linecap="round"/>
  <path d="M726.178 226.876H706.978V229.984H726.178V226.876Z" fill="#8FC4AF" stroke="#62AE90" stroke-miterlimit="10" stroke-linecap="round"/>
  <path d="M724.153 211.461H709.013V226.876H724.153V211.461Z" stroke="#62AE90" stroke-miterlimit="10" stroke-linecap="round"/>
  <path d="M722.053 213.445H717.275V226.876H722.053V213.445Z" fill="#DAEAE5" stroke="#62AE90" stroke-miterlimit="10" stroke-linecap="round"/>
  <path d="M715.875 213.445H711.098V226.876H715.875V213.445Z" fill="#DAEAE5" stroke="#62AE90" stroke-miterlimit="10" stroke-linecap="round"/>
  <path d="M700.76 226.876H681.539V229.984H700.739L700.76 226.876Z" fill="#8FC4AF" stroke="#62AE90" stroke-miterlimit="10" stroke-linecap="round"/>
  <path d="M698.736 211.461H683.575V226.876H698.736V211.461Z" stroke="#62AE90" stroke-miterlimit="10" stroke-linecap="round"/>
  <path d="M696.634 213.445H691.856V226.876H696.634V213.445Z" fill="#DAEAE5" stroke="#62AE90" stroke-miterlimit="10" stroke-linecap="round"/>
  <path d="M690.458 213.445H685.681V226.876H690.458V213.445Z" fill="#DAEAE5" stroke="#62AE90" stroke-miterlimit="10" stroke-linecap="round"/>
  <path d="M767.462 293.945H716.536V328.266H767.462V293.945Z" stroke="#62AE90" stroke-miterlimit="10" stroke-linecap="round"/>
  <path d="M765.609 295.385H718.382V326.821H765.609V295.385Z" fill="#DAEAE5" stroke="#62AE90" stroke-miterlimit="10" stroke-linecap="round"/>
  <path d="M770.315 328.26H713.676V331.476H770.315V328.26Z" fill="#8FC4AF" stroke="#62AE90" stroke-miterlimit="10" stroke-linecap="round"/>
  <path d="M742 295.385V326.816" stroke="#62AE90" stroke-miterlimit="10" stroke-linecap="round"/>
  <path d="M744.182 312.555L746.308 314.682" stroke="#62AE90" stroke-miterlimit="10" stroke-linecap="round"/>
  <path d="M739.816 312.555L737.689 314.682" stroke="#62AE90" stroke-miterlimit="10" stroke-linecap="round"/>
  <path d="M888.811 226.876H869.615V229.984H888.816L888.811 226.876Z" fill="#8FC4AF" stroke="#62AE90" stroke-miterlimit="10" stroke-linecap="round"/>
  <path d="M886.786 211.461H871.641V226.876H886.781L886.786 211.461Z" fill="#ADD3C5" stroke="#62AE90" stroke-miterlimit="10" stroke-linecap="round"/>
  <path d="M884.691 213.445H873.742V226.871H884.696L884.691 213.445Z" fill="#DAEAE5" stroke="#62AE90" stroke-miterlimit="10" stroke-linecap="round"/>
  <path d="M862.039 226.876H842.844V229.984H862.044L862.039 226.876Z" fill="#8FC4AF" stroke="#62AE90" stroke-miterlimit="10" stroke-linecap="round"/>
  <path d="M860.016 211.461H844.85V226.876H859.99L860.016 211.461Z" fill="#ADD3C5" stroke="#62AE90" stroke-miterlimit="10" stroke-linecap="round"/>
  <path d="M857.919 213.445H846.971V226.871H857.924L857.919 213.445Z" fill="#DAEAE5" stroke="#62AE90" stroke-miterlimit="10" stroke-linecap="round"/>
  <path d="M888.811 261.777H869.615V264.885H888.816L888.811 261.777Z" fill="#8FC4AF" stroke="#62AE90" stroke-miterlimit="10" stroke-linecap="round"/>
  <path d="M886.786 246.346H871.641V261.776H886.781L886.786 246.346Z" fill="#ADD3C5" stroke="#62AE90" stroke-miterlimit="10" stroke-linecap="round"/>
  <path d="M884.691 248.325H873.742V261.777H884.696L884.691 248.325Z" fill="#DAEAE5" stroke="#62AE90" stroke-miterlimit="10" stroke-linecap="round"/>
  <path d="M862.039 261.777H842.844V264.885H862.044L862.039 261.777Z" fill="#8FC4AF" stroke="#62AE90" stroke-miterlimit="10" stroke-linecap="round"/>
  <path d="M860.016 246.346H844.85V261.776H859.99L860.016 246.346Z" fill="#ADD3C5" stroke="#62AE90" stroke-miterlimit="10" stroke-linecap="round"/>
  <path d="M857.919 248.325H846.971V261.777H857.924L857.919 248.325Z" fill="#DAEAE5" stroke="#62AE90" stroke-miterlimit="10" stroke-linecap="round"/>
  <path d="M888.811 296.641H869.615V299.75H888.816L888.811 296.641Z" fill="#8FC4AF" stroke="#62AE90" stroke-miterlimit="10" stroke-linecap="round"/>
  <path d="M886.786 281.231H871.641V296.641H886.781L886.786 281.231Z" fill="#ADD3C5" stroke="#62AE90" stroke-miterlimit="10" stroke-linecap="round"/>
  <path d="M884.691 283.21H873.742V296.636H884.696L884.691 283.21Z" fill="#DAEAE5" stroke="#62AE90" stroke-miterlimit="10" stroke-linecap="round"/>
  <path d="M862.039 296.641H842.844V299.75H862.044L862.039 296.641Z" fill="#8FC4AF" stroke="#62AE90" stroke-miterlimit="10" stroke-linecap="round"/>
  <path d="M860.016 281.231H844.85V296.641H859.99L860.016 281.231Z" fill="#ADD3C5" stroke="#62AE90" stroke-miterlimit="10" stroke-linecap="round"/>
  <path d="M857.919 283.21H846.971V296.636H857.924L857.919 283.21Z" fill="#DAEAE5" stroke="#62AE90" stroke-miterlimit="10" stroke-linecap="round"/>
  <path d="M650.908 191.991H585.35V314.523H650.908V191.991Z" fill="#ADD3C5" stroke="#62AE90" stroke-miterlimit="10" stroke-linecap="round"/>
  <path d="M650.654 197.261H585.604V197.821H650.654V197.261Z" fill="#62AE90"/>
  <path d="M650.399 197.516V197.567H585.858V197.516H650.399ZM650.908 197.007H585.35V198.075H650.908V197.007Z" fill="#62AE90"/>
  <path d="M650.654 203.255H585.604V203.814H650.654V203.255Z" fill="#62AE90"/>
  <path d="M650.399 203.509V203.56H585.858V203.509H650.399ZM650.908 203H585.35V204.069H650.908V203Z" fill="#62AE90"/>
  <path d="M595.143 229.984H614.343V226.876H595.143V229.984Z" fill="#8FC4AF" stroke="#62AE90" stroke-miterlimit="10" stroke-linecap="round"/>
  <path d="M597.172 226.876H612.312V211.461H597.172V226.876Z" fill="#ADD3C5" stroke="#62AE90" stroke-miterlimit="10" stroke-linecap="round"/>
  <path d="M599.264 226.871H610.217V213.445H599.264V226.871Z" fill="#DAEAE5" stroke="#62AE90" stroke-miterlimit="10" stroke-linecap="round"/>
  <path d="M621.914 229.984H641.114V226.876H621.914V229.984Z" fill="#8FC4AF" stroke="#62AE90" stroke-miterlimit="10" stroke-linecap="round"/>
  <path d="M623.943 226.876H639.084V211.461H623.943V226.876Z" fill="#ADD3C5" stroke="#62AE90" stroke-miterlimit="10" stroke-linecap="round"/>
  <path d="M626.034 226.871H636.988V213.445H626.034V226.871Z" fill="#DAEAE5" stroke="#62AE90" stroke-miterlimit="10" stroke-linecap="round"/>
  <path d="M595.143 264.87H614.343V261.777H595.143V264.87Z" fill="#8FC4AF" stroke="#62AE90" stroke-miterlimit="10" stroke-linecap="round"/>
  <path d="M597.172 261.776H612.312V246.346H597.172V261.776Z" fill="#ADD3C5" stroke="#62AE90" stroke-miterlimit="10" stroke-linecap="round"/>
  <path d="M599.264 261.777H610.217V248.325H599.264V261.777Z" fill="#DAEAE5" stroke="#62AE90" stroke-miterlimit="10" stroke-linecap="round"/>
  <path d="M621.914 264.87H641.114V261.777H621.914V264.87Z" fill="#8FC4AF" stroke="#62AE90" stroke-miterlimit="10" stroke-linecap="round"/>
  <path d="M623.943 261.776H639.084V246.346H623.943V261.776Z" fill="#ADD3C5" stroke="#62AE90" stroke-miterlimit="10" stroke-linecap="round"/>
  <path d="M626.034 261.777H636.988V248.325H626.034V261.777Z" fill="#DAEAE5" stroke="#62AE90" stroke-miterlimit="10" stroke-linecap="round"/>
  <path d="M595.143 299.755H614.343V296.646H595.143V299.755Z" fill="#8FC4AF" stroke="#62AE90" stroke-miterlimit="10" stroke-linecap="round"/>
  <path d="M597.172 296.641H612.312V281.231H597.172V296.641Z" fill="#ADD3C5" stroke="#62AE90" stroke-miterlimit="10" stroke-linecap="round"/>
  <path d="M599.264 296.636H610.217V283.21H599.264V296.636Z" fill="#DAEAE5" stroke="#62AE90" stroke-miterlimit="10" stroke-linecap="round"/>
  <path d="M621.914 299.755H641.114V296.646H621.914V299.755Z" fill="#8FC4AF" stroke="#62AE90" stroke-miterlimit="10" stroke-linecap="round"/>
  <path d="M623.943 296.641H639.084V281.231H623.943V296.641Z" fill="#ADD3C5" stroke="#62AE90" stroke-miterlimit="10" stroke-linecap="round"/>
  <path d="M626.034 296.636H636.988V283.21H626.034V296.636Z" fill="#DAEAE5" stroke="#62AE90" stroke-miterlimit="10" stroke-linecap="round"/>
  <path opacity="0.2" d="M650.915 191.991H635.011V314.523H650.915V191.991Z" fill="#62AE90"/>
  <path opacity="0.2" d="M848.988 191.991H833.087V314.523H848.988V191.991Z" fill="#62AE90"/>
  <path d="M245.216 329.413H7.42745C2.72922 329.413 0.0224574 328.07 1.35525 326.444L34.8501 285.549C35.55 284.695 38.8073 284.005 42.1368 284.005H210.491C213.82 284.005 217.078 284.69 217.778 285.549L251.293 326.433C252.626 328.07 249.919 329.413 245.216 329.413Z" fill="#EEEEEE"/>
  <path d="M213.424 156.386H39.1984C37.4932 156.386 36.1108 157.768 36.1108 159.474V272.607C36.1108 274.312 37.4932 275.694 39.1984 275.694H213.424C215.129 275.694 216.512 274.312 216.512 272.607V159.474C216.512 157.768 215.129 156.386 213.424 156.386Z" fill="white"/>
  <path d="M216.013 272.272V159.813C216.013 158.25 214.746 156.983 213.182 156.983H39.4455C37.8824 156.983 36.6152 158.25 36.6152 159.813V272.272C36.6152 273.835 37.8824 275.103 39.4455 275.103H213.182C214.746 275.103 216.013 273.835 216.013 272.272Z" fill="#8FC4AF" stroke="#62AE90" stroke-miterlimit="10" stroke-linecap="round"/>
  <path d="M210.903 164.841H41.7251V267.24H210.903V164.841Z" fill="#DAEAE5" stroke="#62AE90" stroke-miterlimit="10" stroke-linecap="round"/>
  <path d="M251.627 317.49H249.934V318.699L217.772 279.466C217.073 278.612 213.815 277.923 210.486 277.923H42.1366C38.8072 277.923 35.5498 278.607 34.8499 279.466L3.62443 317.546H1V321.184C1.04631 322.409 3.57297 323.31 7.40668 323.31H245.216C249.08 323.31 251.591 322.399 251.622 321.174L251.627 317.49Z" fill="#8FC4AF" stroke="#62AE90" stroke-miterlimit="10" stroke-linecap="round"/>
  <path d="M245.216 319.635H7.42745C2.72922 319.635 0.0224574 318.292 1.35525 316.666L34.8501 275.772C35.55 274.917 38.8073 274.228 42.1368 274.228H210.491C213.82 274.228 217.078 274.912 217.778 275.772L251.293 316.656C252.626 318.292 249.919 319.635 245.216 319.635Z" fill="#BCDBD0" stroke="#62AE90" stroke-miterlimit="10" stroke-linecap="round"/>
  <path d="M225.764 300.627H26.8583C25.4843 300.627 24.6301 300.282 24.9491 299.855L41.7609 277.357C41.9822 277.063 43.0783 276.842 44.2155 276.842H208.412C209.549 276.842 210.645 277.079 210.866 277.357L227.673 299.85C227.997 300.277 227.159 300.627 225.764 300.627Z" fill="#DAEAE5" stroke="#62AE90" stroke-miterlimit="10" stroke-linecap="round"/>
  <path d="M156.098 317.155H96.5288C94.985 317.155 93.8323 316.718 93.9558 316.183L96.5957 303.776C96.6935 303.328 97.9028 302.968 99.3025 302.968H153.335C154.734 302.968 155.944 303.328 156.042 303.776L158.681 316.183C158.795 316.723 157.637 317.155 156.098 317.155Z" fill="#8FC4AF" stroke="#62AE90" stroke-miterlimit="10" stroke-linecap="round"/>
  <path d="M34.5003 293.221C34.2909 293.229 34.0819 293.199 33.8828 293.134L36.1007 290.046C36.4675 289.831 36.891 289.733 37.3151 289.763H57.6725C57.8962 289.754 58.1198 289.787 58.3311 289.861L56.6741 292.949C56.3209 293.16 55.9112 293.257 55.5009 293.227L34.5003 293.221Z" fill="#62AE90"/>
  <path d="M57.6724 290.026C57.7632 290.021 57.8543 290.021 57.9451 290.026L56.4734 292.753C56.1675 292.888 55.8349 292.951 55.5008 292.938H34.3253L36.2911 290.201C36.6142 290.056 36.9663 289.987 37.3202 290H57.6776L57.6724 290.026ZM57.6724 289.491H37.3151C36.8087 289.448 36.3037 289.587 35.8897 289.882L33.61 293.046C33.4454 293.273 33.8416 293.458 34.4951 293.458H55.4957C56.1492 293.458 56.777 293.273 56.8954 293.046L58.6038 289.882C58.7222 289.666 58.3002 289.491 57.6724 289.491Z" fill="#62AE90"/>
  <path d="M61.2741 293.222C61.0339 293.23 60.7941 293.198 60.564 293.129L62.1901 289.954C62.5313 289.81 62.9007 289.744 63.2707 289.764H72.307C72.5489 289.755 72.7904 289.787 73.0223 289.856L71.6843 293.026C71.3398 293.171 70.9668 293.236 70.5934 293.216L61.2741 293.222Z" fill="#62AE90"/>
  <path d="M72.3024 290.026C72.4224 290.018 72.5427 290.018 72.6626 290.026L71.4842 292.815C71.1958 292.911 70.8928 292.957 70.5888 292.949H61.2747C61.165 292.955 61.055 292.955 60.9453 292.949L62.3759 290.16C62.6643 290.063 62.9673 290.018 63.2713 290.026H72.3075H72.3024ZM72.3075 289.511H63.2713C62.6383 289.511 62.0517 289.66 61.9591 289.841L60.2712 293.134C60.1734 293.324 60.6211 293.484 61.2747 293.484H70.5939C71.2475 293.484 71.8393 293.33 71.9216 293.134L73.311 289.841C73.3882 289.66 72.9353 289.511 72.2818 289.511H72.3075Z" fill="#62AE90"/>
  <path d="M76.3822 293.221C76.1239 293.231 75.8661 293.194 75.6206 293.113L76.8814 289.933C77.2101 289.81 77.56 289.755 77.9105 289.768H86.9468C87.205 289.76 87.4628 289.796 87.7084 289.876L86.7358 293.057C86.4069 293.179 86.0572 293.235 85.7066 293.221H76.3822Z" fill="#62AE90"/>
  <path d="M86.9375 290.026C87.0839 290.025 87.2301 290.035 87.3749 290.057L86.5207 292.851C86.251 292.935 85.9695 292.975 85.6871 292.969H76.3832C76.2456 292.971 76.108 292.962 75.9715 292.944L77.0779 290.149C77.3493 290.065 77.6326 290.025 77.9167 290.031H86.953L86.9375 290.026ZM86.953 289.516H77.927C77.294 289.516 76.728 289.666 76.656 289.846L75.354 293.139C75.2768 293.329 75.7451 293.489 76.3832 293.489H85.7025C86.356 293.489 86.9272 293.335 86.989 293.139L88.0182 289.846C88.0748 289.666 87.6065 289.516 86.989 289.516H86.953Z" fill="#62AE90"/>
  <path d="M91.4656 293.221C91.1912 293.234 90.917 293.194 90.6577 293.103L91.5377 289.944C91.8522 289.808 92.1941 289.748 92.536 289.769H101.572C101.848 289.756 102.124 289.796 102.385 289.887L101.788 293.041C101.474 293.179 101.132 293.241 100.79 293.221H91.4656Z" fill="#62AE90"/>
  <path d="M101.572 290.021C101.745 290.018 101.917 290.032 102.087 290.062L101.572 292.856C101.321 292.928 101.061 292.961 100.8 292.954H91.4655C91.2931 292.956 91.1208 292.942 90.9509 292.913L91.7331 290.113C91.9873 290.04 92.2509 290.006 92.5153 290.01H101.552L101.572 290.021ZM101.552 289.496H92.5307C91.8978 289.496 91.3472 289.645 91.2957 289.825L90.3797 293.119C90.3283 293.309 90.812 293.469 91.4604 293.469H100.78C101.433 293.469 101.989 293.314 102.025 293.119L102.642 289.825C102.679 289.645 102.195 289.496 101.562 289.496H101.552Z" fill="#62AE90"/>
  <path d="M121.667 293.221C121.358 293.237 121.049 293.186 120.762 293.072L120.906 289.913C121.194 289.799 121.502 289.748 121.811 289.763H130.848C131.157 289.748 131.466 289.799 131.753 289.913L131.898 293.072C131.61 293.186 131.301 293.237 130.992 293.221H121.667Z" fill="#62AE90"/>
  <path d="M130.832 290.026C131.052 290.023 131.272 290.047 131.486 290.098L131.614 292.897C131.405 292.945 131.191 292.968 130.976 292.964H121.667C121.453 292.968 121.238 292.945 121.029 292.897L121.158 290.098C121.372 290.047 121.591 290.023 121.811 290.026H130.848H130.832ZM130.848 289.511H121.796C121.163 289.511 120.648 289.66 120.638 289.841L120.489 293.134C120.489 293.324 121.003 293.484 121.652 293.484H130.971C131.625 293.484 132.144 293.33 132.134 293.134L131.985 289.841C131.985 289.66 131.47 289.511 130.827 289.511H130.848Z" fill="#62AE90"/>
  <path d="M106.558 293.221C106.268 293.234 105.977 293.189 105.704 293.088L106.219 289.928C106.52 289.805 106.845 289.75 107.171 289.769H116.207C116.499 289.755 116.792 289.801 117.066 289.902L116.84 293.062C116.539 293.187 116.214 293.243 115.888 293.227L106.558 293.221Z" fill="#62AE90"/>
  <path d="M116.197 290.021C116.394 290.018 116.591 290.037 116.784 290.077L116.583 292.877C116.353 292.936 116.116 292.964 115.878 292.959H106.559C106.369 292.962 106.179 292.944 105.993 292.908L106.446 290.108C106.681 290.046 106.923 290.016 107.166 290.021H116.202H116.197ZM116.202 289.506H107.166C106.533 289.506 105.998 289.655 105.967 289.835L105.453 293.129C105.422 293.319 105.926 293.479 106.574 293.479H115.894C116.547 293.479 117.082 293.324 117.098 293.129L117.334 289.835C117.334 289.655 116.846 289.506 116.213 289.506H116.202Z" fill="#62AE90"/>
  <path d="M136.749 293.221C136.423 293.24 136.098 293.183 135.797 293.057L135.571 289.897C135.845 289.796 136.138 289.75 136.43 289.763H145.466C145.792 289.745 146.117 289.8 146.418 289.923L146.933 293.082C146.66 293.183 146.37 293.229 146.079 293.216L136.749 293.221Z" fill="#62AE90"/>
  <path d="M145.461 290.026C145.704 290.021 145.946 290.051 146.181 290.113L146.634 292.913C146.448 292.95 146.258 292.967 146.068 292.964H136.749C136.511 292.969 136.274 292.941 136.044 292.882L135.843 290.082C136.036 290.042 136.233 290.023 136.43 290.026H145.466H145.461ZM145.466 289.511H136.425C135.792 289.511 135.293 289.66 135.303 289.841L135.54 293.134C135.54 293.324 136.09 293.484 136.744 293.484H146.063C146.717 293.484 147.216 293.33 147.185 293.134L146.67 289.841C146.639 289.66 146.104 289.511 145.471 289.511H145.466Z" fill="#62AE90"/>
  <path d="M151.842 293.221C151.5 293.241 151.158 293.179 150.844 293.041L150.247 289.887C150.508 289.796 150.784 289.756 151.06 289.769H160.096C160.438 289.748 160.78 289.808 161.095 289.943L161.975 293.103C161.715 293.194 161.441 293.234 161.167 293.221H151.842Z" fill="#62AE90"/>
  <path d="M160.091 290.026C160.356 290.021 160.619 290.056 160.873 290.129L161.656 292.928C161.486 292.958 161.313 292.971 161.141 292.969H151.842C151.582 292.976 151.321 292.943 151.07 292.871L150.556 290.077C150.726 290.048 150.898 290.034 151.07 290.036H160.107L160.091 290.026ZM160.107 289.521H151.06C150.427 289.521 149.943 289.671 149.979 289.851L150.597 293.144C150.633 293.335 151.189 293.494 151.842 293.494H161.162C161.815 293.494 162.299 293.34 162.242 293.144L161.326 289.851C161.275 289.671 160.724 289.521 160.091 289.521H160.107Z" fill="#62AE90"/>
  <path d="M166.952 293.221C166.587 293.25 166.221 293.181 165.891 293.021L164.939 289.877C165.185 289.796 165.443 289.759 165.701 289.768H174.737C175.091 289.748 175.445 289.815 175.766 289.964L177.007 293.118C176.761 293.199 176.503 293.236 176.245 293.227L166.952 293.221Z" fill="#62AE90"/>
  <path d="M174.727 290.026C175.011 290.02 175.295 290.06 175.566 290.144L176.672 292.938C176.536 292.957 176.398 292.965 176.261 292.964H166.952C166.669 292.97 166.388 292.93 166.118 292.846L165.264 290.052C165.409 290.03 165.555 290.02 165.701 290.021H174.737L174.727 290.026ZM174.737 289.506H165.691C165.058 289.506 164.595 289.655 164.662 289.835L165.691 293.129C165.747 293.319 166.324 293.479 166.977 293.479H176.297C176.95 293.479 177.413 293.324 177.326 293.129L176.024 289.835C175.952 289.655 175.381 289.506 174.753 289.506H174.737Z" fill="#62AE90"/>
  <path d="M182.033 293.221C181.653 293.248 181.274 293.173 180.932 293.005L179.609 289.856C179.841 289.787 180.083 289.755 180.325 289.763H189.361C189.738 289.737 190.115 289.808 190.457 289.969L192.073 293.124C191.843 293.193 191.603 293.224 191.363 293.216L182.033 293.221Z" fill="#62AE90"/>
  <path d="M189.357 290.026C189.661 290.018 189.964 290.063 190.252 290.16L191.683 292.949C191.573 292.955 191.463 292.955 191.354 292.949H182.034C181.73 292.957 181.427 292.911 181.139 292.815L179.961 290.026C180.081 290.018 180.201 290.018 180.321 290.026H189.357ZM189.357 289.511H180.331C179.698 289.511 179.25 289.66 179.302 289.841L180.691 293.134C180.774 293.324 181.365 293.484 182.019 293.484H191.338C191.992 293.484 192.439 293.33 192.342 293.134L190.654 289.841C190.561 289.66 189.975 289.511 189.342 289.511H189.357Z" fill="#62AE90"/>
  <path d="M45.229 298.738C44.987 298.748 44.7452 298.716 44.5137 298.645L46.6338 295.177C47.0033 294.998 47.4129 294.918 47.8225 294.945H56.056C56.2979 294.936 56.5396 294.968 56.7713 295.038L54.9393 298.496C54.5666 298.682 54.1509 298.766 53.7352 298.738H45.229Z" fill="#62AE90"/>
  <path d="M56.0456 295.203C56.1553 295.197 56.2653 295.197 56.375 295.203L54.7334 298.29C54.4053 298.415 54.0552 298.473 53.7042 298.46H45.2289C45.1277 298.465 45.0264 298.465 44.9253 298.46L46.819 295.373C47.1396 295.253 47.4804 295.197 47.8224 295.208H56.0559L56.0456 295.203ZM56.0456 294.704H47.8121C47.1535 294.704 46.5257 294.863 46.4022 295.059L44.2203 298.635C44.0916 298.846 44.5393 299.016 45.2186 299.016H53.7403C54.4195 299.016 55.0576 298.846 55.1708 298.635L57.0645 295.059C57.1674 294.863 56.7198 294.704 56.0611 294.704H56.0456Z" fill="#62AE90"/>
  <path d="M30.5845 298.738C30.3586 298.745 30.133 298.717 29.9155 298.655L32.4062 295.192C32.7895 294.999 33.2178 294.912 33.6463 294.94H41.993C42.2189 294.933 42.4445 294.961 42.662 295.022L40.4595 298.475C40.0728 298.675 39.6382 298.765 39.2039 298.733L30.5845 298.738Z" fill="#62AE90"/>
  <path d="M41.9923 295.203H42.2393L40.2736 298.29C39.9352 298.425 39.5725 298.488 39.2084 298.475H30.3574L32.5856 295.388C32.9213 295.257 33.2803 295.195 33.6405 295.208H41.9923V295.203ZM41.9923 294.667H33.6405C33.1324 294.622 32.6236 294.747 32.1945 295.022L29.6215 298.599C29.4723 298.81 29.8994 298.98 30.5787 298.98H39.2084C39.8877 298.98 40.5463 298.81 40.6801 298.599L42.934 295.043C43.0575 294.848 42.6304 294.688 41.9718 294.688L41.9923 294.667Z" fill="#62AE90"/>
  <path d="M59.7462 298.738C59.4896 298.748 59.2334 298.711 58.9897 298.63L60.7342 295.156C61.0909 294.99 61.4837 294.915 61.8766 294.94H70.0741C70.3307 294.931 70.5868 294.968 70.8305 295.048L69.3691 298.517C69.01 298.688 68.6132 298.764 68.2164 298.738H59.7462Z" fill="#62AE90"/>
  <path d="M70.0738 295.203C70.208 295.202 70.3422 295.21 70.4752 295.228L69.1681 298.316C68.863 298.425 68.54 298.476 68.2161 298.465H59.7459C59.6191 298.474 59.4919 298.474 59.3651 298.465L60.9089 295.378C61.2127 295.27 61.5336 295.22 61.8557 295.228H70.0532L70.0738 295.203ZM70.0532 294.714H61.8763C61.2176 294.714 60.6053 294.873 60.5075 295.069L58.7116 298.645C58.6087 298.856 59.0718 299.026 59.7408 299.026H68.2058C68.8851 299.026 69.5077 298.856 69.5952 298.645L71.103 295.069C71.1853 294.873 70.7222 294.714 70.0738 294.714H70.0532Z" fill="#62AE90"/>
  <path d="M199.062 298.738C198.643 298.768 198.224 298.68 197.852 298.486L196.021 295.033C196.252 294.963 196.494 294.931 196.736 294.94H204.969C205.382 294.913 205.794 294.996 206.163 295.182L208.278 298.64C208.048 298.711 207.808 298.742 207.568 298.733L199.062 298.738Z" fill="#62AE90"/>
  <path d="M204.964 295.203C205.306 295.192 205.647 295.248 205.968 295.367L207.867 298.455C207.766 298.46 207.664 298.46 207.563 298.455H199.062C198.711 298.468 198.361 298.41 198.033 298.285L196.391 295.197C196.499 295.192 196.607 295.192 196.715 295.197H204.949L204.964 295.203ZM204.949 294.683H196.715C196.057 294.683 195.609 294.842 195.712 295.038L197.611 298.614C197.724 298.825 198.362 298.995 199.041 298.995H207.537C208.217 298.995 208.664 298.825 208.536 298.614L206.349 295.038C206.23 294.842 205.597 294.683 204.939 294.683H204.949Z" fill="#62AE90"/>
  <path d="M184.411 298.738C184.009 298.77 183.606 298.688 183.248 298.501L182.692 297.179C182.942 297.093 183.206 297.055 183.469 297.065H191.96C192.366 297.037 192.771 297.118 193.133 297.302L193.802 298.63C193.559 298.711 193.303 298.748 193.046 298.738H184.411Z" fill="#62AE90"/>
  <path d="M191.955 297.323C192.286 297.312 192.617 297.365 192.928 297.477L193.443 298.46C193.316 298.468 193.189 298.468 193.062 298.46H184.411C184.088 298.471 183.765 298.42 183.459 298.311L183.048 297.328C183.187 297.307 183.329 297.297 183.47 297.297H191.961L191.955 297.323ZM191.961 296.782H183.47C182.801 296.782 182.327 296.947 182.441 297.153L183.048 298.594C183.135 298.805 183.758 298.975 184.437 298.975H193.041C193.72 298.975 194.184 298.805 194.07 298.594L193.345 297.153C193.242 296.947 192.619 296.782 191.95 296.782H191.961Z" fill="#62AE90"/>
  <path d="M213.578 298.738C213.143 298.769 212.708 298.678 212.322 298.475L211.479 297.148C211.701 297.082 211.932 297.053 212.163 297.06H220.468C220.907 297.029 221.345 297.12 221.734 297.323L222.692 298.65C222.474 298.712 222.248 298.74 222.023 298.733L213.578 298.738Z" fill="#62AE90"/>
  <path d="M220.468 297.323C220.837 297.31 221.205 297.373 221.549 297.508L222.244 298.476H213.578C213.214 298.488 212.851 298.425 212.513 298.29L211.895 297.323H212.158H220.468ZM220.468 296.808H212.163C211.494 296.808 211.056 296.973 211.19 297.179L212.111 298.62C212.245 298.831 212.904 299 213.583 299H222.048C222.727 299 223.154 298.831 223.005 298.62L221.976 297.179C221.539 296.893 221.019 296.763 220.499 296.808H220.468Z" fill="#62AE90"/>
  <path d="M74.2368 298.738C73.9641 298.751 73.6915 298.711 73.4341 298.62L74.808 295.141C75.1519 294.993 75.5252 294.926 75.899 294.945H85.3057C85.5802 294.932 85.8545 294.972 86.1137 295.064L85.0536 298.542C84.7063 298.691 84.3296 298.758 83.9524 298.738H74.2368Z" fill="#62AE90"/>
  <path d="M85.3106 295.203C85.4725 295.201 85.6344 295.213 85.7943 295.239L84.8474 298.326C84.5609 298.423 84.2595 298.468 83.9572 298.46H74.2365C74.0831 298.461 73.93 298.448 73.7785 298.424L75.0084 295.336C75.2966 295.239 75.5998 295.194 75.9038 295.203H85.3106ZM85.3106 294.688H75.8987C75.24 294.688 74.6431 294.848 74.5659 295.043L73.1507 298.619C73.0684 298.83 73.5521 299 74.2314 299H83.952C84.6313 299 85.2334 298.83 85.2951 298.619L86.3861 295.043C86.4478 294.848 85.9641 294.688 85.3054 294.688H85.3106Z" fill="#62AE90"/>
  <path d="M168.67 298.738C168.286 298.766 167.901 298.688 167.558 298.512L166.529 295.064C166.788 294.972 167.063 294.932 167.337 294.945H176.729C177.11 294.917 177.492 294.991 177.835 295.162L179.199 298.62C178.942 298.713 178.669 298.755 178.396 298.743L168.67 298.738Z" fill="#62AE90"/>
  <path d="M176.728 295.203C177.032 295.194 177.336 295.239 177.624 295.336L178.854 298.424C178.702 298.448 178.549 298.461 178.396 298.46H168.67C168.368 298.468 168.066 298.423 167.78 298.326L166.833 295.239C166.993 295.213 167.154 295.2 167.316 295.203H176.728ZM176.728 294.688H167.316C166.658 294.688 166.174 294.848 166.236 295.043L167.327 298.619C167.388 298.83 167.991 299 168.67 299H178.39C179.07 299 179.553 298.83 179.471 298.619L178.056 295.043C177.979 294.848 177.382 294.688 176.723 294.688H176.728Z" fill="#62AE90"/>
  <path d="M197.126 293.221C196.714 293.254 196.302 293.156 195.948 292.943L194.291 289.856C194.502 289.782 194.726 289.748 194.95 289.758H215.322C215.747 289.728 216.17 289.826 216.537 290.041L218.755 293.129C218.556 293.194 218.347 293.224 218.137 293.216L197.126 293.221Z" fill="#62AE90"/>
  <path d="M215.324 290.026C215.677 290.013 216.03 290.081 216.353 290.227L218.318 292.964H197.128C196.793 292.977 196.461 292.914 196.155 292.779L194.678 290.041C194.769 290.036 194.86 290.036 194.951 290.041H215.324V290.026ZM215.324 289.527H194.956C194.323 289.527 193.927 289.702 194.025 289.918L195.733 293.083C195.856 293.309 196.484 293.494 197.133 293.494H218.133C218.787 293.494 219.162 293.309 219.018 293.083L216.739 289.918C216.325 289.623 215.82 289.485 215.313 289.527H215.324Z" fill="#62AE90"/>
  <path d="M38.1076 288.122C37.9129 288.128 37.7183 288.104 37.5312 288.05L39.5896 285.225C39.9406 285.034 40.3385 284.946 40.7372 284.973H53.9416C54.1452 284.965 54.3486 284.991 54.5437 285.05L52.8764 287.87C52.5295 288.061 52.1346 288.149 51.7392 288.122H38.1076Z" fill="#62AE90"/>
  <path d="M53.9155 285.24H54.111L52.6547 287.7C52.3568 287.824 52.0355 287.882 51.713 287.87H37.9837L39.7539 285.41C40.0586 285.284 40.3866 285.224 40.7162 285.235H53.9206L53.9155 285.24ZM53.9206 284.72H40.7162C40.2351 284.677 39.7542 284.805 39.3577 285.081L37.2736 288.014C37.1243 288.225 37.5051 288.395 38.1329 288.395H51.713C52.3408 288.395 52.9481 288.225 53.0716 288.014L54.8006 285.086C54.919 284.885 54.5227 284.725 53.9155 284.725L53.9206 284.72Z" fill="#62AE90"/>
  <path d="M71.7513 288.122C71.5167 288.129 71.2823 288.099 71.0566 288.034L72.3637 285.122C72.6861 285.011 73.0263 284.96 73.3672 284.973H82.0432C82.2813 284.965 82.5191 284.995 82.7482 285.06L81.719 287.973C81.3882 288.086 81.0392 288.137 80.6898 288.122H71.7513Z" fill="#62AE90"/>
  <path d="M82.0435 285.24C82.1634 285.233 82.2837 285.233 82.4037 285.24L81.5289 287.772C81.2667 287.849 80.9942 287.886 80.721 287.88H71.7516C71.6419 287.886 71.532 287.886 71.4223 287.88L72.5492 285.369C72.813 285.291 73.0873 285.255 73.3623 285.261H82.0435V285.24ZM82.0435 284.746H73.3726C72.7653 284.746 72.2096 284.88 72.1375 285.05L70.7739 288.091C70.6967 288.266 71.1392 288.41 71.7619 288.41H80.7158C81.3436 288.41 81.8994 288.266 81.9663 288.091L83.0727 285.034C83.1344 284.865 82.6867 284.731 82.0795 284.731L82.0435 284.746Z" fill="#62AE90"/>
  <path d="M57.2602 288.122C57.0415 288.127 56.8232 288.101 56.6118 288.045L58.2534 285.142C58.5805 285.013 58.931 284.953 59.2826 284.967H67.974C68.2059 284.955 68.4384 284.978 68.6636 285.034L67.2845 287.937C66.957 288.065 66.6067 288.124 66.2553 288.112L57.2602 288.122Z" fill="#62AE90"/>
  <path d="M67.99 285.24H68.2679L67.0792 287.746C66.7998 287.835 66.5077 287.877 66.2146 287.87H57.2607H57.0137L58.4289 285.364C58.7098 285.274 59.0038 285.233 59.2985 285.24H67.99ZM67.99 284.726H59.3037C58.6964 284.726 58.1252 284.859 58.0326 285.029L56.3139 288.07C56.2161 288.245 56.6381 288.389 57.2659 288.389H66.2198C66.8476 288.389 67.4188 288.245 67.5063 288.07L68.9523 285.029C69.0346 284.859 68.6024 284.726 67.9951 284.726H67.99Z" fill="#62AE90"/>
  <path d="M86.2628 288.122C86.0103 288.131 85.7581 288.098 85.5166 288.024L86.4737 285.132C86.7801 285.006 87.1105 284.95 87.4412 284.967H96.1327C96.3868 284.958 96.6408 284.991 96.884 285.065L96.1893 287.952C95.8814 288.079 95.5491 288.135 95.2167 288.117L86.2628 288.122Z" fill="#62AE90"/>
  <path d="M96.1378 285.24C96.2842 285.239 96.4304 285.25 96.5752 285.271L95.968 287.787C95.7233 287.855 95.4703 287.886 95.2167 287.88H86.2627C86.1251 287.881 85.9875 287.873 85.8511 287.854L86.6847 285.338C86.9326 285.269 87.1891 285.236 87.4463 285.24H96.1378ZM96.1378 284.726H87.4463C86.8391 284.726 86.3039 284.859 86.2473 285.029L85.2181 288.07C85.1615 288.245 85.6195 288.389 86.2473 288.389H95.2012C95.829 288.389 96.3693 288.245 96.4105 288.07L97.1464 285.029C97.1875 284.859 96.7296 284.726 96.1172 284.726H96.1378Z" fill="#62AE90"/>
  <path d="M100.764 288.122C100.495 288.133 100.227 288.095 99.9717 288.009L100.594 285.117C100.889 285.002 101.205 284.952 101.521 284.967H110.212C110.481 284.957 110.749 284.995 111.005 285.081L110.644 287.968C110.35 288.084 110.034 288.134 109.718 288.117L100.764 288.122Z" fill="#62AE90"/>
  <path d="M110.207 285.24C110.379 285.238 110.552 285.252 110.722 285.281L110.408 287.798C110.182 287.853 109.95 287.879 109.718 287.875H100.764C100.6 287.875 100.437 287.862 100.275 287.834L100.816 285.317C101.044 285.259 101.28 285.231 101.515 285.235H110.207V285.24ZM110.207 284.72H101.521C100.913 284.72 100.394 284.854 100.358 285.024L99.7041 288.065C99.6681 288.24 100.141 288.384 100.769 288.384H109.723C110.351 288.384 110.876 288.24 110.896 288.065L111.277 285.024C111.277 284.854 110.824 284.72 110.217 284.72H110.207Z" fill="#62AE90"/>
  <path d="M129.767 288.122C129.465 288.136 129.164 288.089 128.882 287.983L128.83 285.091C129.098 284.997 129.381 284.956 129.664 284.967H138.355C138.657 284.953 138.958 285 139.24 285.106L139.554 287.998C139.287 288.092 139.004 288.134 138.721 288.122H129.767Z" fill="#62AE90"/>
  <path d="M138.355 285.24C138.571 285.237 138.787 285.259 138.998 285.307L139.271 287.829C139.088 287.864 138.902 287.882 138.715 287.88H129.761C129.55 287.882 129.34 287.86 129.134 287.813L129.087 285.297C129.277 285.259 129.47 285.242 129.664 285.245H138.355V285.24ZM138.355 284.731H129.669C129.062 284.731 128.573 284.865 128.573 285.034L128.629 288.076C128.629 288.251 129.144 288.395 129.767 288.395H138.721C139.348 288.395 139.837 288.251 139.817 288.076L139.487 285.034C139.487 284.865 138.973 284.731 138.355 284.731Z" fill="#62AE90"/>
  <path d="M115.265 288.122C114.98 288.135 114.695 288.093 114.426 287.998L114.709 285.106C114.99 285.001 115.29 284.954 115.589 284.967H124.281C124.566 284.955 124.85 284.997 125.12 285.091V287.983C124.839 288.088 124.539 288.136 124.24 288.122H115.265Z" fill="#62AE90"/>
  <path d="M124.286 285.24C124.481 285.238 124.676 285.257 124.868 285.297V287.813C124.663 287.859 124.454 287.882 124.245 287.88H115.291C115.103 287.882 114.915 287.865 114.73 287.829L114.977 285.307C115.186 285.259 115.401 285.237 115.615 285.24H124.307H124.286ZM124.307 284.726H115.595C114.987 284.726 114.483 284.859 114.463 285.029L114.164 288.07C114.164 288.245 114.637 288.389 115.265 288.389H124.24C124.868 288.389 125.372 288.245 125.377 288.07V285.029C125.377 284.859 124.862 284.726 124.281 284.726H124.307Z" fill="#62AE90"/>
  <path d="M144.268 288.122C143.951 288.137 143.636 288.084 143.341 287.968L142.95 285.081C143.205 284.995 143.474 284.957 143.743 284.967H152.434C152.75 284.952 153.066 285.002 153.36 285.117L154.014 288.009C153.761 288.094 153.494 288.132 153.227 288.122H144.268Z" fill="#62AE90"/>
  <path d="M152.429 285.24C152.667 285.236 152.904 285.264 153.134 285.323L153.7 287.839C153.542 287.864 153.382 287.876 153.222 287.875H144.268C144.034 287.878 143.8 287.851 143.573 287.793L143.234 285.276C143.404 285.247 143.576 285.233 143.748 285.235H152.44L152.429 285.24ZM152.44 284.72H143.738C143.131 284.72 142.657 284.854 142.678 285.024L143.09 288.065C143.09 288.24 143.64 288.384 144.268 288.384H153.222C153.85 288.384 154.323 288.24 154.282 288.065L153.598 285.034C153.562 284.865 153.037 284.731 152.429 284.731L152.44 284.72Z" fill="#62AE90"/>
  <path d="M158.77 288.122C158.436 288.141 158.101 288.085 157.792 287.957L157.066 285.07C157.308 284.996 157.56 284.963 157.813 284.972H166.504C166.843 284.948 167.182 285.008 167.492 285.147L168.47 288.029C168.23 288.103 167.98 288.136 167.729 288.127L158.77 288.122Z" fill="#62AE90"/>
  <path d="M166.504 285.24C166.763 285.236 167.021 285.268 167.271 285.338L168.13 287.854C167.997 287.872 167.863 287.881 167.729 287.88H158.77C158.514 287.886 158.259 287.855 158.013 287.787L157.38 285.276C157.523 285.255 157.668 285.245 157.812 285.245H166.504V285.24ZM166.504 284.731H157.812C157.205 284.731 156.747 284.865 156.783 285.034L157.55 288.076C157.596 288.251 158.137 288.395 158.764 288.395H167.718C168.346 288.395 168.804 288.251 168.748 288.076L167.718 285.034C167.662 284.865 167.121 284.731 166.514 284.731H166.504Z" fill="#62AE90"/>
  <path d="M173.27 288.122C172.917 288.147 172.562 288.081 172.241 287.932L171.212 285.055C171.439 284.99 171.675 284.961 171.912 284.967H180.603C180.956 284.945 181.309 285.009 181.632 285.153L182.95 288.034C182.724 288.1 182.49 288.129 182.255 288.122H173.27Z" fill="#62AE90"/>
  <path d="M180.578 285.24C180.854 285.233 181.131 285.27 181.396 285.348L182.549 287.859C182.441 287.865 182.332 287.865 182.224 287.859H173.271C172.996 287.866 172.721 287.829 172.457 287.751L171.531 285.24C171.649 285.233 171.768 285.233 171.886 285.24H180.578ZM180.578 284.726H171.886C171.279 284.726 170.857 284.859 170.898 285.029L172.02 288.07C172.087 288.245 172.648 288.389 173.271 288.389H182.224C182.852 288.389 183.29 288.245 183.212 288.07L181.813 285.034C181.736 284.865 181.18 284.731 180.573 284.731L180.578 284.726Z" fill="#62AE90"/>
  <path d="M187.772 288.122C187.404 288.145 187.036 288.076 186.701 287.921L185.307 285.034C185.52 284.978 185.74 284.952 185.96 284.957H194.652C195.017 284.935 195.383 285.002 195.717 285.153L197.374 288.039C197.164 288.094 196.947 288.118 196.731 288.112L187.772 288.122Z" fill="#62AE90"/>
  <path d="M194.646 285.24C194.943 285.232 195.239 285.274 195.521 285.364L196.967 287.87H196.731H187.777C187.482 287.877 187.188 287.836 186.907 287.746L185.693 285.245H185.965H194.657L194.646 285.24ZM194.657 284.731H185.96C185.353 284.731 184.931 284.864 185.008 285.034L186.506 288.07C186.593 288.245 187.169 288.389 187.797 288.389H196.751C197.379 288.389 197.78 288.245 197.698 288.07L195.923 285.034C195.545 284.789 195.094 284.681 194.646 284.731H194.657Z" fill="#62AE90"/>
  <path d="M57.5072 279.08C57.3189 279.085 57.1307 279.067 56.9463 279.029L57.4609 278.144C57.775 278.036 58.1066 277.987 58.4386 278H66.2604C66.4558 277.996 66.651 278.015 66.8419 278.056L66.3788 278.947C66.0669 279.049 65.7395 279.096 65.4113 279.086L57.5072 279.08Z" fill="#62AE90"/>
  <path d="M66.2866 278.252H66.4719L66.23 278.72C65.9724 278.793 65.7053 278.828 65.4375 278.823H57.3738L57.6569 278.36C57.9191 278.283 58.1916 278.247 58.4648 278.252H66.2866ZM66.2866 277.737H58.4648C58.0466 277.693 57.6253 277.787 57.2658 278.005L56.6277 279.06C56.5351 279.214 56.9313 279.338 57.5128 279.338H65.4478C66.0293 279.338 66.5645 279.214 66.6417 279.06L67.1923 278.005C67.2695 277.856 66.8681 277.737 66.2969 277.737H66.2866Z" fill="#62AE90"/>
  <path d="M44.54 279.08C44.3673 279.083 44.1949 279.067 44.0254 279.034L44.6583 278.154C44.9863 278.029 45.3368 277.973 45.6875 277.99H53.5093C53.6822 277.989 53.8546 278.006 54.0239 278.041L53.4682 278.921C53.139 279.041 52.7889 279.094 52.439 279.075L44.54 279.08Z" fill="#62AE90"/>
  <path d="M53.4986 278.252H53.6015L53.3134 278.71C53.0415 278.792 52.7584 278.83 52.4746 278.823H44.4778L44.8071 278.37C45.0838 278.286 45.3722 278.246 45.6614 278.252H53.4832H53.4986ZM53.4832 277.737H45.6768C45.249 277.696 44.8189 277.79 44.4469 278.005L43.6853 279.06C43.5773 279.214 43.9581 279.338 44.5395 279.338H52.4746C52.9022 279.381 53.3321 279.283 53.6993 279.06L54.3683 278.005C54.4609 277.856 54.075 277.737 53.5038 277.737H53.4832Z" fill="#62AE90"/>
  <path d="M70.4749 279.08C70.2707 279.085 70.0667 279.065 69.8677 279.019L70.3102 278.123C70.6136 278.031 70.9297 277.987 71.2468 277.995H79.0686C79.2799 277.989 79.491 278.012 79.6964 278.062L79.3413 278.931C79.0429 279.045 78.7239 279.096 78.4048 279.08H70.4749Z" fill="#62AE90"/>
  <path d="M79.0793 278.237H79.3469L79.1565 278.71C78.9147 278.773 78.6654 278.802 78.4155 278.797H70.2592L70.4908 278.329C70.739 278.262 70.9954 278.231 71.2524 278.237H79.0742H79.0793ZM79.0742 277.722H71.2369C70.6657 277.722 70.1409 277.84 70.0688 277.99L69.5542 279.044C69.477 279.199 69.8887 279.322 70.4702 279.322H78.4052C78.9867 279.322 79.5065 279.199 79.5682 279.044L79.9953 277.99C80.0571 277.84 79.6403 277.722 79.0691 277.722H79.0742Z" fill="#62AE90"/>
  <path d="M83.4433 279.08C83.2249 279.087 83.0067 279.062 82.7949 279.008L83.1294 278.139C83.4203 278.03 83.73 277.981 84.0402 277.995H91.8621C92.0876 277.988 92.3128 278.014 92.531 278.072L92.2737 278.941C91.9858 279.047 91.6796 279.094 91.3732 279.08H83.4433Z" fill="#62AE90"/>
  <path d="M91.8616 278.252C91.9765 278.245 92.0916 278.245 92.2064 278.252L92.0675 278.73C91.8419 278.786 91.6101 278.812 91.3779 278.808H83.4429C83.3245 278.808 83.2268 278.808 83.1444 278.808L83.3245 278.334C83.5583 278.275 83.7988 278.248 84.0398 278.252H91.8616ZM91.8616 277.737H84.0398C83.4686 277.737 82.9592 277.856 82.9026 278.005L82.5012 279.06C82.4446 279.214 82.8665 279.338 83.448 279.338H91.3831C91.9645 279.338 92.4689 279.214 92.5152 279.06L92.8239 278.005C92.8702 277.856 92.438 277.737 91.8668 277.737H91.8616Z" fill="#62AE90"/>
  <path d="M109.378 279.08C109.129 279.09 108.881 279.058 108.642 278.988L108.776 278.118C109.044 278.026 109.326 277.984 109.61 277.995H117.431C117.685 277.985 117.939 278.018 118.183 278.092L118.121 278.962C117.858 279.05 117.58 279.091 117.303 279.08H109.378Z" fill="#62AE90"/>
  <path d="M117.437 278.252C117.599 278.25 117.761 278.262 117.92 278.288L117.89 278.772C117.7 278.809 117.507 278.826 117.313 278.823H109.378C109.23 278.824 109.082 278.814 108.936 278.792L109.013 278.314C109.212 278.271 109.416 278.25 109.62 278.252H117.442H117.437ZM117.442 277.737H109.62C109.049 277.737 108.591 277.856 108.545 278.005L108.38 279.06C108.38 279.214 108.807 279.338 109.409 279.338H117.344C117.926 279.338 118.404 279.214 118.414 279.06L118.486 278.005C118.486 277.856 118.044 277.737 117.457 277.737H117.442Z" fill="#62AE90"/>
  <path d="M96.4112 279.08C96.1786 279.087 95.9462 279.06 95.7217 278.998L95.9532 278.128C96.2333 278.027 96.5305 277.982 96.8281 277.995H104.65C104.89 277.987 105.129 278.016 105.36 278.082L105.2 278.952C104.925 279.049 104.633 279.093 104.341 279.08H96.4112Z" fill="#62AE90"/>
  <path d="M104.65 278.252C104.789 278.25 104.928 278.259 105.067 278.278L104.979 278.756C104.771 278.803 104.559 278.825 104.346 278.823H96.4111C96.286 278.831 96.1605 278.831 96.0354 278.823L96.1641 278.344C96.3798 278.294 96.6011 278.269 96.8227 278.272H104.645L104.65 278.252ZM104.645 277.758H96.8227C96.2515 277.758 95.7524 277.876 95.7164 278.025L95.4333 279.08C95.3922 279.235 95.8296 279.358 96.4111 279.358H104.346C104.928 279.358 105.422 279.235 105.447 279.08L105.638 278.025C105.663 277.876 105.221 277.758 104.65 277.758H104.645Z" fill="#62AE90"/>
  <path d="M122.346 279.08C122.083 279.088 121.82 279.052 121.569 278.972L121.605 278.103C121.861 278.021 122.129 277.984 122.397 277.995H130.219C130.488 277.984 130.756 278.021 131.012 278.103L131.048 278.972C130.797 279.052 130.534 279.088 130.271 279.08H122.346Z" fill="#62AE90"/>
  <path d="M130.225 278.252C130.408 278.249 130.59 278.265 130.77 278.298V278.782C130.6 278.811 130.428 278.825 130.256 278.823H122.346C122.174 278.825 122.002 278.811 121.832 278.782V278.298C122.012 278.265 122.194 278.249 122.377 278.252H130.199H130.225ZM130.199 277.737H122.377C121.806 277.737 121.348 277.856 121.348 278.005L121.302 279.06C121.302 279.214 121.76 279.338 122.331 279.338H130.266C130.847 279.338 131.295 279.214 131.295 279.06L131.249 278.005C131.249 277.856 130.775 277.737 130.22 277.737H130.199Z" fill="#62AE90"/>
  <path d="M135.314 279.08C135.036 279.091 134.759 279.05 134.495 278.962L134.434 278.092C134.677 278.018 134.931 277.985 135.185 277.995H143.007C143.29 277.982 143.572 278.023 143.84 278.113L143.974 278.983C143.736 279.053 143.487 279.084 143.238 279.075L135.314 279.08Z" fill="#62AE90"/>
  <path d="M143.012 278.252C143.216 278.25 143.419 278.271 143.619 278.314L143.696 278.792C143.55 278.814 143.402 278.824 143.254 278.823H135.313C135.12 278.826 134.927 278.809 134.737 278.772L134.706 278.288C134.866 278.262 135.028 278.25 135.19 278.252H143.012ZM143.012 277.737H135.19C134.619 277.737 134.161 277.856 134.161 278.005L134.233 279.06C134.233 279.214 134.747 279.338 135.303 279.338H143.238C143.82 279.338 144.267 279.214 144.267 279.06L144.103 278.005C144.103 277.856 143.588 277.737 143.027 277.737H143.012Z" fill="#62AE90"/>
  <path d="M148.283 279.08C147.991 279.093 147.699 279.049 147.423 278.952L147.264 278.082C147.494 278.016 147.734 277.987 147.974 277.995H155.796C156.093 277.981 156.39 278.027 156.67 278.128L156.907 278.998C156.681 279.06 156.447 279.088 156.212 279.08H148.283Z" fill="#62AE90"/>
  <path d="M155.8 278.252C156.021 278.249 156.243 278.273 156.458 278.324L156.587 278.803C156.462 278.81 156.336 278.81 156.211 278.803H148.282C148.069 278.805 147.856 278.783 147.649 278.736L147.561 278.257C147.699 278.239 147.839 278.23 147.978 278.231H155.8V278.252ZM155.8 277.717H147.978C147.407 277.717 146.949 277.835 146.99 277.984L147.18 279.039C147.206 279.194 147.695 279.317 148.282 279.317H156.217C156.798 279.317 157.246 279.194 157.194 279.039L156.911 277.984C156.87 277.835 156.397 277.717 155.805 277.717H155.8Z" fill="#62AE90"/>
  <path d="M161.25 279.08C160.943 279.094 160.637 279.047 160.349 278.941L160.092 278.072C160.31 278.014 160.535 277.988 160.761 277.995H168.583C168.893 277.981 169.203 278.03 169.493 278.139L169.828 279.008C169.616 279.062 169.398 279.086 169.179 279.08H161.25Z" fill="#62AE90"/>
  <path d="M168.588 278.252C168.829 278.248 169.069 278.275 169.303 278.334L169.483 278.808C169.401 278.808 169.303 278.808 169.185 278.808H161.25C161.018 278.812 160.786 278.786 160.56 278.73L160.421 278.252C160.536 278.245 160.651 278.245 160.766 278.252H168.588ZM168.588 277.737H160.776C160.205 277.737 159.778 277.856 159.819 278.005L160.128 279.06C160.174 279.214 160.679 279.338 161.26 279.338H169.195C169.777 279.338 170.198 279.214 170.142 279.06L169.741 278.005C169.684 277.856 169.174 277.737 168.603 277.737H168.588Z" fill="#62AE90"/>
  <path d="M174.217 279.08C173.898 279.096 173.579 279.046 173.281 278.931L172.926 278.062C173.131 278.012 173.342 277.989 173.554 277.995H181.36C181.689 277.973 182.018 278.028 182.322 278.154L182.744 279.019C182.545 279.065 182.341 279.086 182.137 279.08H174.217Z" fill="#62AE90"/>
  <path d="M181.36 278.252C181.617 278.247 181.873 278.278 182.121 278.345L182.353 278.813H174.217C173.967 278.818 173.718 278.788 173.476 278.725L173.286 278.252H173.553H181.36ZM181.36 277.737H173.538C172.967 277.737 172.55 277.856 172.612 278.005L173.039 279.06C173.1 279.214 173.62 279.338 174.202 279.338H182.137C182.718 279.338 183.125 279.214 183.053 279.06L182.538 278.005C182.466 277.856 181.941 277.737 181.37 277.737H181.36Z" fill="#62AE90"/>
  <path d="M187.184 279.081C186.846 279.102 186.508 279.043 186.196 278.911L185.754 278.051C185.945 278.009 186.14 277.99 186.335 277.995H194.157C194.498 277.976 194.84 278.034 195.156 278.165L195.67 279.029C195.486 279.067 195.298 279.085 195.109 279.081H187.184Z" fill="#62AE90"/>
  <path d="M194.163 278.252C194.436 278.247 194.708 278.283 194.97 278.36L195.253 278.823H187.185C186.917 278.828 186.65 278.793 186.392 278.72L186.15 278.252H194.157H194.163ZM194.157 277.737H186.336C185.764 277.737 185.363 277.856 185.44 278.005L185.991 279.06C186.068 279.214 186.603 279.338 187.185 279.338H195.12C195.701 279.338 196.097 279.214 196.005 279.06L195.367 278.005C195.007 277.787 194.586 277.693 194.168 277.737H194.157Z" fill="#62AE90"/>
  <path d="M200.153 279.08C199.801 279.102 199.448 279.042 199.123 278.905L198.583 278.041C198.752 278.006 198.925 277.989 199.098 277.989H206.919C207.271 277.969 207.623 278.029 207.949 278.164L208.571 279.029C208.402 279.062 208.229 279.077 208.057 279.075L200.153 279.08Z" fill="#62AE90"/>
  <path d="M206.951 278.252C207.24 278.246 207.529 278.286 207.805 278.37L208.135 278.823H200.153C199.869 278.83 199.586 278.792 199.314 278.71L199.026 278.252H206.951ZM206.951 277.737H199.129C198.558 277.737 198.172 277.856 198.265 278.005L198.934 279.06C199.301 279.283 199.731 279.381 200.158 279.338H208.093C208.675 279.338 209.056 279.214 208.948 279.06L208.186 278.005C207.814 277.79 207.384 277.696 206.956 277.737H206.951Z" fill="#62AE90"/>
  <path d="M202.272 288.122C201.875 288.148 201.478 288.059 201.13 287.864L199.432 285.05C199.625 284.991 199.827 284.965 200.029 284.972H211.911C212.311 284.945 212.711 285.033 213.063 285.225L215.096 288.05C214.909 288.104 214.714 288.128 214.52 288.122H202.272Z" fill="#62AE90"/>
  <path d="M211.911 285.24C212.241 285.229 212.569 285.289 212.873 285.415L214.644 287.875H202.293C201.969 287.886 201.646 287.826 201.347 287.7L199.865 285.24H211.932H211.911ZM211.932 284.725H200.034C199.427 284.725 199.031 284.885 199.154 285.086L200.919 288.014C201.048 288.225 201.655 288.395 202.283 288.395H214.525C215.153 288.395 215.554 288.225 215.385 288.014L213.265 285.086C212.868 284.81 212.387 284.682 211.906 284.725H211.932Z" fill="#62AE90"/>
  <path d="M41.4471 283.439C41.2649 283.444 41.083 283.423 40.9067 283.377L42.7747 280.804C43.1112 280.632 43.4882 280.553 43.8656 280.578H53.4062C53.5937 280.573 53.7809 280.596 53.962 280.645L52.3616 283.218C52.0262 283.394 51.6487 283.474 51.2706 283.449L41.4471 283.439Z" fill="#62AE90"/>
  <path d="M53.4013 280.809H53.5351L52.1662 283.022C51.8797 283.134 51.5733 283.187 51.2657 283.176H41.3598L42.9344 280.969C43.224 280.854 43.534 280.8 43.8453 280.809H53.3858H53.4013ZM53.4013 280.284H43.8607C43.4013 280.244 42.9418 280.362 42.5588 280.619L40.6085 283.331C40.4695 283.526 40.8452 283.681 41.4473 283.681H51.2657C51.7294 283.727 52.194 283.602 52.5728 283.331L54.2503 280.619C54.3635 280.434 53.9828 280.284 53.3961 280.284H53.4013Z" fill="#62AE90"/>
  <path d="M70.5581 283.439C70.3396 283.445 70.1214 283.421 69.9097 283.367L71.1807 280.691C71.4915 280.592 71.8169 280.547 72.143 280.557H80.5C80.7204 280.552 80.9404 280.578 81.1535 280.634L80.1243 283.31C79.8128 283.406 79.4879 283.451 79.1621 283.444L70.5581 283.439Z" fill="#62AE90"/>
  <path d="M80.51 280.799C80.6284 280.799 80.7313 280.799 80.8136 280.799L79.944 283.058C79.6911 283.129 79.4293 283.161 79.1669 283.156H70.5578H70.285L71.3605 280.897C71.6151 280.826 71.8786 280.793 72.1427 280.799H80.4997H80.51ZM80.4997 280.285H72.1427C71.5561 280.285 71.0209 280.413 70.9489 280.568L69.6058 283.388C69.5286 283.552 69.9506 283.686 70.5526 283.686H79.1669C79.769 283.686 80.3093 283.552 80.3711 283.388L81.4569 280.568C81.5186 280.413 81.0915 280.285 80.5049 280.285H80.4997Z" fill="#62AE90"/>
  <path d="M56.6021 283.439C56.3996 283.444 56.1973 283.423 56 283.377L57.5798 280.712C57.909 280.592 58.259 280.539 58.609 280.557H66.9814C67.1858 280.554 67.3899 280.576 67.5886 280.624L66.2507 283.29C65.921 283.408 65.5714 283.461 65.2215 283.444L56.6021 283.439Z" fill="#62AE90"/>
  <path d="M66.9551 280.81H67.1764L66.0443 283.058C65.7757 283.139 65.4962 283.177 65.2158 283.171H56.4162L57.7542 280.918C58.0243 280.836 58.3057 280.798 58.5878 280.804H66.9602L66.9551 280.81ZM66.9602 280.29H58.5878C58.1594 280.244 57.7281 280.344 57.3631 280.573L55.6906 283.393C55.5929 283.557 56.0045 283.691 56.6066 283.691H65.2209C65.823 283.691 66.3787 283.557 66.4611 283.393L67.8762 280.573C67.9534 280.418 67.5417 280.29 66.9602 280.29Z" fill="#62AE90"/>
  <path d="M84.5082 283.439C84.2735 283.445 84.0393 283.416 83.8135 283.351L84.7655 280.701C85.0622 280.587 85.3794 280.536 85.6969 280.552H94.0693C94.3057 280.545 94.5417 280.575 94.7692 280.64L94.059 283.285C93.7625 283.399 93.4451 283.45 93.1276 283.434L84.5082 283.439Z" fill="#62AE90"/>
  <path d="M94.069 280.81C94.1958 280.801 94.323 280.801 94.4498 280.81L93.8426 283.074C93.6076 283.136 93.3652 283.165 93.1222 283.161H84.5079C84.3914 283.168 84.2745 283.168 84.158 283.161L84.971 280.897C85.2095 280.835 85.4553 280.805 85.7018 280.81H94.0742H94.069ZM94.0742 280.295H85.6966C85.11 280.295 84.5902 280.424 84.5336 280.578L83.5044 283.398C83.4478 283.563 83.8852 283.696 84.4873 283.696H93.1016C93.7037 283.696 94.2286 283.563 94.2697 283.398L95.0262 280.578C95.0673 280.424 94.6299 280.295 94.0433 280.295H94.0742Z" fill="#62AE90"/>
  <path d="M98.4642 283.439C98.2135 283.447 97.9631 283.414 97.7231 283.341L98.3664 280.691C98.6511 280.587 98.9536 280.539 99.2566 280.552H107.629C107.881 280.543 108.134 280.576 108.375 280.65L107.974 283.3C107.69 283.406 107.387 283.454 107.084 283.439H98.4642Z" fill="#62AE90"/>
  <path d="M107.629 280.815C107.782 280.813 107.936 280.823 108.087 280.846L107.742 283.11C107.527 283.161 107.305 283.185 107.084 283.182H98.4643C98.3214 283.182 98.1786 283.172 98.0372 283.151L98.5878 280.887C98.8086 280.834 99.0351 280.81 99.262 280.815H107.634H107.629ZM107.634 280.3H99.2568C98.6702 280.3 98.1659 280.429 98.1299 280.583L97.4454 283.403C97.4043 283.568 97.8623 283.702 98.4746 283.702H107.089C107.691 283.702 108.2 283.568 108.226 283.403L108.653 280.583C108.653 280.429 108.221 280.3 107.624 280.3H107.634Z" fill="#62AE90"/>
  <path d="M126.365 283.439C126.084 283.449 125.803 283.408 125.537 283.315V280.665C125.797 280.58 126.071 280.541 126.345 280.552H134.738C135.021 280.541 135.303 280.583 135.571 280.676L135.787 283.326C135.529 283.411 135.257 283.449 134.985 283.439H126.365Z" fill="#62AE90"/>
  <path d="M134.737 280.81C134.936 280.807 135.134 280.826 135.329 280.866L135.514 283.135C135.344 283.167 135.172 283.182 135 283.182H126.365C126.173 283.185 125.982 283.167 125.794 283.13V280.861C125.975 280.826 126.159 280.808 126.344 280.81H134.737ZM134.737 280.295H126.365C125.778 280.295 125.305 280.424 125.305 280.578V283.398C125.305 283.563 125.788 283.696 126.39 283.696H135.005C135.607 283.696 136.085 283.563 136.07 283.398L135.838 280.578C135.838 280.424 135.324 280.295 134.758 280.295H134.737Z" fill="#62AE90"/>
  <path d="M112.405 283.439C112.138 283.451 111.871 283.414 111.617 283.331L111.952 280.681C112.224 280.586 112.512 280.544 112.801 280.557H121.173C121.44 280.547 121.706 280.584 121.961 280.665L121.868 283.315C121.597 283.412 121.311 283.455 121.024 283.444L112.405 283.439Z" fill="#62AE90"/>
  <path d="M121.178 280.81C121.351 280.809 121.523 280.825 121.693 280.856L121.616 283.125C121.419 283.166 121.219 283.185 121.019 283.182H112.404C112.232 283.184 112.06 283.17 111.89 283.141L112.173 280.871C112.374 280.828 112.579 280.807 112.785 280.81H121.158H121.178ZM121.158 280.295H112.811C112.224 280.295 111.736 280.424 111.715 280.578L111.36 283.398C111.36 283.563 111.813 283.696 112.389 283.696H121.003C121.605 283.696 122.099 283.563 122.105 283.398L122.202 280.578C122.202 280.424 121.739 280.295 121.173 280.295H121.158Z" fill="#62AE90"/>
  <path d="M140.321 283.439C140.024 283.453 139.726 283.407 139.446 283.305L139.158 280.655C139.404 280.578 139.662 280.543 139.92 280.552H148.287C148.585 280.539 148.882 280.584 149.162 280.686L149.676 283.336C149.432 283.413 149.176 283.448 148.92 283.439H140.321Z" fill="#62AE90"/>
  <path d="M148.292 280.809C148.51 280.807 148.728 280.831 148.941 280.882L149.388 283.151C149.237 283.175 149.084 283.187 148.93 283.187H140.321C140.108 283.189 139.896 283.167 139.688 283.12L139.441 280.856C139.601 280.83 139.763 280.818 139.925 280.82H148.297L148.292 280.809ZM148.297 280.305H139.92C139.333 280.305 138.891 280.434 138.891 280.588L139.194 283.408C139.194 283.573 139.709 283.707 140.316 283.707H148.941C149.543 283.707 150.006 283.573 149.97 283.408L149.409 280.588C149.378 280.434 148.894 280.305 148.292 280.305H148.297Z" fill="#62AE90"/>
  <path d="M154.272 283.439C153.959 283.453 153.647 283.402 153.356 283.29L152.759 280.645C152.991 280.576 153.232 280.545 153.474 280.552H161.846C162.158 280.537 162.47 280.586 162.762 280.696L163.596 283.346C163.365 283.413 163.126 283.442 162.886 283.434L154.272 283.439Z" fill="#62AE90"/>
  <path d="M161.847 280.809C162.086 280.805 162.325 280.832 162.557 280.892L163.272 283.156C163.145 283.164 163.018 283.164 162.891 283.156H154.272C154.038 283.159 153.804 283.131 153.577 283.074L153.063 280.809C153.199 280.791 153.337 280.782 153.474 280.784H161.847V280.809ZM161.847 280.269H153.479C152.893 280.269 152.45 280.398 152.481 280.552L153.114 283.372C153.15 283.537 153.67 283.671 154.272 283.671H162.886C163.488 283.671 163.915 283.537 163.884 283.372L162.994 280.552C162.943 280.398 162.433 280.269 161.847 280.269Z" fill="#62AE90"/>
  <path d="M168.227 283.439C167.899 283.456 167.57 283.402 167.265 283.279L166.359 280.634C166.579 280.576 166.806 280.55 167.033 280.557H175.406C175.739 280.535 176.072 280.591 176.379 280.722L177.511 283.362C177.294 283.419 177.071 283.445 176.847 283.439H168.227Z" fill="#62AE90"/>
  <path d="M175.401 280.81C175.658 280.804 175.914 280.835 176.162 280.902L177.14 283.161C177.058 283.161 176.955 283.161 176.836 283.161H168.222C167.967 283.166 167.712 283.135 167.466 283.069L166.694 280.81C166.805 280.803 166.917 280.803 167.028 280.81H175.401ZM175.401 280.295H167.033C166.447 280.295 166.004 280.424 166.071 280.578L167.033 283.398C167.09 283.563 167.625 283.696 168.227 283.696H176.842C177.444 283.696 177.871 283.563 177.804 283.398L176.584 280.578C176.517 280.424 175.987 280.295 175.401 280.295Z" fill="#62AE90"/>
  <path d="M182.179 283.439C181.826 283.462 181.473 283.401 181.149 283.259L179.945 280.624C180.151 280.574 180.362 280.551 180.573 280.557H188.946C189.298 280.534 189.65 280.594 189.975 280.732L191.421 283.377C191.219 283.426 191.011 283.449 190.803 283.444L182.179 283.439Z" fill="#62AE90"/>
  <path d="M188.96 280.81C189.235 280.804 189.51 280.84 189.773 280.918L191.014 283.172H182.178C181.905 283.177 181.632 283.14 181.37 283.063L180.341 280.81H180.593H188.966H188.96ZM188.966 280.295H180.588C180.001 280.295 179.584 280.424 179.657 280.578L180.948 283.398C181.025 283.563 181.571 283.696 182.173 283.696H190.787C191.389 283.696 191.816 283.563 191.713 283.398L190.17 280.578C190.082 280.424 189.542 280.295 188.955 280.295H188.966Z" fill="#62AE90"/>
  <path d="M196.129 283.439C195.756 283.465 195.383 283.384 195.054 283.207L193.566 280.635C193.754 280.582 193.948 280.557 194.143 280.562H208.762C209.14 280.538 209.518 280.618 209.853 280.794L211.716 283.367C211.54 283.413 211.358 283.434 211.176 283.429L196.129 283.439Z" fill="#62AE90"/>
  <path d="M208.767 280.809C209.078 280.8 209.388 280.854 209.678 280.969L211.268 283.182H196.129C195.828 283.191 195.529 283.14 195.249 283.032L193.973 280.82H208.762L208.767 280.809ZM208.762 280.305H194.142C193.556 280.305 193.17 280.454 193.278 280.64L194.822 283.351C195.194 283.625 195.654 283.75 196.113 283.701H211.165C211.767 283.701 212.143 283.542 212.004 283.351L210.054 280.64C209.67 280.383 209.211 280.265 208.752 280.305H208.762Z" fill="#62AE90"/>
  <path d="M89.9734 298.738C89.6824 298.754 89.3912 298.709 89.1191 298.604L90.0917 295.115C90.42 294.99 90.7699 294.933 91.1209 294.945H161.492C161.857 294.916 162.224 294.987 162.552 295.151L163.509 298.604C163.237 298.709 162.945 298.754 162.654 298.738H89.9734Z" fill="#62AE90"/>
  <path d="M161.491 294.688V295.203C161.772 295.199 162.052 295.24 162.319 295.326L163.189 298.439C163.019 298.471 162.847 298.487 162.674 298.486H89.9726C89.8 298.487 89.6277 298.471 89.458 298.439L90.3277 295.326C90.5973 295.242 90.8789 295.202 91.1614 295.208H161.491V294.693V294.688ZM161.491 294.693H91.1356C90.4769 294.693 89.9006 294.853 89.844 295.048L88.8457 298.625C88.7891 298.836 89.2882 299.005 89.9726 299.005H162.649C163.328 299.005 163.832 298.836 163.776 298.625L162.777 295.048C162.721 294.853 162.144 294.693 161.486 294.693H161.491Z" fill="#62AE90"/>
  <path d="M165 189H195" stroke="#62AE90"/>
  <path d="M165 196H195" stroke="#62AE90"/>
  <mask id="path-247-inside-1" fill="white">
    <path fill-rule="evenodd" clip-rule="evenodd" d="M58 176C58 174.343 59.3431 173 61 173H101.548C103.204 173 104.548 174.343 104.548 176V212.718C104.526 212.718 104.505 212.717 104.484 212.717C102.978 212.717 101.757 213.935 101.757 215.437C101.757 216.939 102.978 218.156 104.484 218.156C104.505 218.156 104.526 218.156 104.548 218.156V255C104.548 256.657 103.204 258 101.548 258H61C59.3431 258 58 256.657 58 255V218.156C59.4764 218.122 60.6629 216.917 60.6629 215.437C60.6629 213.956 59.4764 212.752 58 212.718V176Z"/>
  </mask>
  <path fill-rule="evenodd" clip-rule="evenodd" d="M58 176C58 174.343 59.3431 173 61 173H101.548C103.204 173 104.548 174.343 104.548 176V212.718C104.526 212.718 104.505 212.717 104.484 212.717C102.978 212.717 101.757 213.935 101.757 215.437C101.757 216.939 102.978 218.156 104.484 218.156C104.505 218.156 104.526 218.156 104.548 218.156V255C104.548 256.657 103.204 258 101.548 258H61C59.3431 258 58 256.657 58 255V218.156C59.4764 218.122 60.6629 216.917 60.6629 215.437C60.6629 213.956 59.4764 212.752 58 212.718V176Z" fill="#BCDBD0"/>
  <path d="M104.548 212.718L104.525 213.718L105.548 213.741V212.718H104.548ZM104.548 218.156H105.548V217.132L104.525 217.156L104.548 218.156ZM58 218.156L57.977 217.156L57 217.178V218.156H58ZM58 212.718H57V213.695L57.977 213.718L58 212.718ZM61 172C58.7909 172 57 173.791 57 176H59C59 174.895 59.8954 174 61 174V172ZM101.548 172H61V174H101.548V172ZM105.548 176C105.548 173.791 103.757 172 101.548 172V174C102.652 174 103.548 174.895 103.548 176H105.548ZM105.548 212.718V176H103.548V212.718H105.548ZM104.484 213.717C104.498 213.717 104.511 213.717 104.525 213.718L104.57 211.718C104.542 211.718 104.513 211.717 104.484 211.717V213.717ZM102.757 215.437C102.757 214.49 103.528 213.717 104.484 213.717V211.717C102.428 211.717 100.757 213.38 100.757 215.437H102.757ZM104.484 217.156C103.528 217.156 102.757 216.384 102.757 215.437H100.757C100.757 217.494 102.428 219.156 104.484 219.156V217.156ZM104.525 217.156C104.511 217.156 104.498 217.156 104.484 217.156V219.156C104.513 219.156 104.542 219.156 104.57 219.155L104.525 217.156ZM105.548 255V218.156H103.548V255H105.548ZM101.548 259C103.757 259 105.548 257.209 105.548 255H103.548C103.548 256.105 102.652 257 101.548 257V259ZM61 259H101.548V257H61V259ZM57 255C57 257.209 58.7909 259 61 259V257C59.8954 257 59 256.105 59 255H57ZM57 218.156V255H59V218.156H57ZM59.6629 215.437C59.6629 216.37 58.914 217.134 57.977 217.156L58.023 219.155C60.0389 219.109 61.6629 217.464 61.6629 215.437H59.6629ZM57.977 213.718C58.914 213.739 59.6629 214.503 59.6629 215.437H61.6629C61.6629 213.409 60.0389 211.765 58.023 211.718L57.977 213.718ZM57 176V212.718H59V176H57Z" fill="#62AE90" mask="url(#path-247-inside-1)"/>
  <path d="M60.8598 215.449L101.719 215.418" stroke="#62AE90" stroke-dasharray="2 2"/>
  <path d="M66 181H82" stroke="#62AE90"/>
  <path d="M66 189H96" stroke="#62AE90"/>
  <path d="M66 196H96" stroke="#62AE90"/>
  <path d="M73 225H88" stroke="#62AE90"/>
  <path d="M122 181H138" stroke="#62AE90"/>
  <path d="M122 189H152" stroke="#62AE90"/>
  <path d="M122 254H152" stroke="#62AE90"/>
  <path d="M122 196H152" stroke="#62AE90"/>
  <rect x="122.5" y="220.5" width="72" height="20" rx="1.5" fill="#BCDBD0" stroke="#62AE90"/>
  <rect x="63.5" y="232.5" width="35" height="20" rx="1.5" fill="#8FC4AF" stroke="#62AE90"/>
  <rect x="168.5" y="250.5" width="26" height="7" rx="1.5" fill="#62AE90" stroke="#62AE90"/>
  <path d="M216 234H344.5" stroke="#62AE90"/>
  <path d="M481 234H585.5" stroke="#62AE90"/>
  <circle cx="412.5" cy="233.5" r="68" fill="#62AE90" stroke="#62AE90"/>
  <path fill-rule="evenodd" clip-rule="evenodd" d="M397.993 249.721L405.082 256.811L405.083 256.811L405.083 256.811L412.173 249.721L412.172 249.721L448.804 213.09L441.714 206L405.083 242.631L389.612 227.161L382.522 234.251L397.993 249.721L397.993 249.721Z" fill="#F8F9FB"/>
</svg>
