<svg width="53" height="73" viewBox="0 0 53 73" fill="none" xmlns="http://www.w3.org/2000/svg">
  <path d="M32.6008 7.49608L45.6442 20.5395L39.1242 27.0594L19.5574 7.49263C20.4139 6.63612 21.4308 5.95677 22.5499 5.49338C23.6691 5.02999 24.8686 4.79165 26.0798 4.79197C27.2911 4.79229 28.4905 5.03126 29.6094 5.49525C30.7282 5.95923 31.7448 6.63912 32.6008 7.49608Z" fill="#62AD8F"/>
  <path d="M16.2974 10.7612L45.6355 40.0994C47.3647 41.8286 48.3362 44.1739 48.3362 46.6193C48.3362 49.0648 47.3647 51.4101 45.6355 53.1393L9.77739 17.2812L16.2974 10.7612Z" fill="#146C53"/>
  <path d="M6.52008 20.5425L42.3851 56.4075L35.8651 62.9275L6.52698 33.5893C5.66928 32.7334 4.98868 31.7169 4.5241 30.5978C4.05952 29.4787 3.82006 28.279 3.81942 27.0673C3.81878 25.8556 4.05697 24.6557 4.52036 23.5361C4.98376 22.4165 5.66328 21.3993 6.52008 20.5425Z" fill="#62AD8F"/>
  <path d="M13.028 46.6345L32.5948 66.2013C30.864 67.9266 28.5192 68.8942 26.0754 68.8916C23.6316 68.889 21.2888 67.9165 19.5617 66.1875L6.51834 53.1441L13.028 46.6345Z" fill="#146C53"/>
</svg>
