<svg width="14" height="14" viewBox="0 0 14 14" fill="none" xmlns="http://www.w3.org/2000/svg">
  <path d="M7 0C5.61553 0 4.26215 0.410543 3.11101 1.17971C1.95987 1.94888 1.06266 3.04213 0.532846 4.32121C0.00303297 5.6003 -0.13559 7.00776 0.134506 8.36563C0.404603 9.7235 1.07129 10.9708 2.05026 11.9497C3.02922 12.9287 4.2765 13.5954 5.63437 13.8655C6.99224 14.1356 8.3997 13.997 9.67878 13.4672C10.9579 12.9373 12.0511 12.0401 12.8203 10.889C13.5895 9.73784 14 8.38447 14 7C14 5.14348 13.2625 3.36301 11.9497 2.05025C10.637 0.737498 8.85652 0 7 0V0ZM9.63053 4.3621C9.80395 4.3621 9.97348 4.41353 10.1177 4.50988C10.2619 4.60623 10.3743 4.74317 10.4406 4.90339C10.507 5.06361 10.5244 5.23992 10.4905 5.41001C10.4567 5.5801 10.3732 5.73634 10.2505 5.85897C10.1279 5.9816 9.97168 6.06511 9.80159 6.09894C9.6315 6.13277 9.4552 6.11541 9.29497 6.04904C9.13475 5.98268 8.99781 5.87029 8.90146 5.72609C8.80511 5.5819 8.75368 5.41237 8.75368 5.23895C8.75368 5.00639 8.84607 4.78336 9.01051 4.61892C9.17495 4.45448 9.39797 4.3621 9.63053 4.3621ZM4.38421 4.3621C4.557 4.36356 4.7255 4.41604 4.86857 4.51294C5.01163 4.60985 5.12287 4.74687 5.18832 4.90678C5.25377 5.0667 5.27051 5.24239 5.23644 5.41179C5.20238 5.58119 5.11902 5.73675 4.99683 5.85893C4.87465 5.98112 4.71909 6.06448 4.54969 6.09855C4.38029 6.13261 4.2046 6.11587 4.04468 6.05042C3.88476 5.98497 3.74775 5.87373 3.65084 5.73067C3.55394 5.5876 3.50146 5.4191 3.5 5.24631C3.49903 5.13055 3.52099 5.01573 3.56462 4.9085C3.60825 4.80126 3.67268 4.70373 3.7542 4.62152C3.83572 4.53932 3.93271 4.47407 4.03958 4.42955C4.14645 4.38502 4.26107 4.3621 4.37684 4.3621H4.38421ZM10.9642 11.3768C10.8572 11.3766 10.7521 11.3487 10.6591 11.2957C10.5661 11.2428 10.4885 11.1667 10.4337 11.0747C10.0819 10.479 9.58089 9.98519 8.98003 9.64217C8.37917 9.29916 7.69925 9.11875 7.00737 9.11875C6.31549 9.11875 5.63557 9.29916 5.03471 9.64217C4.43385 9.98519 3.93282 10.479 3.58105 11.0747C3.52628 11.1667 3.44861 11.2428 3.35563 11.2957C3.26265 11.3487 3.15753 11.3766 3.05053 11.3768C2.93913 11.3757 2.83 11.3452 2.73414 11.2884C2.63829 11.2316 2.5591 11.1506 2.50455 11.0535C2.45 10.9563 2.42203 10.8465 2.42345 10.7351C2.42487 10.6237 2.45563 10.5147 2.51263 10.4189C2.9764 9.6403 3.63448 8.99549 4.42241 8.54769C5.21034 8.09988 6.10108 7.86445 7.00737 7.86445C7.91366 7.86445 8.8044 8.09988 9.59233 8.54769C10.3803 8.99549 11.0383 9.6403 11.5021 10.4189C11.5594 10.5152 11.5902 10.6249 11.5913 10.7369C11.5924 10.849 11.5638 10.9593 11.5084 11.0566C11.4529 11.154 11.3727 11.2349 11.2758 11.2912C11.1789 11.3474 11.0689 11.377 10.9568 11.3768H10.9642Z" fill="#E44343"/>
</svg>
