<svg width="19" height="19" viewBox="0 0 19 19" fill="none" xmlns="http://www.w3.org/2000/svg">
  <g clip-path="url(#clip0)">
    <path d="M0 19.0001H2.37381V16.6262H16.6167V19.0001H18.9905V15.4393H0V19.0001Z" fill="#62AD8F"/>
    <path d="M5.90601 3.58921H7.1404C7.44763 3.58921 7.74228 3.71125 7.95952 3.9285C8.17677 4.14574 8.29882 4.44039 8.29882 4.74763H10.6916C10.6916 4.44039 10.8137 4.14574 11.0309 3.9285C11.2482 3.71125 11.5428 3.58921 11.85 3.58921H13.0844C13.3917 3.58921 13.6863 3.71125 13.9036 3.9285C14.1208 4.14574 14.2428 4.44039 14.2428 4.74763H16.6167V1.36732C16.6167 1.00468 16.4726 0.656899 16.2162 0.400478C15.9598 0.144056 15.612 0 15.2493 0L3.7411 0C3.37846 0 3.03068 0.144056 2.77426 0.400478C2.51784 0.656899 2.37378 1.00468 2.37378 1.36732V4.74763H4.74759C4.74759 4.44039 4.86964 4.14574 5.08689 3.9285C5.30413 3.71125 5.59878 3.58921 5.90601 3.58921Z" fill="#62AD8F"/>
    <path d="M16.6167 5.93457H14.2429V6.64671C14.2429 6.77263 14.1929 6.89339 14.1038 6.98242C14.0148 7.07146 13.894 7.12148 13.7681 7.12148H11.1664C11.0405 7.12148 10.9197 7.07146 10.8307 6.98242C10.7417 6.89339 10.6917 6.77263 10.6917 6.64671V5.93457H8.29885V6.64671C8.29885 6.77263 8.24883 6.89339 8.1598 6.98242C8.07076 7.07146 7.95 7.12148 7.82409 7.12148H5.22239C5.09647 7.12148 4.97572 7.07146 4.88668 6.98242C4.79765 6.89339 4.74763 6.77263 4.74763 6.64671V5.93457H2.37381L0 14.2429H18.9905L16.6167 5.93457Z" fill="#62AD8F"/>
  </g>
  <defs>
    <clipPath id="clip0">
      <rect width="18.9905" height="19" fill="white"/>
    </clipPath>
  </defs>
</svg>
