<svg width="12" height="12" viewBox="0 0 12 12" fill="none" xmlns="http://www.w3.org/2000/svg">
  <path fill-rule="evenodd" clip-rule="evenodd" d="M0.292922 0.292893C-0.0976024 0.683417 -0.0976024 1.31658 0.292922 1.70711L4.53557 5.94975L0.292893 10.1924C-0.0976311 10.583 -0.097631 11.2161 0.292893 11.6066C0.683418 11.9972 1.31658 11.9972 1.70711 11.6066L5.94978 7.36397L10.1924 11.6066C10.5829 11.9971 11.2161 11.9971 11.6066 11.6066C11.9972 11.2161 11.9972 10.5829 11.6066 10.1924L7.364 5.94975L11.6066 1.70715C11.9971 1.31662 11.9971 0.683458 11.6066 0.292933C11.2161 -0.0975909 10.5829 -0.0975909 10.1924 0.292933L5.94978 4.53554L1.70714 0.292893C1.31661 -0.0976311 0.683446 -0.0976311 0.292922 0.292893Z" fill="#202330"/>
</svg>
