<svg width="21" height="20" viewBox="0 0 21 20" fill="none" xmlns="http://www.w3.org/2000/svg">
  <path d="M19.5099 0H7.99994C7.86733 0 7.74015 0.0526784 7.64639 0.146447C7.55262 0.240215 7.49994 0.367392 7.49994 0.5V5.75C7.49994 5.88261 7.55262 6.00979 7.64639 6.10355C7.74015 6.19732 7.86733 6.25 7.99994 6.25H13.2599C13.3925 6.25 13.5197 6.30268 13.6135 6.39645C13.7073 6.49021 13.7599 6.61739 13.7599 6.75V8.75L16.6699 11.65C16.7398 11.7185 16.8283 11.765 16.9243 11.7837C17.0204 11.8025 17.1199 11.7926 17.2104 11.7553C17.3009 11.7181 17.3784 11.655 17.4335 11.5741C17.4885 11.4932 17.5186 11.3979 17.5199 11.3V9.3C17.5199 9.16739 17.5726 9.04021 17.6664 8.94645C17.7602 8.85268 17.8873 8.8 18.0199 8.8H19.5099C19.6425 8.8 19.7697 8.74732 19.8635 8.65355C19.9573 8.55978 20.0099 8.43261 20.0099 8.3V0.5C20.0099 0.367392 19.9573 0.240215 19.8635 0.146447C19.7697 0.0526784 19.6425 0 19.5099 0V0Z" fill="#F8F9FB"/>
  <path d="M11.9999 7.5H0.499939C0.367331 7.5 0.240154 7.55268 0.146386 7.64645C0.0526174 7.74021 -6.10352e-05 7.86739 -6.10352e-05 8L-6.10352e-05 15.74C-6.10352e-05 15.8057 0.0128718 15.8707 0.0379992 15.9313C0.0631265 15.992 0.0999563 16.0471 0.146386 16.0936C0.192815 16.14 0.247934 16.1768 0.308597 16.2019C0.36926 16.2271 0.434278 16.24 0.499939 16.24H1.99994C2.13255 16.24 2.25972 16.2927 2.35349 16.3864C2.44726 16.4802 2.49994 16.6074 2.49994 16.74V18.74C2.50131 18.8379 2.53138 18.9332 2.58641 19.0141C2.64144 19.095 2.71901 19.1581 2.80951 19.1953C2.90002 19.2326 2.99946 19.2425 3.09553 19.2237C3.19159 19.205 3.28005 19.1585 3.34994 19.09L6.10994 16.34C6.20225 16.2458 6.32805 16.1919 6.45994 16.19H11.9999C12.1325 16.19 12.2597 16.1373 12.3535 16.0436C12.4473 15.9498 12.4999 15.8226 12.4999 15.69V8C12.4999 7.86739 12.4473 7.74021 12.3535 7.64645C12.2597 7.55268 12.1325 7.5 11.9999 7.5ZM1.51994 12.09C1.32732 11.8418 1.23191 11.5318 1.2516 11.2183C1.2713 10.9047 1.40474 10.6091 1.6269 10.387C1.84905 10.1648 2.14465 10.0314 2.45821 10.0117C2.77177 9.99197 3.08173 10.0874 3.32994 10.28C3.38455 10.318 3.43196 10.3654 3.46994 10.42C3.66255 10.6682 3.75797 10.9782 3.73828 11.2917C3.71858 11.6053 3.58514 11.9009 3.36298 12.123C3.14082 12.3452 2.84523 12.4786 2.53167 12.4983C2.21811 12.518 1.90814 12.4226 1.65994 12.23C1.60533 12.192 1.55792 12.1446 1.51994 12.09ZM7.08994 12.23C6.84173 12.4226 6.53177 12.518 6.21821 12.4983C5.90465 12.4786 5.60905 12.3452 5.3869 12.123C5.16474 11.9009 5.0313 11.6053 5.0116 11.2917C4.99191 10.9782 5.08732 10.6682 5.27994 10.42C5.31792 10.3654 5.36533 10.318 5.41994 10.28C5.66815 10.0874 5.97811 9.99197 6.29167 10.0117C6.60523 10.0314 6.90082 10.1648 7.12298 10.387C7.34514 10.6091 7.47858 10.9047 7.49828 11.2183C7.51797 11.5318 7.42255 11.8418 7.22994 12.09C7.19196 12.1446 7.14455 12.192 7.08994 12.23ZM10.8299 12.23C10.584 12.4341 10.271 12.5397 9.95165 12.5262C9.63229 12.5128 9.32931 12.3812 9.10143 12.1571C8.87356 11.9329 8.73701 11.6322 8.71825 11.3131C8.6995 10.994 8.79988 10.6793 8.99994 10.43C9.03792 10.3754 9.08533 10.328 9.13994 10.29C9.37863 10.0433 9.70553 9.90162 10.0487 9.89599C10.3919 9.89037 10.7233 10.0213 10.9699 10.26C11.2166 10.4987 11.3583 10.8256 11.3639 11.1688C11.3696 11.512 11.2386 11.8433 10.9999 12.09C10.9531 12.1475 10.8953 12.195 10.8299 12.23Z" fill="#F8F9FB"/>
</svg>
