<svg width="27" height="16" viewBox="0 0 27 16" fill="none" xmlns="http://www.w3.org/2000/svg">
  <path d="M4.66055 3.15477C7.19296 2.82783 14.3778 2.60245 12.4104 12.983L14.6414 12.8013C13.6646 6.40184 15.71 3.1402 22.1062 2.82783C11.4969 -3.04587 5.45739 3.05107 4.66055 3.15391" fill="#FEE090"/>
  <path d="M14.5368 11.3367C15.6975 14.484 19.197 16.0929 22.344 14.936C23.472 14.5201 24.4513 13.7792 25.1581 12.807C25.8649 11.8347 26.2674 10.6748 26.3147 9.47391C26.3621 8.273 26.0521 7.08502 25.4241 6.0602C24.796 5.03537 23.8781 4.21973 22.7863 3.71641C21.6945 3.21309 20.478 3.04469 19.2905 3.2325C18.103 3.42032 16.9979 3.95592 16.1149 4.77157C15.2319 5.58723 14.6106 6.64631 14.3297 7.81489C14.0488 8.98348 14.1209 10.2091 14.5368 11.3367Z" fill="white"/>
  <path d="M12.8433 9.20827C12.8433 10.4102 12.4868 11.5851 11.8188 12.5845C11.1508 13.5838 10.2013 14.3627 9.09048 14.8226C7.97965 15.2825 6.75733 15.4028 5.5781 15.1682C4.39887 14.9337 3.31571 14.3549 2.46558 13.5049C1.61546 12.655 1.03656 11.5721 0.802098 10.3933C0.567637 9.21443 0.688143 7.99256 1.14838 6.88219C1.60861 5.77181 2.3879 4.8228 3.38769 4.15518C4.38749 3.48755 5.56288 3.1313 6.76522 3.13147C7.56348 3.13147 8.35392 3.28866 9.09141 3.59406C9.82889 3.89945 10.499 4.34708 11.0634 4.91138C11.6278 5.47567 12.0755 6.14558 12.3809 6.88284C12.6863 7.62011 12.8434 8.4103 12.8433 9.20827Z" fill="white"/>
  <path d="M7.80067 9.14717C7.80076 9.36937 7.73491 9.58659 7.61145 9.77136C7.488 9.95613 7.31249 10.1001 7.10714 10.1852C6.90178 10.2702 6.67581 10.2924 6.45782 10.249C6.23983 10.2057 6.03961 10.0986 5.88249 9.94142C5.72538 9.78425 5.61844 9.58402 5.5752 9.36607C5.53196 9.14812 5.55437 8.92225 5.63959 8.71703C5.72481 8.51182 5.869 8.33648 6.05393 8.21321C6.23887 8.08994 6.45622 8.02428 6.67849 8.02454C6.97612 8.02499 7.26142 8.14344 7.47179 8.3539C7.68217 8.56436 7.80045 8.84965 7.80067 9.14717Z" fill="#BB2535"/>
  <path d="M21.3463 9.14717C21.3462 9.36911 21.2803 9.58603 21.1569 9.77052C21.0335 9.95501 20.8581 10.0988 20.653 10.1837C20.4478 10.2685 20.2221 10.2907 20.0044 10.2473C19.7866 10.204 19.5867 10.0971 19.4297 9.94011C19.2727 9.78315 19.1659 9.58319 19.1226 9.36552C19.0793 9.14784 19.1016 8.92223 19.1865 8.71719C19.2715 8.51216 19.4154 8.33692 19.6 8.21363C19.7846 8.09034 20.0016 8.02454 20.2237 8.02454C20.5214 8.02465 20.807 8.14298 21.0175 8.3535C21.228 8.56402 21.3463 8.8495 21.3463 9.14717Z" fill="#589441"/>
  <path d="M25.6639 5.20612C25.982 3.85338 26.9927 2.50365 26.9927 2.50365L22.4821 2.50065C19.9527 0.867258 16.8785 0 13.4726 0C9.93972 0 6.74807 0.888254 4.2341 2.53236L0 2.53536C0 2.53536 0.998301 3.86924 1.32321 5.2134C0.466586 6.36879 0.00406391 7.76878 0.0038576 9.2069C0.0038576 12.9347 3.03734 15.9654 6.76522 15.9654C7.7781 15.9654 8.77797 15.7374 9.69067 15.2983C10.6034 14.8593 11.4055 14.2204 12.0375 13.4292L13.4769 15.5832L14.9265 13.4116C15.8099 14.5343 17.0264 15.3483 18.4014 15.7369C19.7765 16.1254 21.2393 16.0685 22.5799 15.5742C26.0797 14.2802 27.8727 10.3844 26.5804 6.89093C26.3566 6.28861 26.048 5.72129 25.6639 5.20612ZM20.0239 2.48223C18.3577 2.53054 16.7686 3.19453 15.5637 4.34587C14.3587 5.49721 13.6235 7.05416 13.5 8.71585C13.2501 5.26353 10.3997 2.52507 6.89895 2.45523C8.83683 1.62825 11.061 1.17834 13.4726 1.17834C15.8982 1.17834 18.0886 1.61668 20.0239 2.48223ZM6.76522 14.6003C5.69813 14.6002 4.65503 14.2838 3.76783 13.6911C2.88063 13.0984 2.18917 12.256 1.78089 11.2705C1.37261 10.2849 1.26585 9.20048 1.47411 8.15429C1.68237 7.10809 2.1963 6.14713 2.95091 5.39291C3.70551 4.6387 4.6669 4.1251 5.7135 3.91708C6.7601 3.70906 7.8449 3.81595 8.83073 4.22424C9.81656 4.63253 10.6591 5.32388 11.2519 6.21086C11.8447 7.09784 12.161 8.14062 12.1609 9.20733C12.1593 10.6373 11.5903 12.0082 10.5788 13.0193C9.56718 14.0303 8.19568 14.5989 6.76522 14.6003ZM22.1075 14.2935C20.7649 14.7884 19.2808 14.7301 17.9811 14.1315C16.6815 13.5329 15.6729 12.443 15.1768 11.1012C14.9277 10.436 14.8125 9.72809 14.8379 9.01821C14.8632 8.30833 15.0285 7.61043 15.3244 6.9646C15.6202 6.31877 16.0408 5.73771 16.5619 5.2548C17.083 4.77189 17.6945 4.39663 18.361 4.15056C19.0276 3.9045 19.7363 3.79248 20.4463 3.82094C21.1563 3.84939 21.8537 4.01777 22.4985 4.31638C23.1432 4.615 23.7226 5.03799 24.2034 5.56106C24.6841 6.08412 25.0568 6.69697 25.3 7.36441C26.3288 10.153 24.898 13.2621 22.1075 14.2943" fill="#010101"/>
  <path d="M6.68152 5.81201C6.02104 5.81125 5.37518 6.00636 4.82566 6.37265C4.27615 6.73895 3.84768 7.25996 3.59447 7.86976C3.34127 8.47956 3.27471 9.15074 3.40322 9.79836C3.53173 10.446 3.84953 11.041 4.31641 11.508C4.78329 11.975 5.37826 12.293 6.02603 12.4219C6.67381 12.5508 7.34527 12.4847 7.95545 12.232C8.56563 11.9793 9.0871 11.5513 9.45387 11.0022C9.82065 10.4531 10.0162 9.8076 10.0159 9.14736C10.0141 8.2637 9.66228 7.41671 9.03742 6.79167C8.41255 6.16662 7.56549 5.81439 6.68152 5.81201ZM6.68152 11.3361C6.24858 11.3366 5.82521 11.2087 5.46497 10.9687C5.10473 10.7286 4.82381 10.3871 4.65774 9.98745C4.49166 9.58777 4.4479 9.14783 4.53199 8.72328C4.61608 8.29873 4.82424 7.90865 5.13014 7.60238C5.43603 7.29611 5.82593 7.08742 6.25049 7.00269C6.67506 6.91797 7.11523 6.96102 7.51531 7.12641C7.9154 7.2918 8.25743 7.57208 8.49813 7.93182C8.73884 8.29155 8.86741 8.71457 8.86758 9.14736C8.86645 9.7269 8.63588 10.2824 8.22626 10.6926C7.81663 11.1027 7.26127 11.334 6.68152 11.3361Z" fill="#010101"/>
  <path d="M20.2237 5.81201C19.5633 5.81184 18.9177 6.00746 18.3686 6.37411C17.8195 6.74076 17.3915 7.26198 17.1387 7.87183C16.886 8.48169 16.8199 9.15277 16.9487 9.8002C17.0776 10.4476 17.3956 11.0423 17.8626 11.509C18.3296 11.9757 18.9246 12.2935 19.5723 12.4222C20.22 12.5508 20.8913 12.4845 21.5013 12.2317C22.1113 11.9789 22.6326 11.5509 22.9992 11.0019C23.3659 10.4529 23.5614 9.80747 23.561 9.14735C23.5592 8.26317 23.207 7.41574 22.5815 6.79061C21.956 6.16548 21.1081 5.8136 20.2237 5.81201ZM20.2237 11.3361C19.7907 11.3366 19.3673 11.2087 19.0071 10.9687C18.6469 10.7286 18.3659 10.3871 18.1999 9.98745C18.0338 9.58776 17.99 9.14782 18.0741 8.72328C18.1582 8.29873 18.3664 7.90865 18.6723 7.60238C18.9782 7.29611 19.3681 7.08741 19.7926 7.00269C20.2172 6.91797 20.6574 6.96102 21.0574 7.12641C21.4575 7.29179 21.7996 7.57208 22.0403 7.93181C22.281 8.29155 22.4095 8.71456 22.4097 9.14735C22.409 9.72703 22.1786 10.2828 21.7689 10.693C21.3592 11.1033 20.8035 11.3345 20.2237 11.3361Z" fill="#010101"/>
</svg>
