<svg width="64" height="31" viewBox="0 0 64 31" fill="none" xmlns="http://www.w3.org/2000/svg">
  <path d="M64 6.00001C64 4.34315 62.6569 3.00001 61 3.00001L14.2012 3C13.5376 3 12.9388 3.225 12.502 3.585L1.7044 12.59C1.2676 12.95 1 13.451 1 14.004C1 14.556 1.27 15.058 1.7056 15.42L10.0984 22.415C10.5316 22.776 11.1316 23 11.7952 23C11.8648 23 11.9336 22.9975 12.0017 22.9927L12 23L61 23C62.6569 23 64 21.6569 64 20L64 6.00001Z" fill="#E1BE41"/>
  <path fill-rule="evenodd" clip-rule="evenodd" d="M24 1H14.2012C13.5376 1 12.9388 1.27 12.502 1.702L1.7044 12.508C1.2676 12.94 1 13.5412 1 14.2048C1 14.8672 1.27 15.4696 1.7056 15.904L10.0984 24.298C10.5316 24.7312 11.1316 25 11.7952 25C12.4588 25 13.0588 24.73 13.492 24.2956L24.2956 13.498C24.73 13.0612 25 12.4624 25 11.8V2C25 1.44772 24.5523 1 24 1ZM22.5989 5.64974C22.5989 6.89024 21.5924 7.89974 20.3504 7.89974C19.1084 7.89974 18.1004 6.89024 18.1004 5.64974C18.1004 4.40774 19.1084 3.39974 20.3504 3.39974C21.5924 3.39974 22.5989 4.40774 22.5989 5.64974Z" fill="#F8F9FB"/>
  <path d="M12.502 1.702L12.1504 1.34649L12.1483 1.34858L12.502 1.702ZM1.7044 12.508L2.056 12.8635L2.05809 12.8614L1.7044 12.508ZM1.7056 15.904L2.05918 15.5505L2.05867 15.55L1.7056 15.904ZM10.0984 24.298L9.74482 24.6515L9.74485 24.6516L10.0984 24.298ZM13.492 24.2956L13.1385 23.9419L13.138 23.9425L13.492 24.2956ZM24.2956 13.498L24.6491 13.8517L24.6501 13.8506L24.2956 13.498ZM14.2012 1.5H24V0.5H14.2012V1.5ZM12.8536 2.0575C13.2021 1.71283 13.6765 1.5 14.2012 1.5V0.5C13.3987 0.5 12.6755 0.827166 12.1504 1.3465L12.8536 2.0575ZM2.05809 12.8614L12.8557 2.05542L12.1483 1.34858L1.35071 12.1546L2.05809 12.8614ZM1.5 14.2048C1.5 13.6781 1.71174 13.204 2.05599 12.8635L1.35281 12.1525C0.823465 12.676 0.5 13.4043 0.5 14.2048H1.5ZM2.05867 15.55C1.71325 15.2055 1.5 14.729 1.5 14.2048H0.5C0.5 15.0054 0.826752 15.7337 1.35253 16.258L2.05867 15.55ZM10.452 23.9445L2.05918 15.5505L1.35202 16.2575L9.74482 24.6515L10.452 23.9445ZM11.7952 24.5C11.2694 24.5 10.7951 24.2876 10.452 23.9444L9.74485 24.6516C10.2681 25.1748 10.9938 25.5 11.7952 25.5V24.5ZM13.138 23.9425C12.7945 24.2869 12.3203 24.5 11.7952 24.5V25.5C12.5973 25.5 13.3231 25.1731 13.846 24.6487L13.138 23.9425ZM23.9421 13.1443L13.1385 23.9419L13.8455 24.6493L24.6491 13.8517L23.9421 13.1443ZM24.5 11.8C24.5 12.3232 24.2874 12.7972 23.9411 13.1454L24.6501 13.8506C25.1726 13.3252 25.5 12.6016 25.5 11.8H24.5ZM24.5 2V11.8H25.5V2H24.5ZM24 1.5C24.2761 1.5 24.5 1.72386 24.5 2H25.5C25.5 1.17157 24.8284 0.5 24 0.5V1.5ZM20.3504 8.39974C21.8691 8.39974 23.0989 7.16573 23.0989 5.64974H22.0989C22.0989 6.61475 21.3156 7.39974 20.3504 7.39974V8.39974ZM17.6004 5.64974C17.6004 7.16616 18.832 8.39974 20.3504 8.39974V7.39974C19.3847 7.39974 18.6004 6.61431 18.6004 5.64974H17.6004ZM20.3504 2.89974C18.8322 2.89974 17.6004 4.1316 17.6004 5.64974H18.6004C18.6004 4.68388 19.3845 3.89974 20.3504 3.89974V2.89974ZM23.0989 5.64974C23.0989 4.13203 21.8689 2.89974 20.3504 2.89974V3.89974C21.3158 3.89974 22.0989 4.68345 22.0989 5.64974H23.0989Z" fill="#E1BE41"/>
  <path d="M29.686 14.178H33.13V12.932H29.686V14.178ZM37.2178 8.76L34.0118 9.81L34.3758 11.112L36.2518 10.51V18H37.7358V8.76H37.2178ZM39.9849 13.296C39.9849 16.026 41.1469 18.154 43.5129 18.154C45.8929 18.154 47.0269 16.026 47.0269 13.296C47.0269 11.882 46.7329 10.748 46.1309 9.894C45.5429 9.04 44.6749 8.606 43.5129 8.606C42.3509 8.606 41.4829 9.04 40.8809 9.908C40.2789 10.762 39.9849 11.896 39.9849 13.296ZM45.4869 13.31C45.4869 15.494 44.8709 16.796 43.5129 16.796C42.1549 16.796 41.5249 15.494 41.5249 13.31C41.5249 11.084 42.1829 9.964 43.5129 9.964C44.8289 9.964 45.4869 11.084 45.4869 13.31ZM48.7349 10.874C48.7349 12.162 49.7849 13.156 51.0869 13.156C52.3469 13.156 53.4109 12.162 53.4109 10.874C53.4109 9.614 52.3469 8.606 51.0869 8.606C49.7849 8.606 48.7349 9.614 48.7349 10.874ZM50.5829 18H51.8149L57.1209 8.76H55.8749L50.5829 18ZM52.2489 10.874C52.2489 11.588 51.7449 12.106 51.0869 12.106C50.4009 12.106 49.9249 11.588 49.9249 10.874C49.9249 10.16 50.4149 9.642 51.0869 9.642C51.7449 9.642 52.2489 10.188 52.2489 10.874ZM54.2789 15.872C54.2789 17.132 55.3149 18.14 56.6029 18.14C57.8769 18.14 58.9409 17.132 58.9409 15.872C58.9409 14.584 57.8909 13.59 56.6029 13.59C55.3149 13.59 54.2789 14.584 54.2789 15.872ZM57.7649 15.872C57.7649 16.558 57.2749 17.09 56.6169 17.09C55.9309 17.09 55.4549 16.586 55.4549 15.872C55.4549 15.144 55.9309 14.64 56.6169 14.64C57.2749 14.64 57.7649 15.158 57.7649 15.872Z" fill="#F8F9FB"/>
</svg>
