<svg width="16" height="16" viewBox="0 0 16 16" fill="none" xmlns="http://www.w3.org/2000/svg">
  <path d="M5.39994 2H9.99994V0.4C9.99994 0.293913 9.9578 0.192172 9.88278 0.117157C9.80777 0.0421427 9.70603 0 9.59994 0L0.399939 0C0.293852 0 0.192111 0.0421427 0.117096 0.117157C0.0420817 0.192172 -6.10352e-05 0.293913 -6.10352e-05 0.4L-6.10352e-05 12.6C-6.10352e-05 12.7061 0.0420817 12.8078 0.117096 12.8828C0.192111 12.9579 0.293852 13 0.399939 13H4.99994V2.4C4.99994 2.29391 5.04208 2.19217 5.1171 2.11716C5.19211 2.04214 5.29385 2 5.39994 2Z" fill="#F8F9FB"/>
  <path d="M11.9999 3H6.39994C6.29385 3 6.19211 3.04214 6.1171 3.11716C6.04208 3.19217 5.99994 3.29391 5.99994 3.4V15.6C5.99994 15.7061 6.04208 15.8078 6.1171 15.8828C6.19211 15.9579 6.29385 16 6.39994 16H15.5999C15.706 16 15.8078 15.9579 15.8828 15.8828C15.9578 15.8078 15.9999 15.7061 15.9999 15.6V7H12.3999C12.2939 7 12.1921 6.95786 12.1171 6.88284C12.0421 6.80783 11.9999 6.70609 11.9999 6.6V3Z" fill="#F8F9FB"/>
  <path d="M12.9999 3V5.6C12.9999 5.70609 13.0421 5.80783 13.1171 5.88284C13.1921 5.95786 13.2939 6 13.3999 6H15.9999L12.9999 3Z" fill="#F8F9FB"/>
</svg>
