<svg width="16" height="16" viewBox="0 0 16 16" fill="none" xmlns="http://www.w3.org/2000/svg">
  <g clip-path="url(#clip0)">
    <path d="M5.91 8.00003L5 11L8 10.09C8.06413 10.0714 8.12257 10.037 8.17 9.99003L13.38 4.78003L11.22 2.66003L6 7.87003C5.96165 7.90695 5.93105 7.95114 5.91 8.00003Z" fill="#0062FF"/>
    <path d="M11.9297 1.99994L13.9997 4.06994L15.8397 2.22994C15.8775 2.19272 15.9075 2.14836 15.928 2.09943C15.9485 2.0505 15.959 1.99799 15.959 1.94494C15.959 1.8919 15.9485 1.83938 15.928 1.79045C15.9075 1.74153 15.8775 1.69716 15.8397 1.65994L14.3297 0.119942C14.2925 0.0821475 14.2481 0.0521338 14.1992 0.0316473C14.1502 0.0111607 14.0977 0.000610352 14.0447 0.000610352C13.9916 0.000610352 13.9391 0.0111607 13.8902 0.0316473C13.8413 0.0521338 13.7969 0.0821475 13.7597 0.119942L11.9297 1.99994Z" fill="#0062FF"/>
    <path d="M14 8.40001V13.7C14 13.7394 13.9922 13.7784 13.9772 13.8148C13.9621 13.8512 13.94 13.8843 13.9121 13.9121C13.8843 13.94 13.8512 13.9621 13.8148 13.9772C13.7784 13.9923 13.7394 14 13.7 14H2.27C2.2306 14 2.19159 13.9923 2.15519 13.9772C2.1188 13.9621 2.08573 13.94 2.05787 13.9121C2.03001 13.8843 2.00791 13.8512 1.99284 13.8148C1.97776 13.7784 1.97 13.7394 1.97 13.7V2.32001C1.97 2.28062 1.97776 2.24161 1.99284 2.20521C2.00791 2.16881 2.03001 2.13574 2.05787 2.10788C2.08573 2.08002 2.1188 2.05792 2.15519 2.04285C2.19159 2.02777 2.2306 2.02001 2.27 2.02001H7.6C7.70609 2.02001 7.80783 1.97787 7.88284 1.90286C7.95786 1.82784 8 1.7261 8 1.62001V0.450012C8.00713 0.393444 8.00208 0.336005 7.9852 0.281547C7.96831 0.227088 7.93998 0.176869 7.9021 0.134254C7.86422 0.0916403 7.81767 0.0576165 7.76557 0.0344639C7.71346 0.0113112 7.65701 -0.000435094 7.6 1.23171e-05H0.4C0.293913 1.23171e-05 0.192172 0.042155 0.117157 0.11717C0.0421427 0.192184 0 0.293926 0 0.400012L0 15.58C0 15.6861 0.0421427 15.7878 0.117157 15.8629C0.192172 15.9379 0.293913 15.98 0.4 15.98H15.6C15.7061 15.98 15.8078 15.9379 15.8828 15.8629C15.9579 15.7878 16 15.6861 16 15.58V8.40001C16 8.29393 15.9579 8.19218 15.8828 8.11717C15.8078 8.04216 15.7061 8.00001 15.6 8.00001H14.43C14.375 7.99588 14.3197 8.00316 14.2677 8.0214C14.2157 8.03964 14.1679 8.06845 14.1276 8.10601C14.0872 8.14358 14.055 8.18908 14.033 8.23968C14.0111 8.29027 13.9998 8.34486 14 8.40001Z" fill="#0062FF"/>
  </g>
  <defs>
    <clipPath id="clip0">
      <rect width="16" height="15.98" fill="white"/>
    </clipPath>
  </defs>
</svg>
