<svg width="673" height="37" viewBox="0 0 673 37" fill="none" xmlns="http://www.w3.org/2000/svg">
  <path fill-rule="evenodd" clip-rule="evenodd" d="M659.875 15H661.625V1H659.875V15ZM662.5 10.6241H670.126C671.23 10.6241 672.126 9.72869 672.126 8.62412V3C672.126 1.89543 671.23 1 670.126 1H662.5V10.6241Z" fill="#C4C4C4"/>
  <path d="M11 27H660.5" stroke="#C4C4C4"/>
  <path d="M11 27H173" stroke="#62AE90"/>
  <circle cx="660.5" cy="26.5" r="9.5" fill="#C4C4C4" stroke="#EEEEEE" stroke-width="2"/>
  <circle cx="660.5" cy="26.5" r="6.5" fill="#F8F9FB"/>
  <circle cx="10.5" cy="26.5" r="9.5" fill="#62AE90" stroke="#EEEEEE" stroke-width="2"/>
  <circle cx="335.5" cy="26.5" r="9.5" fill="#C4C4C4" stroke="#EEEEEE" stroke-width="2"/>
  <circle cx="335.5" cy="26.5" r="6.5" fill="#F8F9FB"/>
  <circle cx="10.5" cy="26.5" r="6.5" fill="#F8F9FB"/>
  <path d="M16.8367 6.19761C16.7784 4.53423 16.0767 2.95843 14.8794 1.80229C13.6821 0.646157 12.0827 0 10.4183 0C8.75394 0 7.15455 0.646157 5.95724 1.80229C4.75993 2.95843 4.05822 4.53423 4 6.19761C4.00084 8.27914 4.60889 10.3152 5.74962 12.0563C6.89036 13.7975 8.51423 15.168 10.4223 16C12.3288 15.1668 13.951 13.7958 15.0903 12.0547C16.2296 10.3137 16.8365 8.27826 16.8367 6.19761Z" fill="#62AE90"/>
</svg>
