<svg width="159" height="36" viewBox="0 0 159 36" fill="none" xmlns="http://www.w3.org/2000/svg">
  <path d="M15.9493 3.64318L22.3305 10.0244L19.1407 13.2142L9.56805 3.64149C9.98707 3.22246 10.4846 2.8901 11.0321 2.66339C11.5796 2.43669 12.1664 2.32009 12.759 2.32024C13.3516 2.3204 13.9384 2.43732 14.4858 2.66431C15.0332 2.8913 15.5305 3.22393 15.9493 3.64318Z" fill="#62AD8F"/>
  <path d="M7.97314 5.24042L22.3262 19.5935C23.1722 20.4395 23.6475 21.5869 23.6475 22.7833C23.6475 23.9797 23.1722 25.1271 22.3262 25.9731L4.78338 8.43018L7.97314 5.24042Z" fill="#146C53"/>
  <path d="M3.18982 10.0258L20.7361 27.5721L17.5463 30.7618L3.1932 16.4087C2.77358 15.99 2.44061 15.4927 2.21333 14.9452C1.98604 14.3977 1.86889 13.8108 1.86857 13.218C1.86826 12.6252 1.98479 12.0381 2.2115 11.4904C2.43821 10.9427 2.77065 10.445 3.18982 10.0258Z" fill="#62AD8F"/>
  <path d="M6.18469 23L15.7574 32.5727C14.9106 33.4167 13.7635 33.8901 12.5679 33.8889C11.3723 33.8876 10.2262 33.4118 9.38121 32.5659L2.99999 26.1847L6.18469 23Z" fill="#146C53"/>
  <path d="M38.4562 14.8991C39.3087 16.1385 40.3332 16.9314 41.7994 16.9314C43.1153 16.9314 44.006 16.234 44.006 15.1499C44.006 14.24 43.4639 13.8532 42.129 13.2394L40.7153 12.5803C38.8574 11.7278 37.735 10.7416 37.735 9.03649C37.735 6.94456 39.5547 5.57144 41.7612 5.57144C42.5891 5.55483 43.4067 5.75749 44.131 6.15885C44.8553 6.56021 45.4606 7.146 45.8854 7.8568L44.4526 8.96007C43.7744 7.95232 42.8454 7.41023 41.7612 7.41023C40.6771 7.41023 39.8365 7.94993 39.8365 8.9553C39.9129 9.96305 40.3595 10.1374 41.618 10.775L43.0508 11.4341C45.1212 12.3893 46.1099 13.3899 46.1099 15.0735C46.1099 17.2991 44.2902 18.7701 41.8305 18.7701C40.8519 18.7868 39.887 18.5383 39.0381 18.0511C38.1893 17.5638 37.4881 16.8559 37.009 16.0024L38.4562 14.8991Z" fill="#F8F9FB"/>
  <path d="M62.4991 18.5602H60.4478V12.9053C60.4478 11.5704 59.6932 10.6987 58.4729 10.6987C58.1937 10.6882 57.9154 10.7357 57.6555 10.8383C57.3957 10.9409 57.16 11.0964 56.9633 11.2948C56.7667 11.4933 56.6134 11.7304 56.5131 11.9912C56.4129 12.2519 56.3679 12.5307 56.381 12.8098V18.5602H54.3488V12.9053C54.3488 11.5895 53.575 10.6987 52.3547 10.6987C51.1345 10.6987 50.2628 11.5895 50.2628 12.9053V18.5602H48.2306V9.05337H50.1267V9.94411C50.4847 9.58159 50.9135 9.29657 51.3863 9.10678C51.8592 8.91698 52.366 8.82646 52.8753 8.84084C54.1911 8.84084 55.1989 9.40203 55.7601 10.331C56.1465 9.85364 56.6371 9.47116 57.1943 9.21286C57.7515 8.95455 58.3604 8.82729 58.9744 8.84084C61.1618 8.84084 62.4968 10.3501 62.4968 12.6163L62.4991 18.5602Z" fill="#F8F9FB"/>
  <path d="M72.5983 18.5601H70.7022V17.495C70.0049 18.3284 68.9589 18.7726 67.6622 18.7726C65.6682 18.7726 64.3524 17.6693 64.3524 16.024C64.3524 14.3786 65.7064 13.3064 67.8557 13.3064H70.547V12.6926C70.547 11.3768 69.8115 10.6604 68.5148 10.6604C67.4497 10.6604 66.676 11.1261 65.8879 12.0741L64.7058 10.8801C65.6611 9.50461 67.0676 8.8479 68.713 8.8479C71.0557 8.8479 72.6031 10.2616 72.6031 12.8168L72.5983 18.5601ZM70.547 14.7846H68.1064C67.0222 14.7846 66.4228 15.1714 66.4228 15.9452C66.4228 16.7189 67.101 17.2037 68.0945 17.2037C69.47 17.2037 70.5542 16.2484 70.5542 14.9589L70.547 14.7846Z" fill="#F8F9FB"/>
  <path d="M80.5407 10.8538H79.9222C78.3151 10.8538 77.1354 11.809 77.1354 13.4807V18.56H75.1031V9.05324H76.9993V10.2926C77.3293 9.87496 77.7499 9.53775 78.2294 9.30649C78.7089 9.07523 79.2347 8.95597 79.767 8.95772C80.028 8.95803 80.2879 8.99092 80.5407 9.05563V10.8538Z" fill="#F8F9FB"/>
  <path d="M88.1348 18.5599C87.5823 18.6879 87.0182 18.7591 86.4512 18.7725C84.2638 18.7725 82.9479 17.6883 82.9479 15.4626V10.8155H81.3885V9.05313H82.9384V6.55524H84.9897V9.05313H87.8363V10.8155H84.9993V15.2859C84.9993 16.5062 85.6393 16.9313 86.8763 16.9313C87.1676 16.9313 87.5736 16.8931 88.1348 16.8334V18.5599Z" fill="#F8F9FB"/>
  <path d="M95.3084 18.5599H89.8302V5.78149H94.303C96.6075 5.78149 98.1358 7.21432 98.1358 9.18923C98.1488 9.64341 98.0598 10.0947 97.8755 10.51C97.6912 10.9253 97.4162 11.2941 97.0707 11.5892C97.774 11.7882 98.3908 12.2162 98.8233 12.8054C99.2559 13.3945 99.4795 14.1111 99.4588 14.8417C99.4516 16.991 97.8063 18.5599 95.3084 18.5599ZM91.8433 7.57491V11.028H94.1096C95.3681 11.028 96.0845 10.3498 96.0845 9.28475C96.0845 8.21968 95.3681 7.58208 94.1096 7.58208L91.8433 7.57491ZM95.134 12.7832H91.8433V16.7593H95.134C96.5478 16.7593 97.3788 16.0047 97.3788 14.7844C97.3788 13.5641 96.5478 12.7904 95.134 12.7904V12.7832Z" fill="#F8F9FB"/>
  <path d="M105.844 8.84064C108.612 8.78332 110.955 11.1069 110.898 13.7958C110.955 16.4871 108.612 18.8298 105.844 18.7701C103.115 18.8274 100.772 16.4848 100.83 13.7958C100.772 11.0663 103.12 8.80243 105.844 8.84064ZM105.864 10.6985C104.18 10.6985 102.902 12.0526 102.902 13.8149C102.902 15.5773 104.178 16.8883 105.844 16.8883C107.511 16.8883 108.806 15.5343 108.806 13.8102C108.806 12.0549 107.509 10.6985 105.864 10.6985Z" fill="#F8F9FB"/>
  <path d="M117.297 8.84064C120.065 8.78332 122.408 11.1069 122.351 13.7958C122.408 16.4871 120.065 18.8298 117.297 18.7701C114.568 18.8274 112.225 16.4848 112.283 13.7958C112.225 11.0663 114.568 8.80243 117.297 8.84064ZM117.317 10.6985C115.633 10.6985 114.355 12.0526 114.355 13.8149C114.355 15.5773 115.633 16.8883 117.297 16.8883C118.962 16.8883 120.259 15.5343 120.259 13.8102C120.259 12.0549 118.962 10.6985 117.317 10.6985Z" fill="#F8F9FB"/>
  <path d="M124.311 4.03827H126.344V18.56H124.311V4.03827ZM132.97 18.56H130.525L126.401 13.2155L130.119 9.05316H132.636L128.803 13.2346L132.97 18.56Z" fill="#F8F9FB"/>
  <path d="M135.28 4.15542C135.459 4.15385 135.637 4.18764 135.803 4.25486C135.969 4.32209 136.12 4.42142 136.248 4.54719C136.376 4.67295 136.478 4.82268 136.547 4.98779C136.617 5.15291 136.654 5.33017 136.655 5.50944C136.64 5.86652 136.488 6.20404 136.23 6.45145C135.972 6.69886 135.629 6.83701 135.271 6.83701C134.914 6.83701 134.57 6.69886 134.312 6.45145C134.054 6.20404 133.902 5.86652 133.887 5.50944C133.889 5.32893 133.927 5.15057 133.998 4.98464C134.069 4.81871 134.172 4.66849 134.302 4.54263C134.431 4.41677 134.584 4.31776 134.752 4.2513C134.92 4.18485 135.099 4.15226 135.28 4.15542ZM134.253 9.0533H136.285V18.5601H134.253V9.0533Z" fill="#F8F9FB"/>
  <path d="M147.174 18.5598H145.149V12.8858C145.149 11.57 144.316 10.6793 143.079 10.6793C141.842 10.6793 140.911 11.5891 140.911 12.8858V18.5598H138.878V9.05304H140.774V9.98199C141.142 9.6017 141.585 9.30339 142.076 9.10666C142.566 8.90993 143.093 8.81922 143.621 8.8405C145.847 8.8405 147.184 10.3497 147.184 12.616L147.174 18.5598Z" fill="#F8F9FB"/>
  <path d="M159 9.05305V17.5712C159 20.573 157.123 22.2565 154.238 22.2565C152.541 22.2659 150.905 21.6211 149.67 20.456L150.792 19.0422C151.857 19.8948 152.824 20.3963 154.121 20.3963C155.845 20.3963 156.968 19.4673 156.968 17.6858V17.01C156.251 17.8816 155.072 18.3664 153.753 18.3664C151.1 18.3664 149.125 16.3724 149.125 13.6047C149.125 10.8369 151.119 8.84052 153.746 8.84052C155.198 8.84052 156.418 9.42081 157.116 10.4095V9.05305H159ZM154.121 10.6602C153.733 10.6476 153.347 10.7154 152.986 10.8593C152.626 11.0032 152.299 11.2201 152.026 11.4964C151.753 11.7727 151.541 12.1024 151.402 12.4648C151.262 12.8272 151.2 13.2145 151.217 13.6023C151.2 14.0015 151.266 14.4 151.409 14.7729C151.552 15.1459 151.771 15.4855 152.051 15.7706C152.604 16.2865 153.33 16.5766 154.086 16.5836C154.843 16.5907 155.574 16.3143 156.137 15.8088C156.698 15.2858 156.989 14.5503 156.989 13.5832C156.977 11.6465 155.678 10.6602 154.112 10.6602H154.121Z" fill="#F8F9FB"/>
  <path d="M40.4121 30.6435H39.4091V25.3659H37.6038V24.5062H42.2246V25.3659H40.4193L40.4121 30.6435Z" fill="#62AD8F"/>
  <path d="M45.4078 25.9153C45.5728 25.9124 45.7377 25.9269 45.8998 25.9582L45.8042 26.8776C45.661 26.8437 45.5144 26.8269 45.3672 26.8275C45.1898 26.8212 45.013 26.8524 44.8484 26.9191C44.6838 26.9857 44.5351 27.0864 44.412 27.2144C44.1614 27.4868 44.0291 27.8475 44.0442 28.2173V30.6436H43.058V25.9988H43.8293L43.9583 26.8179H44.0084C44.1525 26.5519 44.36 26.3255 44.6126 26.1588C44.8478 26.0008 45.1245 25.916 45.4078 25.9153Z" fill="#62AD8F"/>
  <path d="M49.6634 30.6435L49.4652 29.9964H49.4317C49.255 30.2395 49.0235 30.4375 48.7559 30.5743C48.4784 30.6855 48.1807 30.7375 47.8819 30.7271C47.4911 30.7499 47.1072 30.6168 46.8144 30.357C46.6813 30.2188 46.5783 30.0545 46.5121 29.8744C46.446 29.6944 46.418 29.5025 46.4299 29.311C46.4177 29.0997 46.4603 28.8889 46.5536 28.6989C46.6469 28.5089 46.7878 28.3463 46.9625 28.2268C47.3175 27.9833 47.8588 27.8503 48.5863 27.828L49.3887 27.8018V27.563C49.4077 27.3224 49.3333 27.0838 49.181 26.8967C49.0945 26.8175 48.9926 26.7571 48.8816 26.7192C48.7706 26.6814 48.653 26.667 48.5362 26.677C48.3037 26.676 48.0724 26.7115 47.8508 26.7821C47.6357 26.8479 47.4251 26.9276 47.2204 27.0209L46.9004 26.3045C47.1618 26.1692 47.4395 26.068 47.7267 26.0036C48.0045 25.9377 48.2889 25.9032 48.5744 25.9009C49.052 25.8663 49.5263 26.0035 49.9117 26.2877C50.2126 26.5457 50.3631 26.95 50.3631 27.5009V30.6292L49.6634 30.6435ZM48.1947 29.9701C48.5101 29.9849 48.8191 29.8771 49.0568 29.6692C49.1691 29.561 49.2568 29.43 49.3141 29.285C49.3713 29.14 49.3968 28.9843 49.3887 28.8286V28.425L48.7917 28.4513C48.4384 28.4416 48.0887 28.5239 47.7768 28.6901C47.6732 28.7593 47.5894 28.8542 47.5337 28.9656C47.478 29.077 47.4524 29.201 47.4592 29.3253C47.4541 29.4134 47.4679 29.5016 47.4996 29.584C47.5313 29.6663 47.5802 29.741 47.6431 29.8029C47.7995 29.9259 47.9964 29.9856 48.1947 29.9701Z" fill="#62AD8F"/>
  <path d="M52.8036 30.6435L51.0413 26.0011H52.0824L53.0377 28.6996C53.1745 29.055 53.273 29.4241 53.3314 29.8005H53.3648C53.4342 29.4265 53.5324 29.0584 53.6586 28.6996L54.6138 26.0011H55.6621L53.8902 30.6435H52.8036Z" fill="#62AD8F"/>
  <path d="M58.3751 30.727C58.0644 30.7447 57.7535 30.6975 57.462 30.5886C57.1705 30.4796 56.9049 30.3113 56.6819 30.0942C56.4702 29.8584 56.3076 29.5828 56.2034 29.2835C56.0993 28.9842 56.0558 28.6672 56.0754 28.3509C56.0374 27.7054 56.239 27.0685 56.6413 26.5623C56.8361 26.3448 57.0769 26.1736 57.3463 26.0612C57.6157 25.9488 57.9068 25.8981 58.1984 25.9127C58.466 25.8988 58.7336 25.9414 58.9838 26.0376C59.2339 26.1339 59.461 26.2818 59.6503 26.4715C60.0235 26.893 60.2149 27.445 60.1828 28.007V28.5396H57.0784C57.0666 28.9193 57.1969 29.2897 57.4437 29.5784C57.5709 29.7034 57.7229 29.8004 57.8899 29.8629C58.057 29.9254 58.2353 29.9522 58.4133 29.9414C58.6709 29.9427 58.9279 29.9163 59.1798 29.8626C59.4418 29.8023 59.697 29.7159 59.9416 29.6046V30.407C59.7092 30.5174 59.4636 30.5976 59.2109 30.6458C58.9354 30.699 58.6556 30.7262 58.3751 30.727ZM58.1936 26.6674C58.0538 26.661 57.9144 26.6844 57.7843 26.7358C57.6542 26.7873 57.5366 26.8657 57.439 26.9659C57.2321 27.2097 57.1127 27.5156 57.0999 27.8351H59.2061C59.2238 27.5204 59.1252 27.2102 58.9291 26.9635C58.8353 26.8635 58.721 26.7848 58.5941 26.7329C58.4672 26.681 58.3306 26.657 58.1936 26.6626V26.6674Z" fill="#62AD8F"/>
  <path d="M62.2841 30.6434H61.2979V24.1097H62.2841V30.6434Z" fill="#62AD8F"/>
  <path d="M69.8423 30.6433L69.2286 28.9383H66.8812L66.2818 30.6433H65.2239L67.5212 24.4822H68.6125L70.9098 30.6433H69.8423ZM68.9707 28.0738L68.3952 26.4022C68.3538 26.2907 68.2957 26.1148 68.2209 25.8744C68.146 25.634 68.0951 25.4581 68.068 25.3466C67.9811 25.7297 67.8702 26.107 67.7361 26.4762L67.1821 28.0762L68.9707 28.0738Z" fill="#62AD8F"/>
  <path d="M75.5355 25.9987V26.5408L74.7427 26.6888C74.8219 26.7987 74.8831 26.9204 74.9242 27.0494C74.9723 27.1958 74.9965 27.349 74.9958 27.5032C75.0059 27.7168 74.9665 27.9298 74.8808 28.1257C74.795 28.3217 74.6652 28.4951 74.5015 28.6327C74.1097 28.9264 73.6267 29.0719 73.1379 29.0434C73.0026 29.0447 72.8675 29.0335 72.7343 29.01C72.6449 29.0516 72.5682 29.1162 72.512 29.1972C72.4558 29.2782 72.4221 29.3726 72.4143 29.4709C72.413 29.5208 72.4263 29.57 72.4526 29.6125C72.4789 29.6549 72.5171 29.6887 72.5624 29.7097C72.7368 29.7752 72.9234 29.8021 73.1092 29.7885H73.9188C74.3342 29.7593 74.7468 29.8749 75.0865 30.1157C75.223 30.2327 75.3301 30.38 75.3994 30.5459C75.4686 30.7118 75.4981 30.8916 75.4853 31.0709C75.4942 31.3132 75.4388 31.5535 75.3247 31.7674C75.2106 31.9813 75.0419 32.1612 74.8358 32.2888C74.4028 32.5738 73.7763 32.7163 72.9564 32.7163C72.4515 32.7474 71.9485 32.6304 71.5093 32.3795C71.3502 32.2775 71.2205 32.1357 71.1329 31.9682C71.0454 31.8007 71.0031 31.6132 71.0102 31.4243C71.0037 31.1595 71.1004 30.9026 71.28 30.7079C71.4856 30.4993 71.7495 30.3578 72.037 30.3019C71.9049 30.2454 71.792 30.1517 71.7122 30.0321C71.6299 29.9179 71.5849 29.7812 71.5833 29.6405C71.5787 29.4803 71.6312 29.3237 71.7313 29.1987C71.8561 29.0565 72.0039 28.9362 72.1684 28.8428C71.9262 28.7378 71.722 28.5611 71.5833 28.3366C71.43 28.0905 71.352 27.8049 71.3588 27.5151C71.3465 27.2968 71.3829 27.0785 71.4655 26.8761C71.5482 26.6737 71.6749 26.4923 71.8364 26.345C72.2234 26.0451 72.7067 25.8973 73.1952 25.9294C73.3333 25.9296 73.4713 25.9383 73.6084 25.9557C73.7177 25.9679 73.8262 25.9871 73.9331 26.013L75.5355 25.9987ZM71.8866 31.3622C71.884 31.4627 71.9095 31.562 71.9601 31.6488C72.0107 31.7357 72.0844 31.8068 72.1731 31.8542C72.4222 31.9819 72.7008 32.0413 72.9803 32.0261C73.3921 32.0487 73.8029 31.9665 74.1743 31.7873C74.2906 31.7318 74.3891 31.6449 74.4587 31.5365C74.5283 31.4281 74.5663 31.3024 74.5683 31.1736C74.5753 31.0889 74.5587 31.0039 74.5203 30.928C74.4819 30.8521 74.4234 30.7884 74.351 30.7437C74.0968 30.6375 73.8209 30.5933 73.5463 30.6148H72.7988C72.5582 30.6017 72.3205 30.6717 72.1254 30.813C72.0444 30.8792 71.9804 30.9638 71.9389 31.0598C71.8973 31.1557 71.8794 31.2603 71.8866 31.3646V31.3622ZM72.314 27.5032C72.2979 27.7476 72.3785 27.9886 72.5385 28.1742C72.6234 28.2567 72.7246 28.3206 72.8357 28.3617C72.9467 28.4028 73.0651 28.4203 73.1833 28.413C73.7548 28.413 74.0406 28.1081 74.0406 27.4984C74.0569 27.2471 73.9814 26.9984 73.828 26.7987C73.7449 26.7137 73.6439 26.6482 73.5324 26.607C73.421 26.5657 73.3017 26.5496 73.1833 26.5599C73.0642 26.5507 72.9446 26.5672 72.8325 26.6085C72.7204 26.6497 72.6185 26.7145 72.5337 26.7987C72.3755 26.9981 72.2972 27.2492 72.314 27.5032Z" fill="#62AD8F"/>
  <path d="M78.4225 30.727C78.1118 30.7446 77.8009 30.6975 77.5094 30.5885C77.218 30.4796 76.9523 30.3113 76.7294 30.0942C76.5171 29.8591 76.3538 29.5841 76.2488 29.2852C76.1438 28.9863 76.0994 28.6695 76.1181 28.3533C76.0801 27.7078 76.2816 27.0709 76.684 26.5647C76.8787 26.3472 77.1196 26.176 77.389 26.0636C77.6584 25.9512 77.9495 25.9005 78.241 25.9151C78.5087 25.9012 78.7763 25.9438 79.0264 26.04C79.2766 26.1363 79.5037 26.2841 79.693 26.4739C80.0662 26.8954 80.2576 27.4474 80.2255 28.0094V28.542H77.121C77.1093 28.9216 77.2396 29.292 77.4864 29.5808C77.6136 29.7058 77.7656 29.8027 77.9326 29.8653C78.0996 29.9278 78.2779 29.9545 78.4559 29.9437C78.7136 29.9451 78.9706 29.9187 79.2225 29.8649C79.4844 29.8047 79.7396 29.7183 79.9843 29.607V30.4094C79.7518 30.5197 79.5063 30.6 79.2536 30.6482C78.9796 30.7003 78.7014 30.7267 78.4225 30.727ZM78.241 26.6673C78.1013 26.661 77.9618 26.6844 77.8318 26.7358C77.7017 26.7873 77.584 26.8657 77.4864 26.9659C77.2796 27.2097 77.1602 27.5156 77.1473 27.8351H79.2536C79.2713 27.5204 79.1727 27.2102 78.9765 26.9635C78.883 26.8638 78.7691 26.7853 78.6427 26.7334C78.5162 26.6815 78.38 26.6573 78.2434 26.6626L78.241 26.6673Z" fill="#62AD8F"/>
  <path d="M85.4339 30.6436H84.4429V27.778C84.4642 27.4936 84.3875 27.2104 84.2255 26.9756C84.1391 26.8821 84.0323 26.8097 83.9136 26.7637C83.7948 26.7178 83.6671 26.6996 83.5402 26.7105C83.3694 26.6961 83.1975 26.722 83.0386 26.7863C82.8797 26.8507 82.7382 26.9515 82.6256 27.0807C82.4329 27.3274 82.3366 27.7406 82.3366 28.3201V30.6341H81.3503V25.9989H82.1217L82.2602 26.6079H82.3103C82.4553 26.383 82.6628 26.2054 82.9073 26.0968C83.1761 25.9736 83.469 25.9116 83.7647 25.9153C84.8791 25.9153 85.4363 26.4821 85.4363 27.6156L85.4339 30.6436Z" fill="#62AD8F"/>
  <path d="M88.6792 30.7272C87.9771 30.7272 87.4429 30.5219 87.0768 30.1111C86.7106 29.7004 86.5283 29.1137 86.5299 28.3511C86.5299 27.571 86.721 26.9708 87.103 26.5505C87.4851 26.1302 88.0368 25.9201 88.758 25.9201C89.2136 25.9126 89.6653 26.0056 90.0809 26.1923L89.7824 26.9852C89.4555 26.8448 89.1061 26.7639 88.7508 26.7464C87.9548 26.7464 87.5568 27.2797 87.5568 28.3463C87.5273 28.7595 87.6329 29.171 87.8577 29.5189C87.9617 29.6502 88.096 29.7544 88.249 29.8226C88.402 29.8908 88.5693 29.9209 88.7365 29.9105C89.1733 29.9112 89.6028 29.7984 89.983 29.5833V30.443C89.8079 30.546 89.6177 30.6209 89.4194 30.6651C89.1757 30.7129 88.9274 30.7337 88.6792 30.7272Z" fill="#62AD8F"/>
  <path d="M90.3582 25.9987H91.4328L92.388 28.6256C92.522 28.9666 92.6181 29.3214 92.6746 29.6835H92.708C92.7418 29.4936 92.7881 29.3061 92.8465 29.1223C92.9134 28.9026 93.2684 27.8598 93.9116 25.994H94.9766L92.9922 31.2476C92.6308 32.2124 92.029 32.6948 91.1868 32.6948C90.9722 32.6951 90.7583 32.671 90.5492 32.6232V31.8423C90.7164 31.8777 90.887 31.8946 91.0578 31.8924C91.5355 31.8924 91.8698 31.617 92.0608 31.0662L92.2328 30.6291L90.3582 25.9987Z" fill="#62AD8F"/>
</svg>
