<svg width="159" height="36" viewBox="0 0 159 36" fill="none" xmlns="http://www.w3.org/2000/svg">
  <path d="M15.9493 3.64308L22.3305 10.0243L19.1407 13.2141L9.56805 3.6414C9.98707 3.22237 10.4846 2.89001 11.0321 2.6633C11.5796 2.4366 12.1664 2.31999 12.759 2.32015C13.3516 2.32031 13.9384 2.43722 14.4858 2.66422C15.0332 2.89121 15.5305 3.22383 15.9493 3.64308Z" fill="#62AD8F"/>
  <path d="M7.97314 5.24045L22.3262 19.5936C23.1722 20.4395 23.6475 21.5869 23.6475 22.7833C23.6475 23.9797 23.1722 25.1271 22.3262 25.9731L4.78338 8.43021L7.97314 5.24045Z" fill="#146C53"/>
  <path d="M3.18994 10.0257L20.7362 27.572L17.5464 30.7617L3.19332 16.4086C2.7737 15.9899 2.44074 15.4926 2.21345 14.9451C1.98616 14.3976 1.86901 13.8107 1.8687 13.2179C1.86838 12.6251 1.98491 12.038 2.21162 11.4903C2.43833 10.9426 2.77077 10.4449 3.18994 10.0257Z" fill="#62AD8F"/>
  <path d="M6.37402 22.7909L15.9467 32.3635C15.1 33.2076 13.9528 33.681 12.7572 33.6797C11.5617 33.6785 10.4155 33.2026 9.57054 32.3568L3.18932 25.9756L6.37402 22.7909Z" fill="#146C53"/>
  <path d="M38.4564 14.8992C39.309 16.1386 40.3334 16.9314 41.7997 16.9314C43.1155 16.9314 44.0062 16.2341 44.0062 15.1499C44.0062 14.2401 43.4642 13.8532 42.1292 13.2395L40.7155 12.5804C38.8576 11.7278 37.7352 10.7416 37.7352 9.03652C37.7352 6.9446 39.5549 5.57147 41.7615 5.57147C42.5894 5.55486 43.407 5.75752 44.1313 6.15888C44.8555 6.56024 45.4608 7.14603 45.8856 7.85683L44.4528 8.9601C43.7746 7.95235 42.8456 7.41026 41.7615 7.41026C40.6773 7.41026 39.8367 7.94996 39.8367 8.95533C39.9131 9.96308 40.3597 10.1374 41.6182 10.775L43.051 11.4341C45.1215 12.3893 46.1101 13.3899 46.1101 15.0735C46.1101 17.2991 44.2904 18.7702 41.8307 18.7702C40.8521 18.7869 39.8872 18.5384 39.0384 18.0511C38.1895 17.5638 37.4884 16.8559 37.0093 16.0024L38.4564 14.8992Z" fill="#F8F9FB"/>
  <path d="M62.4995 18.5601H60.4482V12.9053C60.4482 11.5703 59.6936 10.6987 58.4733 10.6987C58.1941 10.6881 57.9158 10.7357 57.6559 10.8383C57.3961 10.9409 57.1603 11.0963 56.9637 11.2948C56.767 11.4932 56.6137 11.7304 56.5135 11.9911C56.4133 12.2519 56.3682 12.5307 56.3813 12.8097V18.5601H54.3491V12.9053C54.3491 11.5894 53.5754 10.6987 52.3551 10.6987C51.1348 10.6987 50.2632 11.5894 50.2632 12.9053V18.5601H48.231V9.05334H50.1271V9.94408C50.4851 9.58156 50.9139 9.29654 51.3867 9.10675C51.8596 8.91695 52.3664 8.82643 52.8757 8.8408C54.1915 8.8408 55.1993 9.40199 55.7605 10.3309C56.1469 9.85361 56.6375 9.47113 57.1947 9.21283C57.7518 8.95452 58.3608 8.82726 58.9748 8.8408C61.1622 8.8408 62.4971 10.35 62.4971 12.6163L62.4995 18.5601Z" fill="#F8F9FB"/>
  <path d="M72.5984 18.56H70.7023V17.495C70.005 18.3284 68.9591 18.7726 67.6624 18.7726C65.6683 18.7726 64.3525 17.6693 64.3525 16.0239C64.3525 14.3786 65.7066 13.3063 67.8558 13.3063H70.5471V12.6926C70.5471 11.3768 69.8116 10.6604 68.5149 10.6604C67.4498 10.6604 66.6761 11.1261 65.888 12.0741L64.706 10.8801C65.6612 9.50458 67.0677 8.84787 68.7131 8.84787C71.0558 8.84787 72.6032 10.2616 72.6032 12.8168L72.5984 18.56ZM70.5471 14.7845H68.1065C67.0224 14.7845 66.423 15.1714 66.423 15.9451C66.423 16.7189 67.1012 17.2036 68.0946 17.2036C69.4701 17.2036 70.5543 16.2484 70.5543 14.9589L70.5471 14.7845Z" fill="#F8F9FB"/>
  <path d="M80.5406 10.8538H79.9221C78.3149 10.8538 77.1353 11.809 77.1353 13.4807V18.56H75.103V9.05324H76.9991V10.2926C77.3292 9.87496 77.7498 9.53775 78.2293 9.30649C78.7088 9.07523 79.2345 8.95597 79.7669 8.95772C80.0279 8.95803 80.2878 8.99092 80.5406 9.05563V10.8538Z" fill="#F8F9FB"/>
  <path d="M88.1349 18.56C87.5824 18.6879 87.0183 18.7592 86.4513 18.7725C84.2639 18.7725 82.9481 17.6883 82.9481 15.4627V10.8155H81.3887V9.05316H82.9385V6.55527H84.9898V9.05316H87.8364V10.8155H84.9994V15.2859C84.9994 16.5062 85.6394 16.9313 86.8764 16.9313C87.1677 16.9313 87.5737 16.8931 88.1349 16.8334V18.56Z" fill="#F8F9FB"/>
  <path d="M95.3082 18.5599H89.8301V5.78152H94.3029C96.6073 5.78152 98.1357 7.21435 98.1357 9.18926C98.1486 9.64344 98.0597 10.0948 97.8754 10.5101C97.6911 10.9254 97.4161 11.2941 97.0706 11.5892C97.7739 11.7883 98.3906 12.2163 98.8232 12.8054C99.2557 13.3945 99.4794 14.1112 99.4587 14.8418C99.4515 16.991 97.8061 18.5599 95.3082 18.5599ZM91.8432 7.57494V11.0281H94.1094C95.3679 11.0281 96.0844 10.3498 96.0844 9.28478C96.0844 8.21972 95.3679 7.58211 94.1094 7.58211L91.8432 7.57494ZM95.1339 12.7833H91.8432V16.7594H95.1339C96.5476 16.7594 97.3787 16.0047 97.3787 14.7844C97.3787 13.5642 96.5476 12.7904 95.1339 12.7904V12.7833Z" fill="#F8F9FB"/>
  <path d="M105.845 8.84061C108.612 8.78329 110.955 11.1069 110.898 13.7958C110.955 16.4871 108.612 18.8298 105.845 18.7701C103.115 18.8274 100.772 16.4847 100.83 13.7958C100.772 11.0663 103.12 8.8024 105.845 8.84061ZM105.864 10.6985C104.18 10.6985 102.902 12.0525 102.902 13.8149C102.902 15.5773 104.178 16.8883 105.845 16.8883C107.511 16.8883 108.806 15.5343 108.806 13.8101C108.806 12.0549 107.509 10.6985 105.864 10.6985Z" fill="#F8F9FB"/>
  <path d="M117.298 8.84061C120.065 8.78329 122.408 11.1069 122.351 13.7958C122.408 16.4871 120.065 18.8298 117.298 18.7701C114.568 18.8274 112.225 16.4847 112.283 13.7958C112.225 11.0663 114.568 8.8024 117.298 8.84061ZM117.317 10.6985C115.633 10.6985 114.356 12.0525 114.356 13.8149C114.356 15.5773 115.633 16.8883 117.298 16.8883C118.962 16.8883 120.259 15.5343 120.259 13.8101C120.259 12.0549 118.962 10.6985 117.317 10.6985Z" fill="#F8F9FB"/>
  <path d="M124.312 4.03818H126.344V18.5599H124.312V4.03818ZM132.971 18.5599H130.525L126.401 13.2154L130.119 9.05307H132.636L128.803 13.2345L132.971 18.5599Z" fill="#F8F9FB"/>
  <path d="M135.28 4.15533C135.459 4.15376 135.637 4.18755 135.803 4.25477C135.969 4.322 136.121 4.42133 136.248 4.5471C136.376 4.67286 136.478 4.82259 136.548 4.9877C136.618 5.15281 136.654 5.33008 136.655 5.50935C136.641 5.86643 136.488 6.20395 136.23 6.45136C135.973 6.69877 135.629 6.83691 135.272 6.83691C134.914 6.83691 134.571 6.69877 134.313 6.45136C134.055 6.20395 133.903 5.86643 133.888 5.50935C133.89 5.32884 133.927 5.15048 133.998 4.98455C134.069 4.81862 134.173 4.66839 134.302 4.54253C134.431 4.41667 134.584 4.31766 134.752 4.25121C134.92 4.18476 135.099 4.15217 135.28 4.15533ZM134.253 9.0532H136.285V18.56H134.253V9.0532Z" fill="#F8F9FB"/>
  <path d="M147.174 18.5598H145.149V12.8858C145.149 11.57 144.316 10.6793 143.079 10.6793C141.842 10.6793 140.911 11.5891 140.911 12.8858V18.5598H138.878V9.05304H140.775V9.98199C141.142 9.6017 141.585 9.30339 142.076 9.10666C142.566 8.90993 143.093 8.81922 143.621 8.8405C145.847 8.8405 147.184 10.3497 147.184 12.616L147.174 18.5598Z" fill="#F8F9FB"/>
  <path d="M159 9.05308V17.5712C159 20.573 157.123 22.2566 154.238 22.2566C152.541 22.266 150.905 21.6211 149.67 20.456L150.792 19.0423C151.857 19.8948 152.825 20.3963 154.121 20.3963C155.845 20.3963 156.968 19.4673 156.968 17.6859V17.01C156.251 17.8817 155.072 18.3664 153.754 18.3664C151.1 18.3664 149.125 16.3724 149.125 13.6047C149.125 10.8369 151.119 8.84055 153.746 8.84055C155.198 8.84055 156.419 9.42084 157.116 10.4095V9.05308H159ZM154.121 10.6602C153.733 10.6476 153.347 10.7154 152.986 10.8593C152.626 11.0032 152.299 11.2202 152.026 11.4964C151.753 11.7727 151.541 12.1024 151.402 12.4648C151.262 12.8272 151.2 13.2145 151.217 13.6023C151.2 14.0015 151.266 14.4 151.409 14.773C151.552 15.146 151.771 15.4855 152.051 15.7706C152.604 16.2865 153.33 16.5766 154.086 16.5837C154.843 16.5907 155.574 16.3143 156.137 15.8089C156.698 15.2859 156.989 14.5504 156.989 13.5832C156.977 11.6465 155.678 10.6602 154.112 10.6602H154.121Z" fill="#F8F9FB"/>
  <path d="M40.4123 30.6435H39.4094V25.3659H37.604V24.5062H42.2249V25.3659H40.4195L40.4123 30.6435Z" fill="#62AD8F"/>
  <path d="M45.4079 25.9152C45.573 25.9124 45.7378 25.9268 45.8999 25.9582L45.8044 26.8776C45.6612 26.8437 45.5145 26.8269 45.3673 26.8275C45.1899 26.8212 45.0131 26.8524 44.8485 26.9191C44.6839 26.9857 44.5352 27.0863 44.4121 27.2143C44.1615 27.4867 44.0292 27.8475 44.0444 28.2173V30.6436H43.0581V25.9988H43.8294L43.9584 26.8179H44.0085C44.1526 26.5518 44.3602 26.3255 44.6127 26.1588C44.8479 26.0008 45.1246 25.916 45.4079 25.9152Z" fill="#62AD8F"/>
  <path d="M49.6634 30.6435L49.4652 29.9963H49.4317C49.255 30.2395 49.0235 30.4375 48.7559 30.5743C48.4784 30.6854 48.1807 30.7375 47.8819 30.7271C47.4911 30.7499 47.1072 30.6168 46.8144 30.3569C46.6813 30.2188 46.5783 30.0545 46.5121 29.8744C46.446 29.6943 46.418 29.5025 46.4299 29.311C46.4177 29.0997 46.4603 28.8888 46.5536 28.6989C46.6469 28.5089 46.7878 28.3463 46.9625 28.2268C47.3175 27.9832 47.8588 27.8503 48.5863 27.828L49.3887 27.8017V27.5629C49.4077 27.3224 49.3333 27.0838 49.181 26.8967C49.0945 26.8175 48.9926 26.757 48.8816 26.7192C48.7706 26.6814 48.653 26.667 48.5362 26.677C48.3037 26.676 48.0724 26.7115 47.8508 26.782C47.6357 26.8478 47.4251 26.9276 47.2204 27.0208L46.9004 26.3044C47.1618 26.1691 47.4395 26.068 47.7267 26.0035C48.0045 25.9376 48.2889 25.9032 48.5744 25.9009C49.052 25.8662 49.5263 26.0034 49.9117 26.2877C50.2126 26.5456 50.3631 26.95 50.3631 27.5008V30.6292L49.6634 30.6435ZM48.1947 29.9701C48.5101 29.9849 48.8191 29.877 49.0568 29.6692C49.1691 29.561 49.2568 29.43 49.3141 29.285C49.3713 29.1399 49.3968 28.9843 49.3887 28.8286V28.425L48.7917 28.4513C48.4384 28.4416 48.0887 28.5239 47.7768 28.6901C47.6732 28.7592 47.5894 28.8542 47.5337 28.9656C47.478 29.077 47.4524 29.201 47.4592 29.3253C47.4541 29.4134 47.4679 29.5016 47.4996 29.5839C47.5313 29.6663 47.5802 29.7409 47.6431 29.8029C47.7995 29.9259 47.9964 29.9855 48.1947 29.9701Z" fill="#62AD8F"/>
  <path d="M52.8039 30.6434L51.0415 26.0011H52.0827L53.0379 28.6996C53.1747 29.055 53.2732 29.4241 53.3316 29.8004H53.3651C53.4345 29.4265 53.5327 29.0584 53.6588 28.6996L54.614 26.0011H55.6624L53.8904 30.6434H52.8039Z" fill="#62AD8F"/>
  <path d="M58.3751 30.727C58.0644 30.7446 57.7535 30.6975 57.462 30.5885C57.1705 30.4796 56.9049 30.3112 56.6819 30.0942C56.4702 29.8584 56.3076 29.5828 56.2034 29.2835C56.0993 28.9842 56.0558 28.6672 56.0754 28.3509C56.0374 27.7053 56.239 27.0685 56.6413 26.5623C56.8361 26.3448 57.0769 26.1736 57.3463 26.0612C57.6157 25.9488 57.9068 25.8981 58.1984 25.9127C58.466 25.8988 58.7336 25.9413 58.9838 26.0376C59.2339 26.1339 59.461 26.2817 59.6503 26.4715C60.0235 26.893 60.2149 27.445 60.1828 28.007V28.5396H57.0784C57.0666 28.9192 57.1969 29.2896 57.4437 29.5783C57.5709 29.7034 57.7229 29.8003 57.8899 29.8629C58.057 29.9254 58.2353 29.9521 58.4133 29.9413C58.6709 29.9427 58.9279 29.9163 59.1798 29.8625C59.4418 29.8023 59.697 29.7159 59.9416 29.6046V30.407C59.7092 30.5173 59.4636 30.5976 59.2109 30.6458C58.9354 30.699 58.6556 30.7262 58.3751 30.727ZM58.1936 26.6673C58.0538 26.661 57.9144 26.6843 57.7843 26.7358C57.6542 26.7872 57.5366 26.8656 57.439 26.9658C57.2321 27.2096 57.1127 27.5156 57.0999 27.8351H59.2061C59.2238 27.5204 59.1252 27.2102 58.9291 26.9634C58.8353 26.8634 58.721 26.7848 58.5941 26.7329C58.4672 26.681 58.3306 26.657 58.1936 26.6625V26.6673Z" fill="#62AD8F"/>
  <path d="M62.2841 30.6434H61.2979V24.1097H62.2841V30.6434Z" fill="#62AD8F"/>
  <path d="M69.8426 30.6433L69.2289 28.9382H66.8814L66.282 30.6433H65.2241L67.5214 24.4821H68.6128L70.91 30.6433H69.8426ZM68.971 28.0738L68.3954 26.4021C68.354 26.2907 68.2959 26.1148 68.2211 25.8744C68.1463 25.634 68.0953 25.4581 68.0683 25.3466C67.9813 25.7297 67.8705 26.1069 67.7363 26.4762L67.1823 28.0761L68.971 28.0738Z" fill="#62AD8F"/>
  <path d="M75.5354 25.9987V26.5408L74.7425 26.6889C74.8217 26.7987 74.883 26.9204 74.924 27.0495C74.9722 27.1959 74.9964 27.3491 74.9957 27.5032C75.0057 27.7168 74.9664 27.9299 74.8806 28.1258C74.7949 28.3217 74.6651 28.4952 74.5014 28.6327C74.1096 28.9264 73.6266 29.0719 73.1378 29.0435C73.0025 29.0447 72.8674 29.0335 72.7342 29.01C72.6448 29.0516 72.5681 29.1162 72.5119 29.1972C72.4556 29.2782 72.4219 29.3726 72.4142 29.4709C72.4129 29.5209 72.4261 29.5701 72.4525 29.6125C72.4788 29.655 72.517 29.6888 72.5623 29.7097C72.7367 29.7752 72.9233 29.8021 73.1091 29.7885H73.9187C74.334 29.7593 74.7467 29.8749 75.0864 30.1157C75.2229 30.2327 75.33 30.3801 75.3993 30.546C75.4685 30.7118 75.498 30.8916 75.4852 31.0709C75.4941 31.3132 75.4387 31.5535 75.3246 31.7674C75.2105 31.9813 75.0418 32.1612 74.8357 32.2888C74.4026 32.5738 73.7762 32.7163 72.9563 32.7163C72.4514 32.7474 71.9484 32.6304 71.5091 32.3796C71.3501 32.2775 71.2203 32.1357 71.1328 31.9682C71.0453 31.8007 71.003 31.6132 71.01 31.4244C71.0035 31.1596 71.1003 30.9026 71.2799 30.7079C71.4855 30.4994 71.7494 30.3578 72.0369 30.302C71.9047 30.2455 71.7919 30.1517 71.7121 30.0321C71.6298 29.918 71.5848 29.7812 71.5832 29.6405C71.5786 29.4803 71.6311 29.3238 71.7312 29.1987C71.856 29.0565 72.0037 28.9363 72.1682 28.8429C71.9261 28.7379 71.7219 28.5612 71.5832 28.3366C71.4299 28.0905 71.3519 27.805 71.3587 27.5151C71.3463 27.2968 71.3828 27.0786 71.4654 26.8761C71.548 26.6737 71.6747 26.4923 71.8363 26.345C72.2233 26.0451 72.7066 25.8973 73.1951 25.9295C73.3332 25.9296 73.4712 25.9384 73.6082 25.9557C73.7176 25.968 73.8261 25.9871 73.933 26.013L75.5354 25.9987ZM71.8864 31.3623C71.8839 31.4628 71.9093 31.562 71.96 31.6489C72.0106 31.7358 72.0843 31.8068 72.173 31.8542C72.4221 31.982 72.7006 32.0413 72.9802 32.0261C73.392 32.0487 73.8028 31.9665 74.1742 31.7873C74.2905 31.7318 74.3889 31.645 74.4585 31.5365C74.5281 31.4281 74.5661 31.3024 74.5682 31.1736C74.5752 31.0889 74.5585 31.0039 74.5202 30.928C74.4818 30.8522 74.4232 30.7884 74.3509 30.7438C74.0967 30.6375 73.8208 30.5933 73.5461 30.6148H72.7987C72.5581 30.6017 72.3204 30.6717 72.1253 30.813C72.0443 30.8792 71.9803 30.9638 71.9388 31.0598C71.8972 31.1558 71.8793 31.2603 71.8864 31.3647V31.3623ZM72.3139 27.5032C72.2978 27.7477 72.3784 27.9887 72.5384 28.1742C72.6233 28.2567 72.7245 28.3206 72.8355 28.3617C72.9466 28.4028 73.065 28.4203 73.1832 28.413C73.7547 28.413 74.0405 28.1082 74.0405 27.4984C74.0568 27.2471 73.9812 26.9985 73.8279 26.7987C73.7448 26.7138 73.6438 26.6483 73.5323 26.607C73.4208 26.5657 73.3016 26.5496 73.1832 26.5599C73.0641 26.5507 72.9444 26.5673 72.8323 26.6085C72.7203 26.6497 72.6184 26.7146 72.5336 26.7987C72.3754 26.9981 72.2971 27.2492 72.3139 27.5032Z" fill="#62AD8F"/>
  <path d="M78.4228 30.7269C78.1121 30.7446 77.8012 30.6974 77.5097 30.5885C77.2182 30.4795 76.9526 30.3112 76.7296 30.0941C76.5174 29.859 76.354 29.584 76.249 29.2851C76.1441 28.9862 76.0996 28.6694 76.1183 28.3532C76.0804 27.7077 76.2819 27.0708 76.6843 26.5646C76.879 26.3471 77.1198 26.1759 77.3892 26.0635C77.6586 25.9511 77.9497 25.9004 78.2413 25.915C78.5089 25.9011 78.7765 25.9437 79.0267 26.0399C79.2768 26.1362 79.5039 26.284 79.6932 26.4738C80.0664 26.8953 80.2579 27.4473 80.2257 28.0093V28.5419H77.1213C77.1095 28.9215 77.2398 29.2919 77.4866 29.5807C77.6138 29.7057 77.7658 29.8027 77.9328 29.8652C78.0999 29.9277 78.2782 29.9544 78.4562 29.9436C78.7138 29.945 78.9708 29.9186 79.2228 29.8648C79.4847 29.8046 79.7399 29.7182 79.9845 29.6069V30.4093C79.7521 30.5196 79.5065 30.5999 79.2538 30.6481C78.9798 30.7002 78.7016 30.7266 78.4228 30.7269ZM78.2413 26.6673C78.1015 26.6609 77.9621 26.6843 77.832 26.7357C77.7019 26.7872 77.5842 26.8656 77.4866 26.9658C77.2798 27.2096 77.1604 27.5155 77.1475 27.835H79.2538C79.2715 27.5203 79.1729 27.2101 78.9768 26.9634C78.8832 26.8637 78.7694 26.7852 78.6429 26.7333C78.5164 26.6814 78.3803 26.6572 78.2437 26.6625L78.2413 26.6673Z" fill="#62AD8F"/>
  <path d="M85.4341 30.6436H84.4431V27.778C84.4644 27.4935 84.3877 27.2104 84.2258 26.9756C84.1393 26.8821 84.0326 26.8096 83.9138 26.7637C83.795 26.7177 83.6673 26.6996 83.5404 26.7105C83.3696 26.696 83.1978 26.722 83.0389 26.7863C82.88 26.8506 82.7385 26.9515 82.6258 27.0807C82.4332 27.3274 82.3368 27.7406 82.3368 28.32V30.6341H81.3506V25.9989H82.1219L82.2604 26.6078H82.3106C82.4555 26.3829 82.663 26.2053 82.9076 26.0968C83.1764 25.9735 83.4692 25.9115 83.7649 25.9153C84.8793 25.9153 85.4365 26.4821 85.4365 27.6156L85.4341 30.6436Z" fill="#62AD8F"/>
  <path d="M88.679 30.7272C87.9769 30.7272 87.4428 30.5219 87.0767 30.1111C86.7105 29.7004 86.5282 29.1137 86.5298 28.3511C86.5298 27.571 86.7208 26.9708 87.1029 26.5505C87.485 26.1302 88.0366 25.9201 88.7578 25.9201C89.2135 25.9126 89.6651 26.0056 90.0808 26.1923L89.7823 26.9852C89.4554 26.8448 89.106 26.7639 88.7507 26.7464C87.9547 26.7464 87.5567 27.2797 87.5567 28.3463C87.5272 28.7595 87.6328 29.171 87.8575 29.5189C87.9616 29.6502 88.0959 29.7544 88.2489 29.8226C88.4019 29.8908 88.5691 29.9209 88.7363 29.9105C89.1732 29.9112 89.6027 29.7984 89.9829 29.5833V30.443C89.8078 30.546 89.6176 30.6209 89.4193 30.6651C89.1756 30.7129 88.9273 30.7337 88.679 30.7272Z" fill="#62AD8F"/>
  <path d="M90.3584 25.9988H91.433L92.3882 28.6256C92.5223 28.9667 92.6184 29.3214 92.6748 29.6835H92.7082C92.7421 29.4936 92.7884 29.3062 92.8467 29.1223C92.9136 28.9026 93.2686 27.8598 93.9118 25.994H94.9769L92.9924 31.2477C92.631 32.2124 92.0292 32.6948 91.187 32.6948C90.9725 32.6951 90.7586 32.6711 90.5494 32.6232V31.8423C90.7166 31.8778 90.8872 31.8946 91.0581 31.8925C91.5357 31.8925 91.87 31.617 92.0611 31.0662L92.233 30.6292L90.3584 25.9988Z" fill="#62AD8F"/>
</svg>
