<svg width="14" height="14" viewBox="0 0 14 14" fill="none" xmlns="http://www.w3.org/2000/svg">
  <path d="M7 0C5.61553 0 4.26215 0.410543 3.11101 1.17971C1.95987 1.94888 1.06266 3.04213 0.532846 4.32121C0.00303297 5.6003 -0.13559 7.00776 0.134506 8.36563C0.404603 9.7235 1.07129 10.9708 2.05026 11.9497C3.02922 12.9287 4.2765 13.5954 5.63437 13.8655C6.99224 14.1356 8.3997 13.997 9.67878 13.4672C10.9579 12.9373 12.0511 12.0401 12.8203 10.889C13.5895 9.73784 14 8.38447 14 7C14 5.14348 13.2625 3.36301 11.9497 2.05025C10.637 0.737498 8.85652 0 7 0V0ZM9.63053 4.3621C9.80395 4.3621 9.97348 4.41353 10.1177 4.50988C10.2619 4.60623 10.3743 4.74317 10.4406 4.90339C10.507 5.06361 10.5244 5.23992 10.4905 5.41001C10.4567 5.5801 10.3732 5.73634 10.2505 5.85897C10.1279 5.9816 9.97168 6.06511 9.80159 6.09894C9.6315 6.13277 9.4552 6.11541 9.29497 6.04904C9.13475 5.98268 8.99781 5.87029 8.90146 5.72609C8.80511 5.5819 8.75368 5.41237 8.75368 5.23895C8.75368 5.00639 8.84607 4.78336 9.01051 4.61892C9.17495 4.45448 9.39797 4.3621 9.63053 4.3621ZM4.38421 4.3621C4.557 4.36356 4.7255 4.41604 4.86857 4.51294C5.01163 4.60985 5.12287 4.74687 5.18832 4.90678C5.25377 5.0667 5.27051 5.24239 5.23644 5.41179C5.20238 5.58119 5.11902 5.73675 4.99683 5.85893C4.87465 5.98112 4.71909 6.06448 4.54969 6.09855C4.38029 6.13261 4.2046 6.11587 4.04468 6.05042C3.88476 5.98497 3.74775 5.87373 3.65084 5.73067C3.55394 5.5876 3.50146 5.4191 3.5 5.24631C3.49903 5.13055 3.52099 5.01573 3.56462 4.9085C3.60825 4.80126 3.67268 4.70373 3.7542 4.62152C3.83572 4.53932 3.93271 4.47407 4.03958 4.42955C4.14645 4.38502 4.26107 4.3621 4.37684 4.3621H4.38421ZM11.5021 9.6821C11.0383 10.4607 10.3803 11.1056 9.59233 11.5534C8.8044 12.0012 7.91366 12.2366 7.00737 12.2366C6.10108 12.2366 5.21034 12.0012 4.42241 11.5534C3.63448 11.1056 2.9764 10.4607 2.51263 9.6821C2.45563 9.58638 2.42487 9.47733 2.42345 9.36593C2.42203 9.25453 2.45 9.14473 2.50455 9.04759C2.5591 8.95045 2.63829 8.86941 2.73414 8.81263C2.83 8.75586 2.93913 8.72536 3.05053 8.72421C3.15753 8.72441 3.26265 8.75235 3.35563 8.8053C3.44861 8.85825 3.52628 8.93439 3.58105 9.02631C3.93282 9.6221 4.43385 10.1159 5.03471 10.4589C5.63557 10.8019 6.31549 10.9823 7.00737 10.9823C7.69925 10.9823 8.37917 10.8019 8.98003 10.4589C9.58089 10.1159 10.0819 9.6221 10.4337 9.02631C10.4885 8.93439 10.5661 8.85825 10.6591 8.8053C10.7521 8.75235 10.8572 8.72441 10.9642 8.72421C11.075 8.72663 11.1832 8.75805 11.278 8.81535C11.3729 8.87264 11.451 8.95379 11.5047 9.05072C11.5584 9.14765 11.5857 9.25696 11.584 9.36774C11.5822 9.47853 11.5515 9.58692 11.4947 9.6821H11.5021Z" fill="#62AD8F"/>
</svg>
