<svg width="13" height="16" viewBox="0 0 13 16" fill="none" xmlns="http://www.w3.org/2000/svg">
  <path d="M12.8367 6.19761C12.7784 4.53423 12.0767 2.95843 10.8794 1.80229C9.68211 0.646157 8.08272 0 6.41833 0C4.75394 0 3.15455 0.646157 1.95724 1.80229C0.759929 2.95843 0.0582208 4.53423 0 6.19761C0.000843703 8.27914 0.608888 10.3152 1.74962 12.0563C2.89036 13.7975 4.51423 15.168 6.42226 16C8.32881 15.1668 9.95104 13.7958 11.0903 12.0547C12.2296 10.3137 12.8365 8.27826 12.8367 6.19761ZM6.42226 10.4424C5.58116 10.4424 4.75894 10.193 4.05959 9.72572C3.36024 9.25843 2.81517 8.59425 2.49329 7.81718C2.17142 7.0401 2.0872 6.18503 2.25129 5.36009C2.41538 4.53515 2.82041 3.77739 3.41516 3.18264C4.00991 2.5879 4.76766 2.18287 5.5926 2.01878C6.41754 1.85469 7.27261 1.9389 8.04969 2.26078C8.82677 2.58265 9.49094 3.12773 9.95823 3.82708C10.4255 4.52643 10.6749 5.34864 10.6749 6.18974C10.6749 6.74822 10.5649 7.30122 10.3512 7.81718C10.1375 8.33313 9.82426 8.80195 9.42936 9.19685C9.03446 9.59174 8.56565 9.90499 8.04969 10.1187C7.53373 10.3324 6.98073 10.4424 6.42226 10.4424Z" fill="#8B8B8B"/>
</svg>
