<svg width="16" height="16" viewBox="0 0 16 16" fill="none" xmlns="http://www.w3.org/2000/svg">
  <g clip-path="url(#clip0)">
    <path d="M5.91 8.00016L5 11.0002L8 10.0902C8.06413 10.0715 8.12257 10.0372 8.17 9.99016L13.38 4.78016L11.22 2.66016L6 7.87016C5.96165 7.90707 5.93105 7.95127 5.91 8.00016Z" fill="#8B8B8B"/>
    <path d="M11.9302 1.99982L14.0002 4.06982L15.8402 2.22982C15.878 2.1926 15.908 2.14823 15.9285 2.09931C15.949 2.05038 15.9595 1.99786 15.9595 1.94482C15.9595 1.89178 15.949 1.83926 15.9285 1.79033C15.908 1.7414 15.878 1.69704 15.8402 1.65982L14.3302 0.119819C14.293 0.0820255 14.2486 0.0520118 14.1997 0.0315252C14.1507 0.0110386 14.0982 0.000488281 14.0452 0.000488281C13.9921 0.000488281 13.9396 0.0110386 13.8907 0.0315252C13.8418 0.0520118 13.7974 0.0820255 13.7602 0.119819L11.9302 1.99982Z" fill="#8B8B8B"/>
    <path d="M14 8.40001V13.7C14 13.7394 13.9922 13.7784 13.9772 13.8148C13.9621 13.8512 13.94 13.8843 13.9121 13.9121C13.8843 13.94 13.8512 13.9621 13.8148 13.9772C13.7784 13.9923 13.7394 14 13.7 14H2.27C2.2306 14 2.19159 13.9923 2.15519 13.9772C2.1188 13.9621 2.08573 13.94 2.05787 13.9121C2.03001 13.8843 2.00791 13.8512 1.99284 13.8148C1.97776 13.7784 1.97 13.7394 1.97 13.7V2.32001C1.97 2.28062 1.97776 2.24161 1.99284 2.20521C2.00791 2.16881 2.03001 2.13574 2.05787 2.10788C2.08573 2.08002 2.1188 2.05792 2.15519 2.04285C2.19159 2.02777 2.2306 2.02001 2.27 2.02001H7.6C7.70609 2.02001 7.80783 1.97787 7.88284 1.90286C7.95786 1.82784 8 1.7261 8 1.62001V0.450012C8.00713 0.393444 8.00208 0.336005 7.9852 0.281547C7.96831 0.227088 7.93998 0.176869 7.9021 0.134254C7.86422 0.0916403 7.81767 0.0576165 7.76557 0.0344639C7.71346 0.0113112 7.65701 -0.000435094 7.6 1.23171e-05H0.4C0.293913 1.23171e-05 0.192172 0.042155 0.117157 0.11717C0.0421427 0.192184 0 0.293926 0 0.400012L0 15.58C0 15.6861 0.0421427 15.7878 0.117157 15.8629C0.192172 15.9379 0.293913 15.98 0.4 15.98H15.6C15.7061 15.98 15.8078 15.9379 15.8828 15.8629C15.9579 15.7878 16 15.6861 16 15.58V8.40001C16 8.29393 15.9579 8.19218 15.8828 8.11717C15.8078 8.04216 15.7061 8.00001 15.6 8.00001H14.43C14.375 7.99588 14.3197 8.00316 14.2677 8.0214C14.2157 8.03964 14.1679 8.06845 14.1276 8.10601C14.0872 8.14358 14.055 8.18908 14.033 8.23968C14.0111 8.29027 13.9998 8.34486 14 8.40001Z" fill="#8B8B8B"/>
  </g>
  <defs>
    <clipPath id="clip0">
      <rect width="16" height="15.98" fill="white"/>
    </clipPath>
  </defs>
</svg>
