<svg width="95" height="90" viewBox="0 0 95 90" fill="none" xmlns="http://www.w3.org/2000/svg">
  <path d="M58.2091 73.762C66.1545 72.2649 71.7394 66.5067 74.9636 56.4875C76.5758 51.5355 77.3818 46.6411 77.3818 41.8042C77.3818 41.2284 77.3818 40.7102 77.3818 40.2495C77.2667 39.904 77.1515 39.0403 77.0364 37.6583L58.2091 37.6584L58.2091 3.21636e-06L95 0L95 34.7217C95 51.7658 91.603 64.8944 84.8091 74.1075C78.0152 83.3205 69.1485 88.618 58.2091 90L58.2091 73.762ZM-1.41957e-06 73.762C6.33333 72.7255 11.1697 69.1555 14.5091 63.0518C17.7333 56.9482 19.3455 49.9232 19.3455 41.977C19.3455 41.286 19.3455 40.595 19.3455 39.904C19.2303 39.2131 19.0576 38.4645 18.8273 37.6584L-4.57585e-06 37.6584L-7.86805e-06 8.30516e-06L36.9636 5.0737e-06L36.9636 34.7217C36.9636 48.4261 34.0848 60.6334 28.3273 71.3436C22.5697 82.1689 13.1273 88.3877 0 90L-1.41957e-06 73.762Z" fill="#62AD8F" fill-opacity="0.2"/>
</svg>
