<svg width="16" height="16" viewBox="0 0 16 16" fill="none" xmlns="http://www.w3.org/2000/svg">
  <path d="M9.59994 0H6.39994C6.17903 0 5.99994 0.179086 5.99994 0.4V0.59C5.99994 0.810914 6.17903 0.99 6.39994 0.99H9.59994C9.82085 0.99 9.99994 0.810914 9.99994 0.59V0.4C9.99994 0.179086 9.82085 0 9.59994 0Z" fill="#F8F9FB"/>
  <path d="M-6.10352e-05 2.4V15.6C-6.10352e-05 15.7061 0.0420817 15.8078 0.117096 15.8828C0.192111 15.9579 0.293852 16 0.399939 16H3.99994V10.39C3.99994 10.2839 4.04208 10.1822 4.1171 10.1072C4.19211 10.0321 4.29385 9.99 4.39994 9.99H7.10994C7.21603 9.99 7.31777 10.0321 7.39278 10.1072C7.4678 10.1822 7.50994 10.2839 7.50994 10.39V16H8.50994V10.39C8.50994 10.2839 8.55208 10.1822 8.6271 10.1072C8.70211 10.0321 8.80385 9.99 8.90994 9.99H11.6399C11.6925 9.99 11.7445 10.0003 11.793 10.0204C11.8415 10.0405 11.8856 10.07 11.9228 10.1072C11.9599 10.1443 11.9894 10.1884 12.0095 10.2369C12.0296 10.2855 12.0399 10.3375 12.0399 10.39V16H15.5999C15.706 16 15.8078 15.9579 15.8828 15.8828C15.9578 15.8078 15.9999 15.7061 15.9999 15.6V2.4C15.9999 2.29391 15.9578 2.19217 15.8828 2.11716C15.8078 2.04214 15.706 2 15.5999 2H0.399939C0.293852 2 0.192111 2.04214 0.117096 2.11716C0.0420817 2.19217 -6.10352e-05 2.29391 -6.10352e-05 2.4H-6.10352e-05ZM2.59994 7H1.39994C1.29385 7 1.19211 6.95786 1.1171 6.88284C1.04208 6.80783 0.999939 6.70609 0.999939 6.6V4.4C0.999939 4.29391 1.04208 4.19217 1.1171 4.11716C1.19211 4.04214 1.29385 4 1.39994 4H2.59994C2.70603 4 2.80777 4.04214 2.88278 4.11716C2.9578 4.19217 2.99994 4.29391 2.99994 4.4V6.59C3.00127 6.64336 2.99191 6.69646 2.97241 6.74615C2.95291 6.79584 2.92365 6.84112 2.88638 6.87933C2.8491 6.91754 2.80455 6.9479 2.75536 6.96862C2.70616 6.98935 2.65332 7.00002 2.59994 7ZM5.59994 7H4.39994C4.29385 7 4.19211 6.95786 4.1171 6.88284C4.04208 6.80783 3.99994 6.70609 3.99994 6.6V4.4C3.99994 4.29391 4.04208 4.19217 4.1171 4.11716C4.19211 4.04214 4.29385 4 4.39994 4H5.59994C5.70603 4 5.80777 4.04214 5.88278 4.11716C5.9578 4.19217 5.99994 4.29391 5.99994 4.4V6.59C6.00127 6.64336 5.99191 6.69646 5.97241 6.74615C5.95291 6.79584 5.92365 6.84112 5.88638 6.87933C5.8491 6.91754 5.80455 6.9479 5.75536 6.96862C5.70616 6.98935 5.65332 7.00002 5.59994 7ZM8.59994 7H7.39994C7.29385 7 7.19211 6.95786 7.1171 6.88284C7.04208 6.80783 6.99994 6.70609 6.99994 6.6V4.4C6.99994 4.29391 7.04208 4.19217 7.1171 4.11716C7.19211 4.04214 7.29385 4 7.39994 4H8.59994C8.70603 4 8.80777 4.04214 8.88278 4.11716C8.9578 4.19217 8.99994 4.29391 8.99994 4.4V6.59C9.00127 6.64336 8.99191 6.69646 8.97241 6.74615C8.95291 6.79584 8.92365 6.84112 8.88638 6.87933C8.8491 6.91754 8.80455 6.9479 8.75536 6.96862C8.70616 6.98935 8.65332 7.00002 8.59994 7ZM11.5999 7H10.3999C10.2939 7 10.1921 6.95786 10.1171 6.88284C10.0421 6.80783 9.99994 6.70609 9.99994 6.6V4.4C9.99994 4.29391 10.0421 4.19217 10.1171 4.11716C10.1921 4.04214 10.2939 4 10.3999 4H11.5999C11.706 4 11.8078 4.04214 11.8828 4.11716C11.9578 4.19217 11.9999 4.29391 11.9999 4.4V6.59C12.0013 6.64336 11.9919 6.69646 11.9724 6.74615C11.9529 6.79584 11.9237 6.84112 11.8864 6.87933C11.8491 6.91754 11.8046 6.9479 11.7554 6.96862C11.7062 6.98935 11.6533 7.00002 11.5999 7ZM14.5999 7H13.3999C13.2939 7 13.1921 6.95786 13.1171 6.88284C13.0421 6.80783 12.9999 6.70609 12.9999 6.6V4.4C12.9999 4.29391 13.0421 4.19217 13.1171 4.11716C13.1921 4.04214 13.2939 4 13.3999 4H14.5999C14.706 4 14.8078 4.04214 14.8828 4.11716C14.9578 4.19217 14.9999 4.29391 14.9999 4.4V6.59C15.0013 6.64336 14.9919 6.69646 14.9724 6.74615C14.9529 6.79584 14.9237 6.84112 14.8864 6.87933C14.8491 6.91754 14.8046 6.9479 14.7554 6.96862C14.7062 6.98935 14.6533 7.00002 14.5999 7Z" fill="#F8F9FB"/>
</svg>
