<svg width="146" height="19" viewBox="0 0 146 19" fill="none" xmlns="http://www.w3.org/2000/svg">
  <g clip-path="url(#clip0)">
    <path d="M0.5 5.51997C3.0925 3.56335 6.25201 2.50488 9.5 2.50488C12.748 2.50488 15.9075 3.56335 18.5 5.51997" stroke="#62AD8F" stroke-linecap="round" stroke-linejoin="round"/>
    <path d="M3.20001 9.11991C5.01423 7.74903 7.2261 7.00732 9.50001 7.00732C11.7739 7.00732 13.9858 7.74903 15.8 9.11991" stroke="#62AD8F" stroke-linecap="round" stroke-linejoin="round"/>
    <path d="M5.89999 12.72C6.93857 11.9411 8.20177 11.52 9.49999 11.52C10.7982 11.52 12.0614 11.9411 13.1 12.72" stroke="#62AD8F" stroke-linecap="round" stroke-linejoin="round"/>
    <path d="M10.4 16.32C10.1417 16.1221 9.82539 16.0149 9.50001 16.0149C9.17462 16.0149 8.85831 16.1221 8.60001 16.32" stroke="#62AD8F" stroke-linecap="round" stroke-linejoin="round"/>
  </g>
  <path d="M33.5 0.5H35.15C35.3273 0.5 35.5028 0.534919 35.6666 0.602763C35.8304 0.670606 35.9792 0.770047 36.1046 0.895406C36.23 1.02076 36.3294 1.16959 36.3972 1.33338C36.4651 1.49717 36.5 1.67272 36.5 1.85V12.5" stroke="#62AD8F" stroke-linecap="round" stroke-linejoin="round"/>
  <path d="M41 0.5H42.65C43.008 0.5 43.3514 0.642232 43.6046 0.895406C43.8578 1.14858 44 1.49196 44 1.85V12.5" stroke="#62AD8F" stroke-linecap="round" stroke-linejoin="round"/>
  <path d="M36.5 3.5H44" stroke="#62AD8F" stroke-linecap="round" stroke-linejoin="round"/>
  <path d="M36.5 6.5H44" stroke="#62AD8F" stroke-linecap="round" stroke-linejoin="round"/>
  <path d="M36.5 9.5H44" stroke="#62AD8F" stroke-linecap="round" stroke-linejoin="round"/>
  <path d="M33.5 14C35 14 35 15.5 36.5 15.5C38 15.5 38 14 39.49 14C40.98 14 40.99 15.5 42.49 15.5C43.99 15.5 43.99 14 45.49 14C46.99 14 46.99 15.5 48.49 15.5C49.99 15.5 50 14 51.5 14" stroke="#62AD8F" stroke-linecap="round" stroke-linejoin="round"/>
  <path d="M33.5 17C35 17 35 18.5 36.5 18.5C38 18.5 38 17 39.49 17C40.98 17 40.99 18.5 42.49 18.5C43.99 18.5 43.99 17 45.49 17C46.99 17 46.99 18.5 48.49 18.5C49.99 18.5 50 17 51.5 17" stroke="#62AD8F" stroke-linecap="round" stroke-linejoin="round"/>
  <g clip-path="url(#clip1)">
    <path d="M67.5 0.5V5C67.5 5.79565 67.8161 6.55871 68.3787 7.12132C68.9413 7.68393 69.7044 8 70.5 8V8C71.2956 8 72.0587 7.68393 72.6213 7.12132C73.1839 6.55871 73.5 5.79565 73.5 5V0.5" stroke="#62AD8F" stroke-linecap="round" stroke-linejoin="round"/>
    <path d="M70.5 0.5V18.5" stroke="#62AD8F" stroke-linecap="round" stroke-linejoin="round"/>
    <path d="M81.02 8.01001V18.5" stroke="#62AD8F" stroke-linecap="round" stroke-linejoin="round"/>
    <path d="M81 11H78V5.36C78.0004 4.35144 78.2811 3.36285 78.8109 2.50463C79.3407 1.64642 80.0986 0.952367 81 0.5V0.5V11Z" stroke="#62AD8F" stroke-linecap="round" stroke-linejoin="round"/>
  </g>
  <path d="M113.49 0.5H101.51C99.8476 0.5 98.5 1.84762 98.5 3.51V15.49C98.5 17.1524 99.8476 18.5 101.51 18.5H113.49C115.152 18.5 116.5 17.1524 116.5 15.49V3.51C116.5 1.84762 115.152 0.5 113.49 0.5Z" stroke="#62AD8F" stroke-linecap="round" stroke-linejoin="round"/>
  <path d="M104.5 9.5H108.25C108.545 9.5 108.838 9.4418 109.111 9.32873C109.384 9.21566 109.632 9.04992 109.841 8.84099C110.05 8.63206 110.216 8.38402 110.329 8.11104C110.442 7.83805 110.5 7.54547 110.5 7.25V7.25C110.5 6.65326 110.263 6.08097 109.841 5.65901C109.419 5.23705 108.847 5 108.25 5H104.5V14" stroke="#62AD8F" stroke-linecap="round" stroke-linejoin="round"/>
  <path d="M145.5 2H143.85C143.492 2 143.149 2.14223 142.895 2.39541C142.642 2.64858 142.5 2.99196 142.5 3.35V14.59C142.5 15.627 142.088 16.6215 141.355 17.3548C140.622 18.0881 139.627 18.5 138.59 18.5C137.947 18.4996 137.314 18.3406 136.747 18.0371C136.18 17.7336 135.697 17.2949 135.34 16.76L133.5 14H142.5" stroke="#62AD8F" stroke-linecap="round" stroke-linejoin="round"/>
  <path d="M129.62 0.5C129.423 0.696895 129.266 0.930719 129.16 1.1881C129.053 1.44548 128.998 1.72138 128.998 2C128.998 2.27862 129.053 2.55452 129.16 2.8119C129.266 3.06928 129.423 3.30311 129.62 3.5V3.5C129.817 3.69689 129.974 3.93072 130.08 4.1881C130.187 4.44548 130.242 4.72138 130.242 5C130.242 5.27862 130.187 5.55452 130.08 5.8119C129.974 6.06928 129.817 6.30311 129.62 6.5" stroke="#62AD8F" stroke-linecap="round" stroke-linejoin="round"/>
  <path d="M134.12 0.5C133.923 0.696895 133.766 0.930719 133.66 1.1881C133.553 1.44548 133.498 1.72138 133.498 2C133.498 2.27862 133.553 2.55452 133.66 2.8119C133.766 3.06928 133.923 3.30311 134.12 3.5V3.5C134.317 3.69689 134.474 3.93072 134.58 4.1881C134.687 4.44548 134.742 4.72138 134.742 5C134.742 5.27862 134.687 5.55452 134.58 5.8119C134.474 6.06928 134.317 6.30311 134.12 6.5" stroke="#62AD8F" stroke-linecap="round" stroke-linejoin="round"/>
  <path d="M138.62 0.5C138.423 0.696895 138.266 0.930719 138.16 1.1881C138.053 1.44548 137.998 1.72138 137.998 2C137.998 2.27862 138.053 2.55452 138.16 2.8119C138.266 3.06928 138.423 3.30311 138.62 3.5V3.5C138.817 3.69689 138.974 3.93072 139.08 4.1881C139.187 4.44548 139.242 4.72138 139.242 5C139.242 5.27862 139.187 5.55452 139.08 5.8119C138.974 6.06928 138.817 6.30311 138.62 6.5" stroke="#62AD8F" stroke-linecap="round" stroke-linejoin="round"/>
  <path d="M131.94 18.5H127.5V9.5H138" stroke="#62AD8F" stroke-linecap="round" stroke-linejoin="round"/>
  <defs>
    <clipPath id="clip0">
      <rect width="19" height="14.82" fill="white" transform="translate(0 2)"/>
    </clipPath>
    <clipPath id="clip1">
      <rect width="14.52" height="19" fill="white" transform="translate(67)"/>
    </clipPath>
  </defs>
</svg>
