<svg width="32" height="30" viewBox="0 0 32 30" fill="none" xmlns="http://www.w3.org/2000/svg">
  <path d="M13.6776 15.5832C13.3417 15.5832 13.0283 15.7519 12.8432 16.0322L10.3062 19.8741C10.1276 20.1445 9.82516 20.3072 9.50108 20.3072C8.72437 20.3072 8.26604 19.4362 8.70589 18.796L11.218 15.1399C9.60939 14.6186 8.8051 13.5222 8.8051 11.8508C8.8051 10.7706 9.20437 9.94566 10.0029 9.37599C10.8015 8.80632 11.9763 8.52148 13.5274 8.52148H16.3105C16.8627 8.52148 17.3105 8.9692 17.3105 9.52148V19.3072C17.3105 19.8595 16.8627 20.3072 16.3105 20.3072H16.2423C15.69 20.3072 15.2423 19.8595 15.2423 19.3072V16.5832C15.2423 16.031 14.7946 15.5832 14.2423 15.5832H13.6776ZM15.2423 10.1338H13.605C12.7375 10.1338 12.0711 10.2789 11.6057 10.5691C11.1462 10.8539 10.9164 11.3215 10.9164 11.9717C10.9164 12.6059 11.1404 13.1003 11.5885 13.455C12.0366 13.8097 12.7318 13.9871 13.6739 13.9871H15.2423V10.1338Z" fill="#8B18FD"/>
  <circle cx="24.9904" cy="7" r="7" fill="#FBDE26"/>
  <path d="M24.3722 8.83203V8.51953C24.3722 8.16146 24.4373 7.86361 24.5675 7.62598C24.6977 7.38835 24.9256 7.14258 25.2511 6.88867C25.6385 6.58268 25.8875 6.34505 25.9982 6.17578C26.1121 6.00651 26.1691 5.80469 26.1691 5.57031C26.1691 5.29688 26.0779 5.08691 25.8956 4.94043C25.7133 4.79395 25.4513 4.7207 25.1095 4.7207C24.8003 4.7207 24.5138 4.76465 24.2501 4.85254C23.9865 4.94043 23.7293 5.04622 23.4786 5.16992L23.0685 4.31055C23.7293 3.94271 24.4373 3.75879 25.1925 3.75879C25.8305 3.75879 26.3367 3.91504 26.7111 4.22754C27.0854 4.54004 27.2726 4.97135 27.2726 5.52148C27.2726 5.76562 27.2368 5.98372 27.1652 6.17578C27.0935 6.36458 26.9845 6.54525 26.838 6.71777C26.6948 6.8903 26.4458 7.11491 26.0909 7.3916C25.7882 7.62923 25.5848 7.82617 25.4806 7.98242C25.3797 8.13867 25.3292 8.34863 25.3292 8.6123V8.83203H24.3722ZM24.172 10.3896C24.172 9.89811 24.4113 9.65234 24.8898 9.65234C25.1241 9.65234 25.3032 9.71745 25.4269 9.84766C25.5506 9.97461 25.6124 10.1553 25.6124 10.3896C25.6124 10.6208 25.549 10.8047 25.422 10.9414C25.2983 11.0749 25.1209 11.1416 24.8898 11.1416C24.6587 11.1416 24.4812 11.0765 24.3575 10.9463C24.2338 10.8128 24.172 10.6273 24.172 10.3896Z" fill="#202330"/>
  <path d="M18.0924 2.94566L15.9904 1.73207C14.134 0.660274 11.8468 0.660274 9.99038 1.73207L3 5.76797C1.14359 6.83977 0 8.82053 0 10.9641V19.0359C0 21.1795 1.14359 23.1603 3 24.2321L9.99038 28.268C11.8468 29.3398 14.134 29.3398 15.9904 28.268L22.9808 24.2321C24.8372 23.1603 25.9808 21.1795 25.9808 19.0359V14.9393C25.6563 14.9794 25.3257 15 24.9904 15C24.6484 15 24.3114 14.9786 23.9808 14.9369V19.0359C23.9808 20.465 23.2184 21.7855 21.9808 22.5L14.9904 26.5359C13.7528 27.2504 12.228 27.2504 10.9904 26.5359L4 22.5C2.7624 21.7855 2 20.465 2 19.0359V10.9641C2 9.53506 2.7624 8.21455 4 7.50002L10.9904 3.46412C12.228 2.74959 13.7528 2.74959 14.9904 3.46412L17.2978 4.79628C17.4851 4.14115 17.7538 3.52039 18.0924 2.94566Z" fill="#8B18FD"/>
</svg>
