<svg width="16" height="18" viewBox="0 0 16 18" fill="none" xmlns="http://www.w3.org/2000/svg">
  <path d="M15.8381 6.72478L8.27811 0.104776C8.19856 0.0371384 8.09754 0 7.99311 0C7.88869 0 7.78767 0.0371384 7.70811 0.104776L0.138114 6.72478C0.0747221 6.78454 0.0304981 6.86177 0.0110464 6.9467C-0.00840528 7.03162 -0.00220892 7.1204 0.0288502 7.2018C0.0599094 7.28319 0.114433 7.35354 0.185512 7.40392C0.256591 7.45429 0.341025 7.48243 0.428114 7.48478H1.42811V16.8648C1.42811 16.9815 1.47447 17.0934 1.55699 17.1759C1.6395 17.2584 1.75142 17.3048 1.86811 17.3048H5.80811V10.1048C5.80811 9.98808 5.85447 9.87616 5.93699 9.79365C6.0195 9.71113 6.13142 9.66478 6.24811 9.66478H9.72811C9.84481 9.66478 9.95673 9.71113 10.0392 9.79365C10.1218 9.87616 10.1681 9.98808 10.1681 10.1048V17.3048H14.0981C14.2148 17.3048 14.3267 17.2584 14.4092 17.1759C14.4918 17.0934 14.5381 16.9815 14.5381 16.8648V7.48478H15.5381C15.6261 7.48438 15.7119 7.45764 15.7845 7.40801C15.857 7.35838 15.9131 7.28813 15.9454 7.20633C15.9777 7.12454 15.9847 7.03494 15.9656 6.9491C15.9465 6.86327 15.9021 6.78513 15.8381 6.72478Z" fill="#62AD8F"/>
</svg>
