<svg width="17" height="23" viewBox="0 0 17 23" fill="none" xmlns="http://www.w3.org/2000/svg">
  <path d="M10.2341 2.04528L14.3277 6.13583L12.2809 8.1811L6.14043 2.04528C6.68328 1.50283 7.41955 1.19809 8.18726 1.19809C8.95497 1.19809 9.69123 1.50283 10.2341 2.04528Z" fill="#62AE90"/>
  <path d="M5.11679 3.06738L14.3261 12.2697C14.869 12.8122 15.1739 13.5479 15.1739 14.315C15.1739 15.0821 14.869 15.8178 14.3261 16.3603L3.06996 5.11266L5.11679 3.06738Z" fill="#146C53"/>
  <path d="M2.04681 6.13538L13.3044 17.3844L11.2575 19.4297L2.04681 10.2259C1.50396 9.68349 1.19899 8.94778 1.19899 8.18065C1.19899 7.41352 1.50396 6.67782 2.04681 6.13538Z" fill="#62AE90"/>
  <path d="M4.09317 14.3167L10.2337 20.4525C9.6908 20.9949 8.95454 21.2997 8.18683 21.2997C7.41912 21.2997 6.68285 20.9949 6.14 20.4525L2.04634 16.3619L4.09317 14.3167Z" fill="#146C53"/>
</svg>
