<svg width="20" height="13" viewBox="0 0 20 13" fill="none" xmlns="http://www.w3.org/2000/svg">
  <path d="M9.70494 7.88986L-6.10352e-05 0.734863V11.9999C-6.10352e-05 12.1325 0.0526174 12.2596 0.146386 12.3534C0.240154 12.4472 0.367331 12.4999 0.499939 12.4999H19.4999C19.6325 12.4999 19.7597 12.4472 19.8535 12.3534C19.9473 12.2596 19.9999 12.1325 19.9999 11.9999V0.734863L10.2949 7.88986C10.2093 7.95244 10.106 7.98616 9.99994 7.98616C9.89388 7.98616 9.79057 7.95244 9.70494 7.88986Z" fill="#F8F9FB"/>
  <path d="M1.18488 0L9.68488 6.21C9.77051 6.27257 9.87382 6.3063 9.97988 6.3063C10.0859 6.3063 10.1892 6.27257 10.2749 6.21L18.8149 0H1.18488Z" fill="#F8F9FB"/>
</svg>
