<svg width="278" height="64" viewBox="0 0 278 64" fill="none" xmlns="http://www.w3.org/2000/svg">
  <rect x="8" y="47" width="6" height="7" fill="#EEEEEE"/>
  <rect x="16" y="43" width="6" height="11" fill="#EEEEEE"/>
  <rect x="24" y="47" width="6" height="7" fill="#EEEEEE"/>
  <rect x="32" y="38" width="6" height="16" fill="#EEEEEE"/>
  <rect x="40" y="32" width="6" height="22" fill="#EEEEEE"/>
  <rect x="48" y="41" width="6" height="13" fill="#EEEEEE"/>
  <rect x="56" y="32" width="6" height="22" fill="#EEEEEE"/>
  <rect x="64" y="32" width="6" height="22" fill="#EEEEEE"/>
  <rect x="72" y="24" width="6" height="30" fill="#EEEEEE"/>
  <rect x="80" y="38" width="6" height="16" fill="#EEEEEE"/>
  <rect x="88" y="31" width="6" height="23" fill="#EEEEEE"/>
  <rect x="96" y="14" width="6" height="40" fill="#EEEEEE"/>
  <rect x="104" y="22" width="6" height="32" fill="#EEEEEE"/>
  <rect x="112" y="27" width="6" height="27" fill="#EEEEEE"/>
  <rect x="120" y="15" width="6" height="39" fill="#EEEEEE"/>
  <rect x="128" width="6" height="54" fill="#EEEEEE"/>
  <rect x="136" y="3" width="6" height="51" fill="#EEEEEE"/>
  <rect x="144" y="15" width="6" height="39" fill="#EEEEEE"/>
  <rect x="152" y="19" width="6" height="35" fill="#EEEEEE"/>
  <rect x="160" y="22" width="3" height="32" fill="#EEEEEE"/>
  <rect opacity="0.4" x="163" y="22" width="3" height="32" fill="#62AE90"/>
  <rect opacity="0.4" x="168" y="19" width="6" height="35" fill="#62AE90"/>
  <rect opacity="0.4" x="176" y="14" width="6" height="40" fill="#62AE90"/>
  <rect opacity="0.4" x="184" y="32" width="6" height="22" fill="#62AE90"/>
  <rect opacity="0.4" x="192" y="9" width="6" height="45" fill="#62AE90"/>
  <rect opacity="0.4" x="200" y="22" width="6" height="32" fill="#62AE90"/>
  <rect opacity="0.4" x="208" y="28" width="6" height="26" fill="#62AE90"/>
  <rect opacity="0.4" x="216" y="24" width="6" height="30" fill="#62AE90"/>
  <rect opacity="0.4" x="224" y="38" width="6" height="16" fill="#62AE90"/>
  <rect x="264" y="49" width="6" height="5" fill="#EEEEEE"/>
  <rect x="256" y="45" width="6" height="9" fill="#EEEEEE"/>
  <rect x="248" y="37" width="6" height="17" fill="#EEEEEE"/>
  <rect x="240" y="40" width="6" height="14" fill="#EEEEEE"/>
  <rect x="232" y="30" width="6" height="24" fill="#EEEEEE"/>
  <rect y="54" width="278" height="2" rx="1" fill="#E2E2E2"/>
  <rect x="164" y="54" width="64" height="2" rx="1" fill="#62AE90"/>
  <circle cx="167" cy="55" r="8" transform="rotate(-180 167 55)" fill="#62AE90" stroke="#F8F9FB" stroke-width="2"/>
  <circle cx="167" cy="55" r="4.5" transform="rotate(-180 167 55)" fill="#F8F9FB"/>
  <circle cx="227" cy="55" r="8" fill="#62AE90" stroke="#F8F9FB" stroke-width="2"/>
  <circle cx="227" cy="55" r="4.5" fill="#F8F9FB"/>
</svg>
