<svg width="277" height="86" viewBox="0 0 277 86" fill="none" xmlns="http://www.w3.org/2000/svg">
  <rect x="7" y="42" width="25" height="8" fill="#EEEEEE"/>
  <rect x="34" y="23" width="22" height="27" fill="#EEEEEE"/>
  <rect x="58" y="32" width="24" height="18" fill="#EEEEEE"/>
  <rect x="84" y="25" width="26" height="25" fill="#EEEEEE"/>
  <rect x="112" y="27" width="25" height="23" fill="#EEEEEE"/>
  <rect x="139" y="21" width="25" height="29" fill="#EEEEEE"/>
  <rect opacity="0.4" x="179" y="9" width="13" height="41" fill="#62AE90"/>
  <rect x="166" y="9" width="13" height="41" fill="#EEEEEE"/>
  <rect opacity="0.4" x="194" width="24" height="50" fill="#62AE90"/>
  <rect opacity="0.4" x="220" y="17" width="24" height="33" fill="#62AE90"/>
  <rect opacity="0.4" x="246" y="30" width="24" height="20" fill="#62AE90"/>
  <rect y="50" width="277" height="2" rx="1" fill="#E2E2E2"/>
  <rect x="213" y="50" width="46" height="2" rx="1" fill="#62AE90"/>
  <circle cx="213" cy="51" r="10" transform="rotate(-180 213 51)" fill="#62AE90" stroke="#F8F9FB" stroke-width="2"/>
  <circle cx="213" cy="51" r="5.5" transform="rotate(-180 213 51)" fill="#F8F9FB"/>
  <rect x="228" y="86" width="30" height="21" rx="6" transform="rotate(-180 228 86)" fill="#62AE90"/>
  <path d="M205.67 79L209.221 71.3301L204.551 71.3301L204.551 70.4336L210.252 70.4336L210.252 71.2129L206.748 79L205.67 79ZM211.758 78.3789C211.758 78.1172 211.816 77.9199 211.934 77.7871C212.055 77.6504 212.227 77.582 212.449 77.582C212.676 77.582 212.852 77.6504 212.977 77.7871C213.105 77.9199 213.17 78.1172 213.17 78.3789C213.17 78.6328 213.105 78.8281 212.977 78.9648C212.848 79.1016 212.672 79.1699 212.449 79.1699C212.25 79.1699 212.084 79.1094 211.951 78.9883C211.822 78.8633 211.758 78.6602 211.758 78.3789ZM217.33 73.7676C218.232 73.7676 218.941 73.9922 219.457 74.4414C219.977 74.8867 220.236 75.498 220.236 76.2754C220.236 77.1621 219.953 77.8574 219.387 78.3613C218.824 78.8652 218.047 79.1172 217.055 79.1172C216.09 79.1172 215.354 78.9629 214.846 78.6543L214.846 77.7168C215.119 77.8926 215.459 78.0312 215.865 78.1328C216.271 78.2305 216.672 78.2793 217.066 78.2793C217.754 78.2793 218.287 78.1172 218.666 77.793C219.049 77.4687 219.24 77 219.24 76.3867C219.24 75.1914 218.508 74.5937 217.043 74.5937C216.672 74.5937 216.176 74.6504 215.555 74.7637L215.051 74.4414L215.373 70.4336L219.633 70.4336L219.633 71.3301L216.205 71.3301L215.988 73.9023C216.438 73.8125 216.885 73.7676 217.33 73.7676Z" fill="#F8F9FB"/>
  <path d="M216 57C215.546 58.2924 215.308 59.6301 215.308 61C215.308 62.3699 215.546 63.7076 216 65L210 65C210.454 63.7076 210.692 62.3699 210.692 61C210.692 59.6301 210.454 58.2924 210 57L216 57Z" fill="#62AE90"/>
  <circle cx="259" cy="51" r="8" transform="rotate(-180 259 51)" fill="#62AE90" stroke="#F8F9FB" stroke-width="2"/>
  <circle cx="259" cy="51" r="4.5" transform="rotate(-180 259 51)" fill="#F8F9FB"/>
</svg>
