<svg width="49" height="49" viewBox="0 0 49 49" fill="none" xmlns="http://www.w3.org/2000/svg">
  <circle cx="24.5" cy="24.5" r="24.5" fill="#C4C4C4"/>
  <path d="M26.255 12H23.3831C21.8512 12 20.6094 13.3091 20.6094 14.924V17.9514C20.6094 19.5663 21.8512 20.8754 23.3831 20.8754H26.255C27.7869 20.8754 29.0287 19.5663 29.0287 17.9514V14.924C29.0287 13.3091 27.7869 12 26.255 12Z" fill="#E2E2E2"/>
  <path d="M29.0771 23.8513H20.5597C19.0852 23.8513 17.671 24.4688 16.6284 25.5679C15.5857 26.667 15 28.1578 15 29.7122L15 32.7008C15 33.4763 15.2922 34.22 15.8124 34.7684C16.3326 35.3167 17.0381 35.6248 17.7737 35.6248H31.8631C32.5987 35.6248 33.3042 35.3167 33.8244 34.7684C34.3446 34.22 34.6368 33.4763 34.6368 32.7008V29.7122C34.6368 28.1578 34.051 26.667 33.0084 25.5679C31.9658 24.4688 30.5516 23.8513 29.0771 23.8513Z" fill="#E2E2E2"/>
</svg>
