<svg width="975" height="491" viewBox="0 0 975 491" fill="none" xmlns="http://www.w3.org/2000/svg">
  <g opacity="0.1">
    <path opacity="0.5" d="M923.23 419.321C954.65 401.611 975.15 366.061 974.76 330.001C974.37 293.941 953.09 258.841 921.3 241.821C910.15 235.821 896.3 230.111 893.82 217.711C890.22 199.811 913.29 187.931 918.14 170.321C921.48 158.181 915.14 144.961 905.55 136.851C895.96 128.741 883.55 124.781 871.32 121.651C836.73 112.781 801.05 109.081 765.5 105.741C548.17 85.3411 325.24 78.1011 115.34 138.001C89.1699 145.451 58.4999 159.681 56.6099 186.831C54.6099 215.551 87.8099 241.721 77.0799 268.431C70.4999 284.771 51.0699 290.741 36.4999 300.621C26.8737 307.146 18.9582 315.892 13.4214 326.118C7.8845 336.345 4.8887 347.754 4.68672 359.381C4.48474 371.009 7.0825 382.515 12.2608 392.928C17.4392 403.341 25.0461 412.355 34.4399 419.211L923.23 419.321Z" fill="#62AE90"/>
  </g>
  <path d="M860 206H737V419H860V206Z" fill="#DAEAE5" stroke="#62AE90" stroke-miterlimit="10" stroke-linecap="round"/>
  <path d="M289.09 189.321H219.17V230.991H289.09V189.321Z" fill="#DAEAE5" stroke="#62AE90" stroke-miterlimit="10" stroke-linecap="round"/>
  <path d="M488 159H356V323H488V159Z" fill="#DAEAE5" stroke="#62AE90" stroke-miterlimit="10" stroke-linecap="round"/>
  <path d="M466.66 153.651H432.33V158.651H466.66V153.651Z" fill="#DAEAE5" stroke="#62AE90" stroke-miterlimit="10" stroke-linecap="round"/>
  <path d="M572 167H666V318H572V167Z" fill="#DAEAE5" stroke="#62AE90" stroke-miterlimit="10" stroke-linecap="round"/>
  <path d="M587 156H609V167H587V156Z" fill="#DAEAE5" stroke="#62AE90" stroke-miterlimit="10" stroke-linecap="round"/>
  <path d="M853.33 158.651H847.33V205.651H853.33V158.651Z" fill="#DAEAE5" stroke="#62AE90" stroke-miterlimit="10" stroke-linecap="round"/>
  <path d="M338.517 163.564V162.564H337.517H309.523V102.696V101.696H308.523H243.756H242.756V102.696V162.564H202.663L262.763 6.86889L263.288 5.50878H261.83H195.181H194.492L194.246 6.15203L120.066 200.405L120 200.577V200.762V217.67V218.67H121H242.756V254.491V255.491H243.756H308.523H309.523V254.491V218.67H337.517H338.517V217.67V163.564ZM807 163.564V162.564H806H778.006V102.696V101.696H777.006H712.239H711.239V102.696V162.564H671.146L731.246 6.86889L731.771 5.50878H730.313H663.664H662.975L662.729 6.15203L588.549 200.405L588.483 200.577V200.762V217.67V218.67H589.483H711.239V254.491V255.491H712.239H777.006H778.006V254.491V218.67H806H807V217.67V163.564ZM362.622 128.621C362.622 165.777 371.598 198.602 389.131 222.165C406.689 245.761 432.78 260 466.797 260C500.814 260 526.905 245.761 544.463 222.165C561.996 198.602 570.972 165.777 570.972 128.621C570.972 91.8417 562.089 59.9483 544.594 37.2253C527.073 14.4695 500.98 1 466.797 1C432.614 1 406.52 14.4695 389 37.2253C371.504 59.9483 362.622 91.8417 362.622 128.621ZM502.699 128.997C502.699 152.424 499.595 169.89 493.54 181.465C490.521 187.238 486.781 191.519 482.349 194.36C477.922 197.198 472.748 198.635 466.797 198.635C460.846 198.635 455.672 197.198 451.245 194.36C446.813 191.519 443.073 187.238 440.054 181.465C433.999 169.89 430.895 152.424 430.895 128.997C430.895 105.747 433.814 89.0476 439.762 78.1903C442.725 72.7809 446.43 68.8402 450.89 66.2455C455.352 63.6499 460.631 62.3655 466.797 62.3655C472.963 62.3655 478.242 63.6499 482.703 66.2455C487.164 68.8402 490.868 72.7809 493.832 78.1903C499.779 89.0476 502.699 105.747 502.699 128.997Z" fill="#F8F9FB" stroke="#62AE90" stroke-width="2"/>
  <path d="M938.45 418.591C947.01 416.451 961.97 420.421 969.03 425.701C950.786 431.06 932.005 434.387 913.03 435.621C915.468 439.627 919.123 442.749 923.46 444.531C914.79 449.341 904.46 449.901 894.58 450.341C735.05 457.521 575.5 464.711 415.82 466.871C390.63 467.211 365.43 467.431 340.24 466.871C315.05 466.311 290.11 463.361 265.13 463.761C213.77 464.581 163.32 452.021 112.02 451.761C96.51 451.671 80.53 452.631 66.02 447.291C71.8448 443.147 79.0222 441.36 86.11 442.291C86.45 439.721 84.34 437.291 81.9 436.451C79.46 435.611 76.78 435.791 74.2 436.001C49.3443 437.975 24.333 436.212 0 430.771C0.83 425.771 6.94 423.931 12 423.581C17.06 423.231 23 422.881 25.61 418.581L938.45 418.591Z" fill="#EEEEEE"/>
  <path d="M622.33 235.821H530V317.701H622.33V235.821Z" fill="#DAEAE5" stroke="#62AE90" stroke-miterlimit="10" stroke-linecap="round"/>
  <path d="M137.99 290.651H62V419.321H137.99V290.651Z" fill="#DAEAE5" stroke="#62AE90" stroke-miterlimit="10" stroke-linecap="round"/>
  <path d="M137.99 280.131H119.54V290.651H137.99V280.131Z" fill="#DAEAE5" stroke="#62AE90" stroke-miterlimit="10" stroke-linecap="round"/>
  <path d="M544.33 278.131H459.7L439.7 314.651H564.33L544.33 278.131Z" fill="#8FC4AF" stroke="#62AE90" stroke-miterlimit="10" stroke-linecap="round"/>
  <path d="M439.7 203.071H263.95V419.321H439.7V203.071Z" fill="#BCDBD0" stroke="#62AE90" stroke-miterlimit="10" stroke-linecap="round"/>
  <path d="M449.7 203.071H253.95V212.071H449.7V203.071Z" fill="#8FC4AF" stroke="#62AE90" stroke-miterlimit="10" stroke-linecap="round"/>
  <path d="M263.96 230.991H137.99V419.321H263.96V230.991Z" fill="#ADD3C5" stroke="#62AE90" stroke-miterlimit="10" stroke-linecap="round"/>
  <path d="M446.08 216.821H257.58V225.821H446.08V216.821Z" fill="#8FC4AF" stroke="#62AE90" stroke-miterlimit="10" stroke-linecap="round"/>
  <path d="M519.67 302.041H484.17V307.791H519.67V302.041Z" fill="#ADD3C5" stroke="#62AE90" stroke-miterlimit="10" stroke-linecap="round"/>
  <path d="M515.92 278.131H487.92V302.041H515.92V278.131Z" stroke="#62AE90" stroke-miterlimit="10" stroke-linecap="round"/>
  <path d="M650.8 300.951H564.63V419.321H650.8V300.951Z" fill="#BCDBD0" stroke="#62AE90" stroke-miterlimit="10" stroke-linecap="round"/>
  <path d="M518.42 278.131H485.42L501.92 268.571L518.42 278.131Z" fill="#62AE90" stroke="#62AE90" stroke-miterlimit="10" stroke-linecap="round"/>
  <path d="M493.08 281.811V290.641H510.75V281.811H493.08Z" fill="#DAEAE5" stroke="#62AE90" stroke-miterlimit="10" stroke-linecap="round"/>
  <path d="M564.33 314.651H439.7V419.321H564.33V314.651Z" fill="#ADD3C5" stroke="#62AE90" stroke-miterlimit="10" stroke-linecap="round"/>
  <path d="M493.08 293.221V302.051H510.75V293.221H493.08Z" fill="#DAEAE5" stroke="#62AE90" stroke-miterlimit="10" stroke-linecap="round"/>
  <path d="M489.17 352.821H453.67V358.571H489.17V352.821Z" fill="#8FC4AF" stroke="#62AE90" stroke-miterlimit="10" stroke-linecap="round"/>
  <path d="M489.17 323.161H453.67V328.911H489.17V323.161Z" fill="#8FC4AF" stroke="#62AE90" stroke-miterlimit="10" stroke-linecap="round"/>
  <path d="M485.42 328.911H457.42V352.821H485.42V328.911Z" stroke="#62AE90" stroke-miterlimit="10" stroke-linecap="round"/>
  <path d="M632.98 344.541H582.44V350.291H632.98V344.541Z" fill="#8FC4AF" stroke="#62AE90" stroke-miterlimit="10" stroke-linecap="round"/>
  <path d="M629.42 315.321H586V344.541H629.42V315.321Z" stroke="#62AE90" stroke-miterlimit="10" stroke-linecap="round"/>
  <path d="M839.83 314.041H650.79V419.311H839.83V314.041Z" fill="#ADD3C5" stroke="#62AE90" stroke-miterlimit="10" stroke-linecap="round"/>
  <path d="M829.5 244.131H660.33V309.491H829.5V244.131Z" fill="#ADD3C5" stroke="#62AE90" stroke-miterlimit="10" stroke-linecap="round"/>
  <path d="M759.29 263.301H731.29V287.211H759.29V263.301Z" stroke="#62AE90" stroke-miterlimit="10" stroke-linecap="round"/>
  <path d="M706.92 263.301H678.92V287.211H706.92V263.301Z" stroke="#62AE90" stroke-miterlimit="10" stroke-linecap="round"/>
  <path d="M811.67 263.301H783.67V287.211H811.67V263.301Z" stroke="#62AE90" stroke-miterlimit="10" stroke-linecap="round"/>
  <path d="M759.29 332.891H731.29V356.801H759.29V332.891Z" stroke="#62AE90" stroke-miterlimit="10" stroke-linecap="round"/>
  <path d="M706.92 332.891H678.92V356.801H706.92V332.891Z" stroke="#62AE90" stroke-miterlimit="10" stroke-linecap="round"/>
  <path d="M811.67 332.891H783.67V356.801H811.67V332.891Z" stroke="#62AE90" stroke-miterlimit="10" stroke-linecap="round"/>
  <path d="M759.29 381.491H731.29V405.401H759.29V381.491Z" stroke="#62AE90" stroke-miterlimit="10" stroke-linecap="round"/>
  <path d="M706.92 381.491H678.92V405.401H706.92V381.491Z" stroke="#62AE90" stroke-miterlimit="10" stroke-linecap="round"/>
  <path d="M763.04 287.211H727.54V292.961H763.04V287.211Z" fill="#8FC4AF" stroke="#62AE90" stroke-miterlimit="10" stroke-linecap="round"/>
  <path d="M763.04 257.551H727.54V263.301H763.04V257.551Z" fill="#8FC4AF" stroke="#62AE90" stroke-miterlimit="10" stroke-linecap="round"/>
  <path d="M710.67 287.211H675.17V292.961H710.67V287.211Z" fill="#8FC4AF" stroke="#62AE90" stroke-miterlimit="10" stroke-linecap="round"/>
  <path d="M710.67 257.551H675.17V263.301H710.67V257.551Z" fill="#8FC4AF" stroke="#62AE90" stroke-miterlimit="10" stroke-linecap="round"/>
  <path d="M815.42 287.211H779.92V292.961H815.42V287.211Z" fill="#8FC4AF" stroke="#62AE90" stroke-miterlimit="10" stroke-linecap="round"/>
  <path d="M815.42 257.551H779.92V263.301H815.42V257.551Z" fill="#8FC4AF" stroke="#62AE90" stroke-miterlimit="10" stroke-linecap="round"/>
  <path d="M763.04 356.801H727.54V362.551H763.04V356.801Z" fill="#8FC4AF" stroke="#62AE90" stroke-miterlimit="10" stroke-linecap="round"/>
  <path d="M763.04 327.141H727.54V332.891H763.04V327.141Z" fill="#8FC4AF" stroke="#62AE90" stroke-miterlimit="10" stroke-linecap="round"/>
  <path d="M710.67 356.801H675.17V362.551H710.67V356.801Z" fill="#8FC4AF" stroke="#62AE90" stroke-miterlimit="10" stroke-linecap="round"/>
  <path d="M710.67 327.141H675.17V332.891H710.67V327.141Z" fill="#8FC4AF" stroke="#62AE90" stroke-miterlimit="10" stroke-linecap="round"/>
  <path d="M815.42 356.801H779.92V362.551H815.42V356.801Z" fill="#8FC4AF" stroke="#62AE90" stroke-miterlimit="10" stroke-linecap="round"/>
  <path d="M815.42 327.141H779.92V332.891H815.42V327.141Z" fill="#8FC4AF" stroke="#62AE90" stroke-miterlimit="10" stroke-linecap="round"/>
  <path d="M763.04 405.401H727.54V411.151H763.04V405.401Z" fill="#8FC4AF" stroke="#62AE90" stroke-miterlimit="10" stroke-linecap="round"/>
  <path d="M763.04 375.741H727.54V381.491H763.04V375.741Z" fill="#8FC4AF" stroke="#62AE90" stroke-miterlimit="10" stroke-linecap="round"/>
  <path d="M710.67 405.401H675.17V411.151H710.67V405.401Z" fill="#8FC4AF" stroke="#62AE90" stroke-miterlimit="10" stroke-linecap="round"/>
  <path d="M710.67 375.741H675.17V381.491H710.67V375.741Z" fill="#8FC4AF" stroke="#62AE90" stroke-miterlimit="10" stroke-linecap="round"/>
  <path d="M815.42 405.401H779.92V411.151H815.42V405.401Z" fill="#8FC4AF" stroke="#62AE90" stroke-miterlimit="10" stroke-linecap="round"/>
  <path d="M815.42 375.741H779.92V381.491H815.42V375.741Z" fill="#8FC4AF" stroke="#62AE90" stroke-miterlimit="10" stroke-linecap="round"/>
  <path d="M811.67 381.491H783.67V405.401H811.67V381.491Z" stroke="#62AE90" stroke-miterlimit="10" stroke-linecap="round"/>
  <path d="M735.17 287.211H744V268.271H735.17V287.211Z" fill="#DAEAE5" stroke="#62AE90" stroke-miterlimit="10" stroke-linecap="round"/>
  <path d="M746.59 287.211H755.42V268.271H746.59V287.211Z" fill="#DAEAE5" stroke="#62AE90" stroke-miterlimit="10" stroke-linecap="round"/>
  <path d="M682.8 287.211H691.63V268.271H682.8V287.211Z" fill="#DAEAE5" stroke="#62AE90" stroke-miterlimit="10" stroke-linecap="round"/>
  <path d="M694.21 287.211H703.04V268.271H694.21V287.211Z" fill="#DAEAE5" stroke="#62AE90" stroke-miterlimit="10" stroke-linecap="round"/>
  <path d="M787.55 287.211H796.38V268.271H787.55V287.211Z" fill="#DAEAE5" stroke="#62AE90" stroke-miterlimit="10" stroke-linecap="round"/>
  <path d="M798.96 287.211H807.79V268.271H798.96V287.211Z" fill="#DAEAE5" stroke="#62AE90" stroke-miterlimit="10" stroke-linecap="round"/>
  <path d="M735.17 356.801H744V337.861H735.17V356.801Z" fill="#DAEAE5" stroke="#62AE90" stroke-miterlimit="10" stroke-linecap="round"/>
  <path d="M746.59 356.801H755.42V337.861H746.59V356.801Z" fill="#DAEAE5" stroke="#62AE90" stroke-miterlimit="10" stroke-linecap="round"/>
  <path d="M682.8 356.801H691.63V337.861H682.8V356.801Z" fill="#DAEAE5" stroke="#62AE90" stroke-miterlimit="10" stroke-linecap="round"/>
  <path d="M694.21 356.801H703.04V337.861H694.21V356.801Z" fill="#DAEAE5" stroke="#62AE90" stroke-miterlimit="10" stroke-linecap="round"/>
  <path d="M787.55 356.801H796.38V337.861H787.55V356.801Z" fill="#DAEAE5" stroke="#62AE90" stroke-miterlimit="10" stroke-linecap="round"/>
  <path d="M798.96 356.801H807.79V337.861H798.96V356.801Z" fill="#DAEAE5" stroke="#62AE90" stroke-miterlimit="10" stroke-linecap="round"/>
  <path d="M735.17 405.401H744V386.461H735.17V405.401Z" fill="#DAEAE5" stroke="#62AE90" stroke-miterlimit="10" stroke-linecap="round"/>
  <path d="M746.59 405.401H755.42V386.461H746.59V405.401Z" fill="#DAEAE5" stroke="#62AE90" stroke-miterlimit="10" stroke-linecap="round"/>
  <path d="M682.8 405.401H691.63V386.461H682.8V405.401Z" fill="#DAEAE5" stroke="#62AE90" stroke-miterlimit="10" stroke-linecap="round"/>
  <path d="M694.21 405.401H703.04V386.461H694.21V405.401Z" fill="#DAEAE5" stroke="#62AE90" stroke-miterlimit="10" stroke-linecap="round"/>
  <path d="M787.55 405.401H796.38V386.461H787.55V405.401Z" fill="#DAEAE5" stroke="#62AE90" stroke-miterlimit="10" stroke-linecap="round"/>
  <path d="M798.96 405.401H807.79V386.461H798.96V405.401Z" fill="#DAEAE5" stroke="#62AE90" stroke-miterlimit="10" stroke-linecap="round"/>
  <path d="M489.17 405.941H453.67V411.691H489.17V405.941Z" fill="#8FC4AF" stroke="#62AE90" stroke-miterlimit="10" stroke-linecap="round"/>
  <path d="M489.17 376.291H453.67V382.041H489.17V376.291Z" fill="#8FC4AF" stroke="#62AE90" stroke-miterlimit="10" stroke-linecap="round"/>
  <path d="M485.42 382.041H457.42V405.951H485.42V382.041Z" stroke="#62AE90" stroke-miterlimit="10" stroke-linecap="round"/>
  <path d="M549.42 352.821H513.92V358.571H549.42V352.821Z" fill="#8FC4AF" stroke="#62AE90" stroke-miterlimit="10" stroke-linecap="round"/>
  <path d="M549.42 323.161H513.92V328.911H549.42V323.161Z" fill="#8FC4AF" stroke="#62AE90" stroke-miterlimit="10" stroke-linecap="round"/>
  <path d="M545.67 328.911H517.67V352.821H545.67V328.911Z" stroke="#62AE90" stroke-miterlimit="10" stroke-linecap="round"/>
  <path d="M462.59 332.591V341.421H480.26V332.591H462.59Z" fill="#DAEAE5" stroke="#62AE90" stroke-miterlimit="10" stroke-linecap="round"/>
  <path d="M462.58 344.001V352.831H480.25V344.001H462.58Z" fill="#DAEAE5" stroke="#62AE90" stroke-miterlimit="10" stroke-linecap="round"/>
  <path d="M462.58 385.711V394.541H480.25V385.711H462.58Z" fill="#DAEAE5" stroke="#62AE90" stroke-miterlimit="10" stroke-linecap="round"/>
  <path d="M462.58 397.131V405.961H480.25V397.131H462.58Z" fill="#DAEAE5" stroke="#62AE90" stroke-miterlimit="10" stroke-linecap="round"/>
  <path d="M522.84 332.591V341.421H540.51V332.591H522.84Z" fill="#DAEAE5" stroke="#62AE90" stroke-miterlimit="10" stroke-linecap="round"/>
  <path d="M522.83 344.001V352.831H540.5V344.001H522.83Z" fill="#DAEAE5" stroke="#62AE90" stroke-miterlimit="10" stroke-linecap="round"/>
  <path d="M194.72 289.511H159.22V295.261H194.72V289.511Z" fill="#8FC4AF" stroke="#62AE90" stroke-miterlimit="10" stroke-linecap="round"/>
  <path d="M190.97 261.011H162.97V289.511H190.97V261.011Z" stroke="#62AE90" stroke-miterlimit="10" stroke-linecap="round"/>
  <path d="M187.1 264.671H166.85V289.501H187.1V264.671Z" fill="#DAEAE5" stroke="#62AE90" stroke-miterlimit="10" stroke-linecap="round"/>
  <path d="M242.72 289.511H207.22V295.261H242.72V289.511Z" fill="#8FC4AF" stroke="#62AE90" stroke-miterlimit="10" stroke-linecap="round"/>
  <path d="M238.97 261.011H210.97V289.511H238.97V261.011Z" stroke="#62AE90" stroke-miterlimit="10" stroke-linecap="round"/>
  <path d="M235.1 264.671H214.85V289.501H235.1V264.671Z" fill="#DAEAE5" stroke="#62AE90" stroke-miterlimit="10" stroke-linecap="round"/>
  <path d="M194.72 339.691H159.22V345.441H194.72V339.691Z" fill="#8FC4AF" stroke="#62AE90" stroke-miterlimit="10" stroke-linecap="round"/>
  <path d="M190.97 311.191H162.97V339.691H190.97V311.191Z" stroke="#62AE90" stroke-miterlimit="10" stroke-linecap="round"/>
  <path d="M187.1 314.861H166.85V339.691H187.1V314.861Z" fill="#DAEAE5" stroke="#62AE90" stroke-miterlimit="10" stroke-linecap="round"/>
  <path d="M242.72 339.691H207.22V345.441H242.72V339.691Z" fill="#8FC4AF" stroke="#62AE90" stroke-miterlimit="10" stroke-linecap="round"/>
  <path d="M238.97 311.191H210.97V339.691H238.97V311.191Z" stroke="#62AE90" stroke-miterlimit="10" stroke-linecap="round"/>
  <path d="M235.1 314.861H214.85V339.691H235.1V314.861Z" fill="#DAEAE5" stroke="#62AE90" stroke-miterlimit="10" stroke-linecap="round"/>
  <path d="M242.72 393.321H207.22V399.071H242.72V393.321Z" fill="#8FC4AF" stroke="#62AE90" stroke-miterlimit="10" stroke-linecap="round"/>
  <path d="M238.97 364.821H210.97V393.321H238.97V364.821Z" stroke="#62AE90" stroke-miterlimit="10" stroke-linecap="round"/>
  <path d="M235.1 368.491H214.85V393.321H235.1V368.491Z" fill="#DAEAE5" stroke="#62AE90" stroke-miterlimit="10" stroke-linecap="round"/>
  <path d="M317.09 289.191H289.09V317.691H317.09V289.191Z" stroke="#62AE90" stroke-miterlimit="10" stroke-linecap="round"/>
  <path d="M414.56 289.191H386.56V317.691H414.56V289.191Z" stroke="#62AE90" stroke-miterlimit="10" stroke-linecap="round"/>
  <path d="M365.83 289.191H337.83V317.691H365.83V289.191Z" stroke="#62AE90" stroke-miterlimit="10" stroke-linecap="round"/>
  <path d="M317.09 237.691H289.09V266.191H317.09V237.691Z" stroke="#62AE90" stroke-miterlimit="10" stroke-linecap="round"/>
  <path d="M414.56 237.691H386.56V266.191H414.56V237.691Z" stroke="#62AE90" stroke-miterlimit="10" stroke-linecap="round"/>
  <path d="M320.84 317.691H285.34V323.441H320.84V317.691Z" fill="#8FC4AF" stroke="#62AE90" stroke-miterlimit="10" stroke-linecap="round"/>
  <path d="M418.31 317.691H382.81V323.441H418.31V317.691Z" fill="#8FC4AF" stroke="#62AE90" stroke-miterlimit="10" stroke-linecap="round"/>
  <path d="M369.58 317.691H334.08V323.441H369.58V317.691Z" fill="#8FC4AF" stroke="#62AE90" stroke-miterlimit="10" stroke-linecap="round"/>
  <path d="M320.84 266.191H285.34V271.941H320.84V266.191Z" fill="#8FC4AF" stroke="#62AE90" stroke-miterlimit="10" stroke-linecap="round"/>
  <path d="M418.31 266.191H382.81V271.941H418.31V266.191Z" fill="#8FC4AF" stroke="#62AE90" stroke-miterlimit="10" stroke-linecap="round"/>
  <path d="M369.58 266.191H334.08V271.941H369.58V266.191Z" fill="#8FC4AF" stroke="#62AE90" stroke-miterlimit="10" stroke-linecap="round"/>
  <path d="M365.83 237.691H337.83V266.191H365.83V237.691Z" stroke="#62AE90" stroke-miterlimit="10" stroke-linecap="round"/>
  <path d="M313.21 292.861H304.38V317.691H313.21V292.861Z" fill="#DAEAE5" stroke="#62AE90" stroke-miterlimit="10" stroke-linecap="round"/>
  <path d="M301.8 292.861H292.97V317.691H301.8V292.861Z" fill="#DAEAE5" stroke="#62AE90" stroke-miterlimit="10" stroke-linecap="round"/>
  <path d="M410.68 292.861H401.85V317.691H410.68V292.861Z" fill="#DAEAE5" stroke="#62AE90" stroke-miterlimit="10" stroke-linecap="round"/>
  <path d="M399.27 292.861H390.44V317.691H399.27V292.861Z" fill="#DAEAE5" stroke="#62AE90" stroke-miterlimit="10" stroke-linecap="round"/>
  <path d="M361.95 292.861H353.12V317.691H361.95V292.861Z" fill="#DAEAE5" stroke="#62AE90" stroke-miterlimit="10" stroke-linecap="round"/>
  <path d="M350.53 292.861H341.7V317.691H350.53V292.861Z" fill="#DAEAE5" stroke="#62AE90" stroke-miterlimit="10" stroke-linecap="round"/>
  <path d="M313.21 241.361H304.38V266.191H313.21V241.361Z" fill="#DAEAE5" stroke="#62AE90" stroke-miterlimit="10" stroke-linecap="round"/>
  <path d="M301.8 241.361H292.97V266.191H301.8V241.361Z" fill="#DAEAE5" stroke="#62AE90" stroke-miterlimit="10" stroke-linecap="round"/>
  <path d="M410.68 241.361H401.85V266.191H410.68V241.361Z" fill="#DAEAE5" stroke="#62AE90" stroke-miterlimit="10" stroke-linecap="round"/>
  <path d="M399.27 241.361H390.44V266.191H399.27V241.361Z" fill="#DAEAE5" stroke="#62AE90" stroke-miterlimit="10" stroke-linecap="round"/>
  <path d="M361.95 241.361H353.12V266.191H361.95V241.361Z" fill="#DAEAE5" stroke="#62AE90" stroke-miterlimit="10" stroke-linecap="round"/>
  <path d="M350.53 241.361H341.7V266.191H350.53V241.361Z" fill="#DAEAE5" stroke="#62AE90" stroke-miterlimit="10" stroke-linecap="round"/>
  <path d="M439.7 333.821H263.95V357.571H439.7V333.821Z" stroke="#62AE90" stroke-miterlimit="10" stroke-linecap="round"/>
  <path d="M421.78 357.571H337.94V414.071H421.78V357.571Z" stroke="#62AE90" stroke-miterlimit="10" stroke-linecap="round"/>
  <path d="M418.73 359.941H340.98V411.691H418.73V359.941Z" fill="#DAEAE5" stroke="#62AE90" stroke-miterlimit="10" stroke-linecap="round"/>
  <path d="M426.48 414.071H333.23V419.321H426.48V414.071Z" fill="#8FC4AF" stroke="#62AE90" stroke-miterlimit="10" stroke-linecap="round"/>
  <path d="M421.78 399.071H431.67" stroke="#62AE90" stroke-miterlimit="10" stroke-linecap="round"/>
  <path d="M337.94 377.571H332.42" stroke="#62AE90" stroke-miterlimit="10" stroke-linecap="round"/>
  <path d="M337.94 409.821H324.54" stroke="#62AE90" stroke-miterlimit="10" stroke-linecap="round"/>
  <path d="M272.74 334H263.95V357H272.74V334Z" fill="#62AE90" stroke="#62AE90" stroke-miterlimit="10" stroke-linecap="round"/>
  <path d="M290.32 334H281.53V357H290.32V334Z" fill="#62AE90" stroke="#62AE90" stroke-miterlimit="10" stroke-linecap="round"/>
  <path d="M307.89 334H299.1V357H307.89V334Z" fill="#62AE90" stroke="#62AE90" stroke-miterlimit="10" stroke-linecap="round"/>
  <path d="M325.47 334H316.68V357H325.47V334Z" fill="#62AE90" stroke="#62AE90" stroke-miterlimit="10" stroke-linecap="round"/>
  <path d="M343.04 334H334.25V357H343.04V334Z" fill="#62AE90" stroke="#62AE90" stroke-miterlimit="10" stroke-linecap="round"/>
  <path d="M360.62 334H351.83V357H360.62V334Z" fill="#62AE90" stroke="#62AE90" stroke-miterlimit="10" stroke-linecap="round"/>
  <path d="M378.19 334H369.4V357H378.19V334Z" fill="#62AE90" stroke="#62AE90" stroke-miterlimit="10" stroke-linecap="round"/>
  <path d="M395.77 334H386.98V357H395.77V334Z" fill="#62AE90" stroke="#62AE90" stroke-miterlimit="10" stroke-linecap="round"/>
  <path d="M413.34 334H404.55V357H413.34V334Z" fill="#62AE90" stroke="#62AE90" stroke-miterlimit="10" stroke-linecap="round"/>
  <path d="M430.92 334H422.13V357H430.92V334Z" fill="#62AE90" stroke="#62AE90" stroke-miterlimit="10" stroke-linecap="round"/>
  <path d="M281.53 334H272.74V357H281.53V334Z" fill="#8FC4AF" stroke="#62AE90" stroke-miterlimit="10" stroke-linecap="round"/>
  <path d="M299.1 334H290.31V357H299.1V334Z" fill="#8FC4AF" stroke="#62AE90" stroke-miterlimit="10" stroke-linecap="round"/>
  <path d="M316.68 334H307.89V357H316.68V334Z" fill="#8FC4AF" stroke="#62AE90" stroke-miterlimit="10" stroke-linecap="round"/>
  <path d="M334.25 334H325.46V357H334.25V334Z" fill="#8FC4AF" stroke="#62AE90" stroke-miterlimit="10" stroke-linecap="round"/>
  <path d="M351.83 334H343.04V357H351.83V334Z" fill="#8FC4AF" stroke="#62AE90" stroke-miterlimit="10" stroke-linecap="round"/>
  <path d="M369.4 334H360.61V357H369.4V334Z" fill="#8FC4AF" stroke="#62AE90" stroke-miterlimit="10" stroke-linecap="round"/>
  <path d="M386.98 334H378.19V357H386.98V334Z" fill="#8FC4AF" stroke="#62AE90" stroke-miterlimit="10" stroke-linecap="round"/>
  <path d="M404.55 334H395.76V357H404.55V334Z" fill="#8FC4AF" stroke="#62AE90" stroke-miterlimit="10" stroke-linecap="round"/>
  <path d="M422.13 334H413.34V357H422.13V334Z" fill="#8FC4AF" stroke="#62AE90" stroke-miterlimit="10" stroke-linecap="round"/>
  <path d="M439.7 334H430.91V357H439.7V334Z" fill="#8FC4AF" stroke="#62AE90" stroke-miterlimit="10" stroke-linecap="round"/>
  <path d="M321.41 357.571H279.49V411.701H321.41V357.571Z" stroke="#62AE90" stroke-miterlimit="10" stroke-linecap="round"/>
  <path d="M318.91 359.941H281.97V411.691H318.91V359.941Z" fill="#ADD3C5" stroke="#62AE90" stroke-miterlimit="10" stroke-linecap="round"/>
  <path d="M323.76 411.691H277.13V419.311H323.76V411.691Z" fill="#8FC4AF" stroke="#62AE90" stroke-miterlimit="10" stroke-linecap="round"/>
  <path d="M313.91 362.571H286.97V411.701H313.91V362.571Z" fill="#8FC4AF" stroke="#62AE90" stroke-miterlimit="10" stroke-linecap="round"/>
  <path d="M308.54 397.191C310.059 397.191 311.29 395.96 311.29 394.441C311.29 392.922 310.059 391.691 308.54 391.691C307.021 391.691 305.79 392.922 305.79 394.441C305.79 395.96 307.021 397.191 308.54 397.191Z" fill="#C4C4C4" stroke="#62AE90" stroke-miterlimit="10" stroke-linecap="round"/>
  <path d="M628.67 362.571H586.75V411.701H628.67V362.571Z" stroke="#62AE90" stroke-miterlimit="10" stroke-linecap="round"/>
  <path d="M631.03 411.691H584.4V419.311H631.03V411.691Z" fill="#8FC4AF" stroke="#62AE90" stroke-miterlimit="10" stroke-linecap="round"/>
  <path d="M621.18 366.491H594.24V411.701H621.18V366.491Z" fill="#8FC4AF" stroke="#62AE90" stroke-miterlimit="10" stroke-linecap="round"/>
  <path d="M597.59 344.541H606.42V319.951H597.59V344.541Z" fill="#DAEAE5" stroke="#62AE90" stroke-miterlimit="10" stroke-linecap="round"/>
  <path d="M609.01 344.541H617.84V319.951H609.01V344.541Z" fill="#DAEAE5" stroke="#62AE90" stroke-miterlimit="10" stroke-linecap="round"/>
  <path d="M625.72 319.941H621.59V338.441H625.72V319.941Z" fill="#DAEAE5" stroke="#62AE90" stroke-miterlimit="10" stroke-linecap="round"/>
  <path d="M625.72 340.411H621.59V344.541H625.72V340.411Z" fill="#DAEAE5" stroke="#62AE90" stroke-miterlimit="10" stroke-linecap="round"/>
  <path d="M593.84 319.941H589.71V338.441H593.84V319.941Z" fill="#DAEAE5" stroke="#62AE90" stroke-miterlimit="10" stroke-linecap="round"/>
  <path d="M593.84 340.411H589.71V344.541H593.84V340.411Z" fill="#DAEAE5" stroke="#62AE90" stroke-miterlimit="10" stroke-linecap="round"/>
  <path d="M617.26 369.571H608.75V409.571H617.26V369.571Z" fill="#DAEAE5" stroke="#62AE90" stroke-miterlimit="10" stroke-linecap="round"/>
  <path d="M606.68 369.571H598.17V409.571H606.68V369.571Z" fill="#DAEAE5" stroke="#62AE90" stroke-miterlimit="10" stroke-linecap="round"/>
  <path d="M617.07 393.441C618.589 393.441 619.82 392.21 619.82 390.691C619.82 389.172 618.589 387.941 617.07 387.941C615.551 387.941 614.32 389.172 614.32 390.691C614.32 392.21 615.551 393.441 617.07 393.441Z" fill="#C4C4C4" stroke="#62AE90" stroke-miterlimit="10" stroke-linecap="round"/>
  <path d="M549.42 370.991H513.92V419.321H549.42V370.991Z" stroke="#62AE90" stroke-miterlimit="10" stroke-linecap="round"/>
  <path d="M545.13 376.291H518.19V419.321H545.13V376.291Z" fill="#8FC4AF" stroke="#62AE90" stroke-miterlimit="10" stroke-linecap="round"/>
  <path d="M539.87 403.081C540.909 403.081 541.75 402.239 541.75 401.201C541.75 400.163 540.909 399.321 539.87 399.321C538.832 399.321 537.99 400.163 537.99 401.201C537.99 402.239 538.832 403.081 539.87 403.081Z" fill="#C4C4C4" stroke="#62AE90" stroke-miterlimit="10" stroke-linecap="round"/>
  <path d="M197.93 357.571H156.01V411.701H197.93V357.571Z" stroke="#62AE90" stroke-miterlimit="10" stroke-linecap="round"/>
  <path d="M195.44 359.941H158.5V411.691H195.44V359.941Z" fill="#BCDBD0" stroke="#62AE90" stroke-miterlimit="10" stroke-linecap="round"/>
  <path d="M200.29 411.691H153.66V419.311H200.29V411.691Z" fill="#8FC4AF" stroke="#62AE90" stroke-miterlimit="10" stroke-linecap="round"/>
  <path d="M190.44 362.571H163.5V411.701H190.44V362.571Z" fill="#8FC4AF" stroke="#62AE90" stroke-miterlimit="10" stroke-linecap="round"/>
  <path d="M185.07 397.191C186.589 397.191 187.82 395.96 187.82 394.441C187.82 392.922 186.589 391.691 185.07 391.691C183.551 391.691 182.32 392.922 182.32 394.441C182.32 395.96 183.551 397.191 185.07 397.191Z" fill="#C4C4C4" stroke="#62AE90" stroke-miterlimit="10" stroke-linecap="round"/>
  <path d="M279.49 388.991H268.35" stroke="#62AE90" stroke-miterlimit="10" stroke-linecap="round"/>
  <path d="M446.08 253H439.7V257.39H446.08V253Z" fill="#8FC4AF" stroke="#62AE90" stroke-miterlimit="10" stroke-linecap="round"/>
  <path d="M478.863 474.366C473.229 481.297 460.916 486.351 453.153 479.407C446.852 473.798 448.994 462.141 449.234 454.68C449.309 452.248 445.529 452.248 445.453 454.68C445.138 464.611 443.046 478.89 453.783 484.347C463.324 489.186 475.132 484.952 481.509 477.075C483.034 475.197 480.375 472.513 478.837 474.403L478.863 474.366Z" fill="#62AE90"/>
  <path d="M477.59 472.135C478.038 473.61 479.011 474.87 480.325 475.676L484.799 479.356C486.664 480.894 489.348 478.235 487.471 476.684L483.816 473.672C483.034 473.03 481.421 472.173 481.295 471.152C480.867 468.757 477.225 469.778 477.653 472.16L477.59 472.135Z" fill="#62AE90"/>
  <path d="M480.905 475.626C490.52 476.369 495.486 462.733 493.117 454.983C491.856 450.773 489.462 444.989 485.82 442.279C481.522 439.065 474.477 438.713 469.36 438.498C466.928 438.41 466.928 442.191 469.36 442.279C473.239 442.288 477.091 442.905 480.779 444.107C484.345 445.367 485.82 447.887 487.42 451.189C489.121 454.731 490.621 458.247 489.651 462.217C488.68 466.186 486.034 472.223 480.892 471.82C478.46 471.631 478.472 475.412 480.892 475.601L480.905 475.626Z" fill="#62AE90"/>
  <path d="M463.765 447.421C468.201 449.564 472.259 452.676 474.477 457.188C476.695 461.7 475.599 466.577 476.998 471.202C477.691 473.534 481.346 472.538 480.64 470.194C478.989 464.649 480.186 459.28 477.086 454.05C474.353 449.715 470.41 446.276 465.744 444.157C463.563 443.098 461.648 446.362 463.841 447.421H463.765Z" fill="#62AE90"/>
  <path d="M456.153 454.743C454.212 461.637 455.8 470.219 462.303 474.038C465.617 475.799 469.36 476.593 473.104 476.331C475.977 476.243 480.476 476.394 481.837 473.319C482.82 471.114 479.556 469.186 478.573 471.416C477.956 472.815 472.776 472.677 471.49 472.576C468.614 472.61 465.792 471.785 463.387 470.207C459.14 467.182 458.472 460.528 459.808 455.764C459.925 455.286 459.851 454.782 459.603 454.358C459.354 453.934 458.95 453.623 458.476 453.492C458.002 453.361 457.496 453.419 457.064 453.655C456.633 453.891 456.311 454.286 456.166 454.756L456.153 454.743Z" fill="#62AE90"/>
  <path d="M448.591 471.605C449.461 465.884 452.372 460.15 454.326 454.743C454.54 454.176 453.62 453.924 453.418 454.491C451.44 459.91 448.553 465.644 447.684 471.353C447.596 471.946 448.503 472.21 448.591 471.605Z" fill="#71B59A"/>
  <path d="M450.696 476.004C451.685 472.215 453.497 468.691 456.002 465.682C456.392 465.216 455.724 464.548 455.334 465.014C452.721 468.144 450.828 471.809 449.789 475.752C449.779 475.863 449.808 475.974 449.872 476.066C449.936 476.158 450.03 476.225 450.137 476.255C450.245 476.285 450.36 476.276 450.462 476.23C450.564 476.184 450.647 476.104 450.696 476.004Z" fill="#71B59A"/>
  <path d="M441.76 454.289C443.535 461.06 447.005 467.266 451.843 472.324C452.259 472.765 452.926 472.097 452.511 471.656C447.788 466.708 444.408 460.634 442.693 454.012C442.644 453.912 442.561 453.831 442.459 453.786C442.357 453.74 442.242 453.731 442.135 453.761C442.027 453.791 441.933 453.858 441.869 453.949C441.805 454.041 441.776 454.153 441.786 454.264L441.76 454.289Z" fill="#71B59A"/>
  <path d="M457.614 481.927C457.54 477.928 457.679 473.927 458.03 469.942C458.03 469.337 457.136 469.337 457.085 469.942C456.734 473.927 456.595 477.928 456.669 481.927C456.688 482.039 456.745 482.141 456.832 482.215C456.918 482.288 457.028 482.329 457.142 482.329C457.255 482.329 457.365 482.288 457.452 482.215C457.538 482.141 457.596 482.039 457.614 481.927Z" fill="#71B59A"/>
  <path d="M463.16 480.667C462.371 477.797 462.085 474.812 462.315 471.845C462.315 471.24 461.421 471.24 461.37 471.845C461.137 474.898 461.436 477.968 462.252 480.919C462.301 481.02 462.384 481.1 462.486 481.146C462.588 481.191 462.703 481.2 462.811 481.17C462.919 481.14 463.013 481.074 463.076 480.982C463.14 480.89 463.17 480.778 463.16 480.667Z" fill="#71B59A"/>
  <path d="M459.984 464.283C459.48 457.987 459.965 451.651 461.421 445.505C461.56 444.913 460.652 444.661 460.514 445.253C459.029 451.48 458.532 457.902 459.039 464.283C459.039 464.888 460.035 464.888 459.984 464.283Z" fill="#71B59A"/>
  <path d="M456.745 463.477C455.943 458.898 454.488 454.459 452.423 450.294C452.158 449.752 451.339 450.231 451.604 450.773C453.625 454.867 455.047 459.23 455.825 463.729C455.926 464.321 456.846 464.069 456.733 463.477H456.745Z" fill="#71B59A"/>
  <path d="M466.247 469.324C464.395 465.052 461.584 457.881 464.849 453.684C465.214 453.205 464.559 452.538 464.181 453.016C460.538 457.692 463.361 465.027 465.441 469.803C465.68 470.358 466.5 469.879 466.26 469.324H466.247Z" fill="#71B59A"/>
  <path d="M462.668 472.009C461.169 467.409 458.598 463.187 453.846 461.435C453.279 461.221 453.027 462.141 453.594 462.342C457.993 463.955 460.349 468.014 461.736 472.261C461.925 472.84 462.832 472.588 462.643 472.009H462.668Z" fill="#71B59A"/>
  <path d="M460.261 473.017C458.22 469.829 456.115 465.455 451.603 466.086C450.998 466.174 451.263 467.081 451.855 466.993C455.812 466.413 457.703 470.774 459.417 473.496C459.744 474.013 460.564 473.496 460.236 473.017H460.261Z" fill="#71B59A"/>
  <path d="M468.365 470.685C468.1 465.229 467.961 459.809 469.764 454.554C469.965 453.974 469.045 453.735 468.856 454.302C467.029 459.633 467.167 465.115 467.419 470.685C467.419 471.29 468.39 471.29 468.365 470.685Z" fill="#71B59A"/>
  <path d="M470.772 476.596C468.856 475.084 466.134 474.63 463.803 474.076C460.964 473.447 458.083 473.025 455.182 472.815C454.578 472.815 454.578 473.71 455.182 473.761C457.823 473.972 460.446 474.364 463.034 474.933C465.239 475.424 468.302 475.891 470.104 477.327C470.583 477.705 471.251 477.037 470.772 476.659V476.596Z" fill="#71B59A"/>
  <path d="M471.503 468.959C471.83 463.603 472.799 458.305 474.389 453.18C474.565 452.601 473.658 452.349 473.482 452.928C471.86 458.134 470.87 463.517 470.533 468.959C470.533 469.564 471.44 469.564 471.478 468.959H471.503Z" fill="#71B59A"/>
  <path d="M470.886 444.749C467.039 443.49 463.01 442.886 458.963 442.96C458.851 442.978 458.749 443.036 458.676 443.122C458.602 443.209 458.562 443.319 458.562 443.432C458.562 443.546 458.602 443.656 458.676 443.742C458.749 443.829 458.851 443.887 458.963 443.905C462.924 443.833 466.868 444.425 470.633 445.657C471.213 445.846 471.465 444.938 470.886 444.749Z" fill="#71B59A"/>
  <path d="M471.793 452.235C467.878 451.235 463.899 450.506 459.883 450.055C459.279 449.992 459.291 450.937 459.883 451C463.814 451.449 467.709 452.169 471.541 453.155C471.652 453.165 471.764 453.136 471.856 453.072C471.948 453.008 472.014 452.914 472.044 452.806C472.074 452.699 472.065 452.584 472.02 452.482C471.974 452.38 471.894 452.297 471.793 452.248V452.235Z" fill="#71B59A"/>
  <path d="M476.721 457.982C476.199 456.2 475.247 454.573 473.949 453.244C472.652 451.916 471.048 450.926 469.278 450.362C467.509 449.799 465.628 449.678 463.801 450.011C461.974 450.344 460.256 451.121 458.8 452.273C458.321 452.638 458.8 453.458 459.278 453.092C460.608 452.011 462.185 451.276 463.868 450.951C465.55 450.627 467.287 450.723 468.924 451.232C470.56 451.741 472.045 452.647 473.247 453.868C474.449 455.09 475.331 456.59 475.813 458.234C476.002 458.814 476.91 458.562 476.721 457.982Z" fill="#71B59A"/>
  <path d="M475.813 462.355C473.608 462.279 470.28 461.775 468.251 462.784C466.55 463.628 465.731 465.909 465.076 467.535C464.836 468.102 465.756 468.341 465.983 467.787C466.878 465.632 467.785 463.527 470.406 463.338C472.212 463.241 474.021 463.241 475.826 463.338C476.431 463.338 476.431 462.418 475.826 462.393L475.813 462.355Z" fill="#71B59A"/>
  <path d="M478.485 469.942C474.707 469.704 470.943 470.581 467.659 472.463C467.568 472.534 467.506 472.636 467.485 472.75C467.463 472.863 467.483 472.981 467.542 473.081C467.6 473.181 467.693 473.256 467.802 473.293C467.912 473.33 468.031 473.326 468.138 473.282C471.281 471.496 474.879 470.677 478.485 470.925C479.09 470.925 479.09 470.018 478.485 469.98V469.942Z" fill="#71B59A"/>
  <path d="M480.224 463.3L481.484 441.712C481.484 441.107 480.577 441.107 480.539 441.712L479.279 463.3C479.279 463.905 480.186 463.905 480.224 463.3Z" fill="#71B59A"/>
  <path d="M474.616 455.713C475.574 447.938 472.096 434.932 462.732 433.999C462.127 433.999 462.127 434.881 462.732 434.944C471.465 435.826 474.54 448.58 473.671 455.713C473.595 456.318 474.54 456.306 474.616 455.713Z" fill="#71B59A"/>
  <path d="M478.094 442.493C474.956 435.259 467.256 433.192 460.123 432.008C459.53 431.907 459.266 432.814 459.871 432.915C466.764 434.049 474.225 435.94 477.275 442.997C477.514 443.552 478.333 443.073 478.094 442.518V442.493Z" fill="#71B59A"/>
  <path d="M481.069 445.493C481.27 442.607 479.279 439.859 477.515 437.742C475.75 435.625 473.633 433.785 470.772 433.709C470.66 433.728 470.558 433.785 470.485 433.872C470.411 433.958 470.371 434.068 470.371 434.182C470.371 434.295 470.411 434.405 470.485 434.492C470.558 434.578 470.66 434.636 470.772 434.654C475.133 434.78 480.426 441.233 480.123 445.493C480.123 446.098 481.031 446.098 481.069 445.493Z" fill="#71B59A"/>
  <path d="M490.306 447.358C491.037 444.989 488.668 442.204 487.206 440.565C486.803 440.111 486.135 440.779 486.538 441.233C487.723 442.493 489.991 445.19 489.399 447.106C489.223 447.686 490.13 447.938 490.306 447.358Z" fill="#71B59A"/>
  <path d="M494.137 459.343C493.852 457.024 493.457 454.726 492.953 452.449C492.814 451.857 491.907 452.109 492.045 452.701C492.541 454.894 492.928 457.108 493.205 459.343C493.28 459.935 494.226 459.948 494.15 459.343H494.137Z" fill="#71B59A"/>
  <path d="M488.177 469.047C490.776 465.606 494.037 462.718 497.767 460.553C497.858 460.481 497.92 460.379 497.942 460.266C497.964 460.152 497.943 460.034 497.885 459.934C497.827 459.835 497.734 459.759 497.624 459.722C497.515 459.685 497.395 459.689 497.288 459.734C493.423 461.983 490.047 464.982 487.357 468.556C486.992 469.047 487.811 469.513 488.177 469.034V469.047Z" fill="#71B59A"/>
  <path d="M483.69 471.051C488.139 470.66 493.999 469.866 496.545 465.72C496.86 465.203 496.041 464.724 495.725 465.241C493.457 468.946 487.698 469.74 483.69 470.093C483.085 470.093 483.085 471.089 483.69 471.038V471.051Z" fill="#71B59A"/>
  <path d="M489.437 466.602C489.483 463.025 488.635 459.494 486.972 456.327C485.308 453.16 482.88 450.459 479.909 448.467C479.405 448.127 478.926 448.946 479.43 449.286C482.263 451.189 484.576 453.77 486.158 456.794C487.74 459.818 488.543 463.189 488.491 466.602C488.51 466.714 488.567 466.816 488.654 466.89C488.741 466.963 488.85 467.004 488.964 467.004C489.078 467.004 489.188 466.963 489.274 466.89C489.361 466.816 489.418 466.714 489.437 466.602Z" fill="#71B59A"/>
  <path d="M486.084 450.017C484.176 447.599 481.724 445.665 478.928 444.373C476.131 443.081 473.069 442.467 469.991 442.581C469.386 442.581 469.386 443.539 469.991 443.527C472.945 443.415 475.883 444.005 478.565 445.25C481.246 446.494 483.594 448.357 485.416 450.685C485.794 451.164 486.462 450.483 486.084 450.017Z" fill="#71B59A"/>
  <path d="M481.875 473.105C485.504 469.186 484.395 463.704 485.807 458.952C485.817 458.841 485.787 458.73 485.723 458.638C485.66 458.546 485.566 458.479 485.458 458.449C485.35 458.419 485.235 458.428 485.133 458.474C485.031 458.52 484.949 458.6 484.899 458.7C483.526 463.237 484.66 468.72 481.207 472.437C480.791 472.878 481.459 473.559 481.875 473.105Z" fill="#71B59A"/>
  <path d="M475.258 480.541C469.625 478.234 466.726 470.08 464.407 464.976C461.489 458.9 459.671 452.355 459.039 445.644C459.039 445.039 458.043 445.039 458.094 445.644C458.86 453.24 461.04 460.626 464.521 467.421C467.041 472.601 469.322 479.117 475.006 481.448C475.573 481.675 475.813 480.768 475.258 480.541Z" fill="#71B59A"/>
  <path d="M465.681 483.276C461.673 482.645 459.946 473.433 459.782 470.295C459.514 465.988 460.928 461.745 463.727 458.461C464.118 457.995 463.45 457.327 463.059 457.793C461.408 459.733 460.192 462.005 459.492 464.455C458.792 466.905 458.624 469.476 459.001 471.996C459.455 475.349 461.345 483.553 465.428 484.183C466.021 484.271 466.285 483.364 465.681 483.276Z" fill="#71B59A"/>
  <path d="M459.341 482.772C456.543 481.196 454.3 475.096 453.04 472.387C449.751 465.468 453.544 461.523 458.232 456.697C458.661 456.255 457.993 455.588 457.564 456.029C454.351 459.356 449.272 463.754 450.494 468.846C451.2 471.757 453.015 474.555 454.464 477.151C455.611 479.23 456.72 482.356 458.9 483.591C459.007 483.635 459.126 483.639 459.236 483.602C459.346 483.565 459.438 483.49 459.497 483.39C459.555 483.29 459.575 483.172 459.554 483.059C459.532 482.945 459.47 482.843 459.379 482.772H459.341Z" fill="#71B59A"/>
  <path d="M453.456 482.368C449.675 476.558 438.686 461.233 446.651 455.335C447.13 454.982 446.651 454.163 446.172 454.516C437.237 461.12 448.478 476.52 452.637 482.834C452.965 483.338 453.784 482.834 453.456 482.355V482.368Z" fill="#71B59A"/>
  <path d="M459.745 486.515C457.123 486.515 454.464 486.704 451.843 486.641C449.94 486.641 448.352 486.641 447.054 484.738C446.239 483.126 445.894 481.318 446.058 479.52C446.04 479.408 445.982 479.306 445.896 479.233C445.809 479.159 445.699 479.119 445.586 479.119C445.472 479.119 445.362 479.159 445.276 479.233C445.189 479.306 445.131 479.408 445.113 479.52C445.113 482.242 445.39 485.569 448.112 487.082C449.307 487.577 450.606 487.772 451.893 487.649C454.527 487.649 457.161 487.561 459.795 487.523C459.907 487.504 460.009 487.447 460.083 487.36C460.156 487.274 460.197 487.164 460.197 487.05C460.197 486.937 460.156 486.827 460.083 486.74C460.009 486.654 459.907 486.596 459.795 486.578L459.745 486.515Z" fill="#71B59A"/>
  <path d="M481.749 475.512C478.8 482.267 474.515 485.745 467.004 486.086C462.794 486.275 448.1 486.388 448.238 479.898C448.22 479.786 448.162 479.684 448.076 479.61C447.989 479.537 447.879 479.496 447.766 479.496C447.652 479.496 447.542 479.537 447.456 479.61C447.369 479.684 447.311 479.786 447.293 479.898C447.154 486.993 459.82 487.044 464.773 487.069C473.771 487.069 478.863 484.435 482.568 475.978C482.807 475.424 482.001 474.945 481.749 475.5V475.512Z" fill="#71B59A"/>
  <path d="M482.152 476.042C488.655 473.962 499.128 469.337 499.62 461.448C500.174 452.626 494.692 444.245 487.924 439.179C487.433 438.813 486.967 439.632 487.445 439.998C493.117 444.245 498.259 451.214 498.485 458.587C498.775 467.875 489.663 472.651 481.9 475.134C481.321 475.323 481.573 476.231 482.152 476.042Z" fill="#71B59A"/>
  <path d="M484.761 464.951C486.654 459.702 486.654 453.956 484.761 448.706C482.58 443.098 477.35 442.229 471.818 442.09C471.706 442.108 471.604 442.166 471.53 442.253C471.457 442.339 471.416 442.449 471.416 442.563C471.416 442.676 471.457 442.786 471.53 442.873C471.604 442.959 471.706 443.017 471.818 443.035C477.539 443.187 482.669 444.296 484.345 450.496C485.429 454.491 485.517 460.704 483.891 464.485C483.652 465.04 484.471 465.518 484.71 464.964L484.761 464.951Z" fill="#71B59A"/>
  <path d="M482.392 476.735C473.116 479.52 468.819 471.442 465.504 464.346C461.824 456.444 459.43 448.328 462.291 439.733C462.48 439.154 461.572 438.902 461.383 439.481C457.943 449.853 461.975 459.646 466.701 468.871C470.066 475.437 474.818 479.986 482.644 477.693C482.744 477.644 482.825 477.561 482.87 477.459C482.916 477.357 482.925 477.242 482.895 477.134C482.865 477.026 482.799 476.932 482.707 476.869C482.615 476.805 482.503 476.775 482.392 476.785V476.735Z" fill="#71B59A"/>
  <path d="M475.699 478.146C467.949 482.683 463.853 471.719 462.328 466.312C461.714 464.343 461.255 462.329 460.954 460.288C460.387 455.499 462.215 452.84 466.159 450.067C466.651 449.715 466.159 448.895 465.68 449.248C462.756 451.303 460.097 453.344 459.744 457.138C459.341 461.372 461.257 466.577 462.668 470.484C464.723 476.142 469.524 482.847 476.191 478.953C476.282 478.881 476.344 478.779 476.366 478.666C476.387 478.552 476.367 478.434 476.309 478.334C476.25 478.235 476.158 478.159 476.048 478.122C475.938 478.085 475.819 478.089 475.712 478.134L475.699 478.146Z" fill="#71B59A"/>
  <path d="M458.963 479.722C447.621 474.214 443.197 453.168 453.847 444.951C454.325 444.585 453.846 443.766 453.368 444.132C442.164 452.764 446.297 474.63 458.484 480.528C459.026 480.793 459.505 479.974 458.963 479.709V479.722Z" fill="#71B59A"/>
  <path d="M462.681 475.752C459.594 478.814 457.514 468.19 457.3 467.245C456.574 464.113 456.039 460.94 455.699 457.743C455.157 451.87 454.527 441.183 462.076 439.633C462.669 439.506 462.417 438.599 461.824 438.725C452.448 440.666 454.2 454.655 455.233 461.498C455.523 463.439 457.754 481.927 463.337 476.42C463.402 476.328 463.433 476.215 463.424 476.102C463.414 475.989 463.365 475.883 463.285 475.803C463.205 475.723 463.099 475.674 462.986 475.665C462.873 475.655 462.761 475.686 462.669 475.752H462.681Z" fill="#71B59A"/>
  <path d="M486.916 450.988C479.178 439.191 462.53 436.192 449.6 440.011C449.499 440.06 449.419 440.142 449.373 440.244C449.327 440.346 449.318 440.461 449.348 440.569C449.378 440.677 449.445 440.771 449.537 440.834C449.629 440.898 449.74 440.928 449.852 440.918C462.341 437.225 478.611 440.036 486.097 451.454C486.425 451.958 487.244 451.454 486.916 450.975V450.988Z" fill="#71B59A"/>
  <path d="M473.872 456.911C469.382 453.487 464.392 450.775 459.077 448.87C456.77 448.064 450.822 445.089 448.881 447.61C448.516 448.089 449.171 448.757 449.549 448.278C451.313 446.009 461.496 450.798 463.412 451.63C466.956 453.306 470.315 455.351 473.431 457.73C473.923 458.095 474.389 457.276 473.91 456.911H473.872Z" fill="#71B59A"/>
  <path d="M453.847 472.072C451.427 469.123 452.372 463.943 452.385 460.351C452.397 456.76 451.465 450.584 454.3 447.648C454.729 447.207 454.061 446.539 453.632 446.98C450.507 450.219 451.452 455.247 451.44 459.393C451.427 463.54 450.293 469.224 453.179 472.74C453.569 473.206 454.225 472.538 453.847 472.072Z" fill="#71B59A"/>
  <path d="M465.076 478.928C460.665 473.446 462.429 463.804 465.202 458.083C465.466 457.541 464.647 457.062 464.382 457.604C461.396 463.779 459.707 473.748 464.382 479.583C464.761 480.062 465.428 479.381 465.05 478.915L465.076 478.928Z" fill="#71B59A"/>
  <path d="M478.384 472.589C478.384 467.547 478.485 461.246 475.145 457.188C471.805 453.13 466.424 451.013 461.597 449.803C461.486 449.793 461.374 449.823 461.282 449.886C461.19 449.95 461.124 450.044 461.094 450.152C461.064 450.26 461.072 450.374 461.118 450.476C461.164 450.578 461.244 450.661 461.345 450.71C465.945 451.87 471.326 453.962 474.326 457.818C477.489 461.889 477.376 467.636 477.439 472.589C477.457 472.701 477.515 472.803 477.601 472.876C477.688 472.95 477.798 472.99 477.911 472.99C478.025 472.99 478.135 472.95 478.221 472.876C478.308 472.803 478.365 472.701 478.384 472.589Z" fill="#71B59A"/>
  <path d="M475.574 474.882C477.181 472.803 478.031 470.238 477.981 467.611C478.132 464.624 478.46 461.07 477.2 458.297C476.948 457.743 476.128 458.222 476.381 458.776C477.414 461.057 477.111 464.208 477.048 466.665C476.985 469.413 476.733 472.021 474.893 474.227C474.503 474.693 475.171 475.361 475.561 474.895L475.574 474.882Z" fill="#71B59A"/>
  <path d="M475.347 475.878C474.679 475.79 474.717 465.796 474.276 464.535C473.947 463.472 473.385 462.496 472.631 461.679C471.876 460.861 470.948 460.222 469.915 459.809C469.36 459.57 469.108 460.49 469.663 460.717C475.183 463.023 473.645 469.539 473.91 474.164C473.973 475.424 473.91 476.684 475.347 476.81C475.952 476.886 475.939 475.941 475.347 475.865V475.878Z" fill="#71B59A"/>
  <path d="M487.357 470.207C488.054 464.437 487.184 458.585 484.837 453.269C482.53 448.227 479.166 446.866 474.629 443.968C474.112 443.64 473.646 444.459 474.15 444.787C476.355 446.198 479.191 447.169 481.081 449.021C482.829 451.035 484.119 453.404 484.862 455.966C486.429 460.534 486.942 465.399 486.362 470.194C486.299 470.799 487.244 470.799 487.307 470.194L487.357 470.207Z" fill="#71B59A"/>
  <path d="M484.887 473.584C481.95 464.548 478.762 455.474 471.654 448.82C471.213 448.404 470.545 449.072 470.986 449.488C477.981 456.029 481.068 464.939 483.979 473.836C484.168 474.416 485.076 474.164 484.887 473.584Z" fill="#71B59A"/>
  <path d="M485.984 459.834C484.987 455.351 483.339 451.037 481.094 447.03C479.292 443.716 477.011 442.392 473.419 441.447C473.307 441.437 473.196 441.467 473.104 441.531C473.012 441.594 472.945 441.688 472.916 441.796C472.886 441.904 472.894 442.019 472.94 442.121C472.986 442.223 473.066 442.305 473.167 442.355C477.477 443.489 479.468 445.694 481.308 449.576C482.998 452.905 484.268 456.432 485.089 460.074C485.215 460.666 486.122 460.414 485.996 459.822L485.984 459.834Z" fill="#71B59A"/>
  <path d="M491.428 456.482C485.493 451.557 478.639 447.86 471.263 445.606C470.684 445.43 470.432 446.337 471.011 446.514C478.234 448.709 484.947 452.321 490.76 457.138C491.226 457.528 491.894 456.86 491.428 456.47V456.482Z" fill="#71B59A"/>
  <path d="M448.377 475.928C446.688 475.651 445.062 473.773 443.777 472.714C442.267 471.75 441.027 470.419 440.172 468.845C439.946 468.291 439.038 468.53 439.265 469.098C440.155 470.841 441.484 472.322 443.121 473.395C444.558 474.567 446.222 476.546 448.162 476.848C448.755 476.949 449.019 476.029 448.415 475.941L448.377 475.928Z" fill="#71B59A"/>
  <path d="M443.449 471.681L442.252 467.094C442.203 466.993 442.12 466.913 442.018 466.867C441.916 466.821 441.801 466.812 441.693 466.842C441.586 466.872 441.492 466.939 441.428 467.031C441.364 467.123 441.335 467.234 441.344 467.346L442.542 471.933C442.591 472.034 442.674 472.114 442.776 472.16C442.878 472.206 442.992 472.214 443.1 472.184C443.208 472.154 443.302 472.088 443.366 471.996C443.429 471.904 443.459 471.793 443.449 471.681Z" fill="#71B59A"/>
  <path d="M487.055 443.779C486.223 441.359 483.929 439.38 482.14 437.641C480.021 435.601 477.732 433.745 475.296 432.096C474.792 431.756 474.326 432.575 474.817 432.915C476.964 434.374 478.995 435.996 480.892 437.767C482.694 439.469 485.303 441.649 486.135 444.069C486.336 444.636 487.244 444.396 487.042 443.817L487.055 443.779Z" fill="#71B59A"/>
  <path d="M458.623 473.03C455.426 467.703 452.646 462.137 450.306 456.381C448.692 452.084 444.193 440.439 448.957 436.885C449.436 436.52 448.957 435.7 448.478 436.066C444.433 439.091 446.436 446.148 447.432 450.307C449.398 458.625 453.633 466.123 457.804 473.509C457.876 473.6 457.978 473.662 458.091 473.683C458.205 473.705 458.323 473.685 458.423 473.626C458.522 473.568 458.598 473.475 458.635 473.366C458.672 473.256 458.668 473.137 458.623 473.03Z" fill="#71B59A"/>
  <path d="M451.628 470.585C445.768 467.459 441.786 457.743 446.675 452.134C447.079 451.681 446.411 451 446.008 451.466C440.727 457.528 444.672 467.938 451.149 471.404C451.691 471.694 452.17 470.875 451.628 470.585Z" fill="#71B59A"/>
  <path d="M452.94 490.106H416.644" stroke="#62AE90" stroke-miterlimit="10" stroke-linecap="round"/>
  <path d="M412.056 483.112H399" stroke="#62AE90" stroke-miterlimit="10" stroke-linecap="round"/>
  <path d="M38.3301 419.321H935" stroke="#62AE90" stroke-miterlimit="10" stroke-linecap="round"/>
  <path d="M539 271.321H524.33V278.131H539V271.321Z" fill="#BCDBD0" stroke="#62AE90" stroke-miterlimit="10" stroke-linecap="round"/>
  <path d="M365.83 313.151H376.17" stroke="#62AE90" stroke-miterlimit="10" stroke-linecap="round"/>
  <path d="M439.7 295.261H427.83" stroke="#62AE90" stroke-miterlimit="10" stroke-linecap="round"/>
  <path d="M280.83 261.011H289.09" stroke="#62AE90" stroke-miterlimit="10" stroke-linecap="round"/>
  <path d="M230.17 357.571H253.95" stroke="#62AE90" stroke-miterlimit="10" stroke-linecap="round"/>
  <path d="M245.17 273.071H263.95" stroke="#62AE90" stroke-miterlimit="10" stroke-linecap="round"/>
  <path d="M137.99 257.321H154.24" stroke="#62AE90" stroke-miterlimit="10" stroke-linecap="round"/>
  <path d="M655.05 260.431H560.38V264.991H655.05V260.431Z" fill="#8FC4AF" stroke="#62AE90" stroke-miterlimit="10" stroke-linecap="round"/>
  <path d="M655.04 260.431H560.38L607.71 246.651L655.04 260.431Z" fill="#8FC4AF" stroke="#62AE90" stroke-miterlimit="10" stroke-linecap="round"/>
  <path d="M655.05 296.391H560.38V300.951H655.05V296.391Z" fill="#8FC4AF" stroke="#62AE90" stroke-miterlimit="10" stroke-linecap="round"/>
  <path d="M650.8 264.991H564.63V296.401H650.8V264.991Z" fill="#BCDBD0" stroke="#62AE90" stroke-miterlimit="10" stroke-linecap="round"/>
  <path d="M833.5 239.571H656.33V244.131H833.5V239.571Z" fill="#8FC4AF" stroke="#62AE90" stroke-miterlimit="10" stroke-linecap="round"/>
  <path d="M843.16 309.491H650.79V314.051H843.16V309.491Z" fill="#8FC4AF" stroke="#62AE90" stroke-miterlimit="10" stroke-linecap="round"/>
  <path d="M607.71 291.331C613.586 291.331 618.35 286.568 618.35 280.691C618.35 274.815 613.586 270.051 607.71 270.051C601.834 270.051 597.07 274.815 597.07 280.691C597.07 286.568 601.834 291.331 607.71 291.331Z" fill="#8FC4AF" stroke="#62AE90" stroke-miterlimit="10" stroke-linecap="round"/>
  <path d="M628.67 274.731H644" stroke="#62AE90" stroke-miterlimit="10" stroke-linecap="round"/>
  <path d="M635 381H650.33" stroke="#62AE90" stroke-miterlimit="10" stroke-linecap="round"/>
  <path d="M580 288.131H564.63" stroke="#62AE90" stroke-miterlimit="10" stroke-linecap="round"/>
  <path d="M607.71 274.241V280.691L612.92 278.131" stroke="#DAEAE5" stroke-miterlimit="10" stroke-linecap="round"/>
  <path d="M263.95 230.991H130.67V238.831H263.95V230.991Z" fill="#8FC4AF" stroke="#62AE90" stroke-miterlimit="10" stroke-linecap="round"/>
  <rect x="264" y="357" width="176" height="6" fill="#62AE90" fill-opacity="0.2"/>
  <rect x="258" y="419" width="188" height="6.00001" transform="rotate(-90 258 419)" fill="#62AE90" fill-opacity="0.2"/>
  <rect x="440" y="419" width="104" height="6" transform="rotate(-90 440 419)" fill="#62AE90" fill-opacity="0.2"/>
  <rect x="558" y="419" width="104" height="6" transform="rotate(-90 558 419)" fill="#62AE90" fill-opacity="0.2"/>
  <rect x="651" y="419" width="110" height="6" transform="rotate(-90 651 419)" fill="#62AE90" fill-opacity="0.2"/>
  <rect x="840" y="419" width="105" height="3" transform="rotate(-90 840 419)" fill="#62AE90" fill-opacity="0.2"/>
  <rect x="132" y="419" width="129" height="6.00001" transform="rotate(-90 132 419)" fill="#62AE90" fill-opacity="0.2"/>
  <circle cx="462" cy="255" r="15.5" fill="#BCDBD0" stroke="#62AE90"/>
  <g clip-path="url(#clip0)">
    <path d="M463.757 246.759L467.272 250.422L465.515 252.253L460.243 246.759C460.709 246.273 461.341 246 462 246C462.659 246 463.291 246.273 463.757 246.759Z" fill="#62AE90"/>
    <path d="M459.364 247.674L467.272 255.916C467.738 256.401 468 257.06 468 257.747C468 258.434 467.738 259.093 467.272 259.579L457.607 249.506L459.364 247.674Z" fill="#146C53"/>
    <path d="M456.728 250.421L466.394 260.494L464.636 262.326L456.728 254.084C456.497 253.844 456.314 253.558 456.189 253.244C456.064 252.93 456 252.593 456 252.253C456 251.913 456.064 251.576 456.189 251.261C456.314 250.947 456.497 250.662 456.728 250.421Z" fill="#62AE90"/>
    <path d="M458.485 257.747L463.757 263.242C463.291 263.727 462.659 264 462 264C461.341 264 460.709 263.728 460.243 263.242L456.728 259.579L458.485 257.747Z" fill="#146C53"/>
  </g>
  <defs>
    <clipPath id="clip0">
      <rect width="12" height="18" fill="white" transform="translate(456 246)"/>
    </clipPath>
  </defs>
</svg>
