<svg width="19" height="19" viewBox="0 0 19 19" fill="none" xmlns="http://www.w3.org/2000/svg">
  <path d="M15.49 0.5H3.51C1.84762 0.5 0.5 1.84762 0.5 3.51V15.49C0.5 17.1524 1.84762 18.5 3.51 18.5H15.49C17.1524 18.5 18.5 17.1524 18.5 15.49V3.51C18.5 1.84762 17.1524 0.5 15.49 0.5Z" stroke="#62AD8F" stroke-linecap="round" stroke-linejoin="round"/>
  <path d="M6.5 9.5H10.25C10.5455 9.5 10.8381 9.4418 11.111 9.32873C11.384 9.21566 11.6321 9.04992 11.841 8.84099C12.0499 8.63206 12.2157 8.38402 12.3287 8.11104C12.4418 7.83805 12.5 7.54547 12.5 7.25V7.25C12.5 6.65326 12.2629 6.08097 11.841 5.65901C11.419 5.23705 10.8467 5 10.25 5H6.5V14" stroke="#62AD8F" stroke-linecap="round" stroke-linejoin="round"/>
</svg>
