<svg width="12" height="14" viewBox="0 0 12 14" fill="none" xmlns="http://www.w3.org/2000/svg">
  <path d="M6.66934 0H4.96744C4.05964 0 3.32373 0.775774 3.32373 1.73274V3.52682C3.32373 4.48378 4.05964 5.25956 4.96744 5.25956H6.66934C7.57713 5.25956 8.31305 4.48378 8.31305 3.52682V1.73274C8.31305 0.775774 7.57713 0 6.66934 0Z" fill="#8B8B8B"/>
  <path d="M8.34213 7.02295H3.29467C2.42087 7.02295 1.58286 7.38887 0.964986 8.04021C0.347116 8.69155 0 9.57496 0 10.4961L0 12.2672C0 12.7267 0.173175 13.1675 0.481428 13.4924C0.789681 13.8174 1.20776 13.9999 1.6437 13.9999H9.9931C10.429 13.9999 10.8471 13.8174 11.1554 13.4924C11.4636 13.1675 11.6368 12.7267 11.6368 12.2672V10.4961C11.6368 9.57496 11.2897 8.69155 10.6718 8.04021C10.0539 7.38887 9.21593 7.02295 8.34213 7.02295Z" fill="#8B8B8B"/>
</svg>
