<svg width="16" height="20" viewBox="0 0 16 20" fill="none" xmlns="http://www.w3.org/2000/svg">
  <path d="M15.5276 7.49686C15.4572 5.48478 14.6084 3.57863 13.1601 2.18012C11.7118 0.781617 9.7771 0 7.76379 0C5.75048 0 3.8158 0.781617 2.36749 2.18012C0.919179 3.57863 0.070365 5.48478 -6.10352e-05 7.49686H-6.10352e-05C0.00095954 10.0148 0.736473 12.4777 2.11635 14.5838C3.49623 16.6899 5.46053 18.3478 7.76855 19.3542C10.0748 18.3464 12.0371 16.6879 13.4152 14.5819C14.7933 12.4759 15.5274 10.0137 15.5276 7.49686ZM7.76855 12.6316C6.75112 12.6316 5.75654 12.3299 4.91058 11.7646C4.06462 11.1994 3.40527 10.3959 3.01592 9.45595C2.62657 8.51597 2.52469 7.48165 2.72319 6.48377C2.92168 5.48589 3.41161 4.56928 4.13104 3.84985C4.85047 3.13042 5.76708 2.64048 6.76496 2.44199C7.76284 2.2435 8.79717 2.34537 9.73715 2.73472C10.6771 3.12408 11.4805 3.78342 12.0458 4.62938C12.6111 5.47534 12.9128 6.46992 12.9128 7.48735C12.9128 8.1629 12.7797 8.83183 12.5212 9.45595C12.2627 10.0801 11.8837 10.6472 11.4061 11.1249C10.9284 11.6025 10.3613 11.9815 9.73715 12.24C9.11303 12.4985 8.44409 12.6316 7.76855 12.6316Z" fill="#F8F9FB"/>
  <path d="M7.76849 10.0452C9.17589 10.0452 10.3168 8.90422 10.3168 7.49682C10.3168 6.08941 9.17589 4.94849 7.76849 4.94849C6.36108 4.94849 5.22015 6.08941 5.22015 7.49682C5.22015 8.90422 6.36108 10.0452 7.76849 10.0452Z" fill="#F8F9FB"/>
</svg>
