<svg width="137" height="31" viewBox="0 0 137 31" fill="none" xmlns="http://www.w3.org/2000/svg">
  <path d="M13.6584 3.6837L19.1218 9.14705L16.3901 11.8787L8.19508 3.6837C8.91957 2.95922 9.90218 2.5522 10.9268 2.5522C11.9513 2.5522 12.9339 2.95922 13.6584 3.6837Z" fill="#62AE90"/>
  <path d="M6.83008 5.04895L19.1208 17.3396C19.8452 18.0641 20.2523 19.0467 20.2523 20.0713C20.2523 21.0959 19.8452 22.0785 19.1208 22.803L4.0984 7.78062L6.83008 5.04895Z" fill="#146C53"/>
  <path d="M2.73145 9.14661L17.7557 24.1708L15.024 26.9025L2.73145 14.61C2.00696 13.8855 1.59995 12.9029 1.59995 11.8783C1.59995 10.8537 2.00696 9.87109 2.73145 9.14661Z" fill="#62AE90"/>
  <path d="M5.46289 20.0732L13.6579 28.2683C12.9334 28.9927 11.9508 29.3998 10.9262 29.3998C9.90166 29.3998 8.91905 28.9927 8.19456 28.2683L2.73122 22.8049L5.46289 20.0732Z" fill="#146C53"/>
  <path d="M32.9286 18.3247C33.6581 19.3853 34.5364 20.0649 35.7963 20.0649C36.9232 20.0649 37.6884 19.4684 37.6884 18.5407C37.6884 17.7618 37.2243 17.4301 36.0806 16.8998L34.8717 16.3363C33.2807 15.6068 32.3189 14.7595 32.3189 13.3031C32.3189 11.5129 33.8768 10.3361 35.7668 10.3361C37.3084 10.3361 38.6177 11.115 39.2973 12.2918L38.0706 13.2379C37.4871 12.3743 36.6914 11.9076 35.7642 11.9076C34.8371 11.9076 34.1065 12.3717 34.1065 13.2337C34.1727 14.0957 34.5538 14.245 35.6307 14.7916L36.8575 15.355C38.6308 16.1671 39.4765 17.0291 39.4765 18.4713C39.4765 20.3777 37.9187 21.637 35.8131 21.637C34.0229 21.637 32.5312 20.7435 31.6855 19.2666L32.9286 18.3247Z" fill="#F8F9FB"/>
  <path d="M53.5129 21.4579H51.7558V16.6176C51.7558 15.4739 51.1093 14.7254 50.065 14.7254C49.0043 14.7281 48.2732 15.4902 48.2732 16.533V21.4579H46.5345V16.6176C46.5345 15.4902 45.8717 14.7254 44.8273 14.7254C43.7667 14.7254 43.0371 15.4881 43.0371 16.6176V21.4579H41.2969V13.3189H42.9215V14.0816C43.4997 13.485 44.2975 13.1355 45.2752 13.1355C46.402 13.1355 47.264 13.6164 47.7455 14.4117C48.342 13.6327 49.3533 13.1355 50.497 13.1355C52.3702 13.1355 53.514 14.4285 53.514 16.3679L53.5129 21.4579Z" fill="#F8F9FB"/>
  <path d="M62.1605 21.4578H60.5364V20.5459C59.9399 21.2586 59.0448 21.6397 57.9342 21.6397C56.227 21.6397 55.0996 20.6936 55.0996 19.286C55.0996 17.8785 56.2601 16.9655 58.0997 16.9655H60.404V16.4352C60.404 15.3083 59.7733 14.6949 58.6637 14.6949C57.7523 14.6949 57.0869 15.0928 56.4094 15.9038L55.3982 14.8763C56.2102 13.6994 57.4201 13.136 58.8293 13.136C60.835 13.136 62.1611 14.3449 62.1611 16.534L62.1605 21.4578ZM60.4035 18.2254H58.3131C57.3849 18.2254 56.8709 18.557 56.8709 19.2198C56.8709 19.8994 57.4491 20.2973 58.2963 20.2973C59.4731 20.2973 60.4014 19.4853 60.4014 18.3747L60.4035 18.2254Z" fill="#F8F9FB"/>
  <path d="M68.9605 14.8605H68.4301C67.0541 14.8605 66.0434 15.6725 66.0434 17.1148V21.4578H64.3047V13.3189H65.9293V14.378C66.2119 14.0202 66.5722 13.7313 66.9828 13.5332C67.3935 13.335 67.8438 13.2328 68.2998 13.2343C68.5233 13.2342 68.746 13.2621 68.9626 13.3173L68.9605 14.8605Z" fill="#F8F9FB"/>
  <path d="M75.4618 21.4577C74.9147 21.5739 74.4343 21.6401 74.0196 21.6401C72.1463 21.6401 71.0195 20.7119 71.0195 18.8056V14.8273H69.6934V13.3188H71.0195V11.1807H72.7765V13.3188H75.1943V14.8273H72.7765V18.6563C72.7765 19.7007 73.3237 20.0654 74.3844 20.0654C74.633 20.0654 74.9809 20.0323 75.4618 19.9824V21.4577Z" fill="#F8F9FB"/>
  <path d="M81.6051 21.4578H76.9141V10.5179H80.7431C82.7156 10.5179 84.0249 11.7447 84.0249 13.435C84.0249 14.2802 83.7096 14.9766 83.1135 15.4901C84.3897 15.9043 85.1523 16.9324 85.1523 18.2758C85.1523 20.1149 83.7432 21.4578 81.6051 21.4578ZM78.638 12.0595V15.0087H80.5775C81.655 15.0087 82.2684 14.4305 82.2684 13.517C82.2684 12.6035 81.655 12.0585 80.5775 12.0585L78.638 12.0595ZM81.4558 16.5182H78.638V19.9162H81.4558C82.6647 19.9162 83.3784 19.2697 83.3784 18.2254C83.3784 17.181 82.6657 16.5182 81.4558 16.5182Z" fill="#F8F9FB"/>
  <path d="M90.6251 13.1364C92.9955 13.0865 95.0012 15.0759 94.9513 17.3796C95.0012 19.6838 92.9955 21.6895 90.6251 21.637C88.2877 21.6869 86.282 19.6812 86.332 17.3796C86.282 15.0428 88.2877 13.1033 90.6251 13.1364ZM90.6419 14.7274C89.1996 14.7274 88.1059 15.8879 88.1059 17.3959C88.1059 18.9038 89.1997 20.0313 90.6251 20.0313C92.0673 20.0313 93.1611 18.8707 93.1611 17.3959C93.1601 15.8879 92.0505 14.7279 90.6414 14.7279L90.6419 14.7274Z" fill="#F8F9FB"/>
  <path d="M100.433 13.1364C102.803 13.0865 104.809 15.0759 104.759 17.3796C104.809 19.6838 102.803 21.6895 100.433 21.637C98.0953 21.6869 96.0897 19.6812 96.1396 17.3796C96.0897 15.0428 98.0953 13.1033 100.433 13.1364ZM100.449 14.7274C99.0067 14.7274 97.913 15.8879 97.913 17.3959C97.913 18.9038 99.0067 20.0313 100.433 20.0313C101.875 20.0313 102.969 18.8707 102.969 17.3959C102.969 15.8879 101.858 14.7279 100.449 14.7279V14.7274Z" fill="#F8F9FB"/>
  <path d="M106.437 9.02576H108.177V21.4578H106.437V9.02576ZM113.848 21.4573H111.759L108.228 16.8845L111.411 13.321H113.566L110.282 16.9008L113.848 21.4573Z" fill="#F8F9FB"/>
  <path d="M115.827 9.12516C115.981 9.12391 116.133 9.15296 116.275 9.21064C116.418 9.26832 116.547 9.3535 116.657 9.4613C116.766 9.5691 116.853 9.6974 116.913 9.83886C116.972 9.98033 117.003 10.1322 117.004 10.2857C117.004 10.9322 116.474 11.4294 115.827 11.4294C115.165 11.4294 114.634 10.9322 114.634 10.2857C114.634 9.6392 115.165 9.12516 115.827 9.12516ZM114.949 13.3189H116.689V21.4579H114.949V13.3189Z" fill="#F8F9FB"/>
  <path d="M126.014 21.4578H124.273V16.6012C124.273 15.4738 123.561 14.709 122.5 14.709C121.423 14.709 120.644 15.488 120.644 16.6012V21.4578H118.903V13.3188H120.528V14.1151C121.141 13.4686 121.953 13.137 122.965 13.137C124.871 13.137 126.013 14.4299 126.013 16.3694L126.014 21.4578Z" fill="#F8F9FB"/>
  <path d="M136.129 13.3188V20.6121C136.129 23.1812 134.521 24.6235 132.051 24.6235C130.597 24.6318 129.196 24.0797 128.139 23.0819L129.1 21.873C130.012 22.6025 130.841 23.0335 131.951 23.0335C133.426 23.0335 134.388 22.2378 134.388 20.713V20.1348C133.774 20.8807 132.764 21.2954 131.636 21.2954C129.366 21.2954 127.675 19.5882 127.675 17.2178C127.675 14.8473 129.382 13.1401 131.636 13.1401C132.879 13.1401 133.924 13.6374 134.52 14.483V13.3188H136.129ZM131.95 14.6933C131.237 14.6933 130.657 14.9256 130.176 15.3892C129.696 15.8528 129.463 16.4667 129.463 17.2125C129.463 17.9751 129.695 18.5885 130.176 19.0689C130.657 19.533 131.237 19.7653 131.95 19.7653C132.629 19.7653 133.193 19.5498 133.674 19.1026C134.154 18.6553 134.403 18.0251 134.403 17.1962C134.405 15.54 133.295 14.6933 131.95 14.6933Z" fill="#F8F9FB"/>
</svg>
