<svg width="19" height="14" viewBox="0 0 19 14" fill="none" xmlns="http://www.w3.org/2000/svg">
  <path d="M4.41318 10.8875H1.43307C1.13436 10.8875 0.892212 11.1296 0.892212 11.4283V12.9806C0.892212 13.2793 1.13436 13.5214 1.43307 13.5214H4.41318C4.71189 13.5214 4.95404 13.2793 4.95404 12.9806V11.4283C4.95404 11.1296 4.71189 10.8875 4.41318 10.8875Z" fill="#F8F9FB"/>
  <path d="M11.1685 5.40857H8.19375C7.89504 5.40857 7.65289 5.65072 7.65289 5.94943V12.9805C7.65289 13.2793 7.89504 13.5214 8.19375 13.5214H11.1685C11.4672 13.5214 11.7093 13.2793 11.7093 12.9805V5.94943C11.7093 5.65072 11.4672 5.40857 11.1685 5.40857Z" fill="#F8F9FB"/>
  <path d="M17.9291 0H14.9652C14.6665 0 14.4243 0.242149 14.4243 0.540856V12.9805C14.4243 13.2792 14.6665 13.5214 14.9652 13.5214H17.9291C18.2278 13.5214 18.4699 13.2792 18.4699 12.9805V0.540856C18.4699 0.242149 18.2278 0 17.9291 0Z" fill="#F8F9FB"/>
</svg>
