<svg width="22" height="16" viewBox="0 0 22 16" fill="none" xmlns="http://www.w3.org/2000/svg">
  <path d="M17.3249 2.75H5.49994V0.55C5.49994 0.404131 5.55789 0.264236 5.66103 0.161091C5.76418 0.0579463 5.90407 0 6.04994 0L21.4499 0C21.5958 0 21.7357 0.0579463 21.8388 0.161091C21.942 0.264236 21.9999 0.404131 21.9999 0.55V10.45C21.9999 10.5959 21.942 10.7358 21.8388 10.8389C21.7357 10.9421 21.5958 11 21.4499 11H17.8749V3.3C17.8749 3.15413 17.817 3.01424 17.7138 2.91109C17.6107 2.80795 17.4708 2.75 17.3249 2.75Z" fill="#F8F9FB"/>
  <path d="M15.9499 4.125H0.549939C0.40407 4.125 0.264175 4.18295 0.16103 4.28609C0.0578852 4.38924 -6.10352e-05 4.52913 -6.10352e-05 4.675L-6.10352e-05 14.575C-6.10352e-05 14.7209 0.0578852 14.8608 0.16103 14.9639C0.264175 15.0671 0.40407 15.125 0.549939 15.125H15.9499C16.0958 15.125 16.2357 15.0671 16.3388 14.9639C16.442 14.8608 16.4999 14.7209 16.4999 14.575V4.675C16.4999 4.52913 16.442 4.38924 16.3388 4.28609C16.2357 4.18295 16.0958 4.125 15.9499 4.125ZM6.87494 11.825C6.87494 11.9709 6.81699 12.1108 6.71385 12.2139C6.6107 12.3171 6.47081 12.375 6.32494 12.375H1.92494C1.77907 12.375 1.63918 12.3171 1.53603 12.2139C1.43289 12.1108 1.37494 11.9709 1.37494 11.825V7.425C1.37494 7.27913 1.43289 7.13924 1.53603 7.03609C1.63918 6.93295 1.77907 6.875 1.92494 6.875H6.32494C6.47081 6.875 6.6107 6.93295 6.71385 7.03609C6.81699 7.13924 6.87494 7.27913 6.87494 7.425V11.825ZM12.3749 10.417C12.3749 10.5629 12.317 10.7028 12.2138 10.8059C12.1107 10.9091 11.9708 10.967 11.8249 10.967H8.79994C8.65407 10.967 8.51418 10.9091 8.41103 10.8059C8.30789 10.7028 8.24994 10.5629 8.24994 10.417V10.175C8.24994 10.0291 8.30789 9.88924 8.41103 9.78609C8.51418 9.68295 8.65407 9.625 8.79994 9.625H11.8249C11.9708 9.625 12.1107 9.68295 12.2138 9.78609C12.317 9.88924 12.3749 10.0291 12.3749 10.175V10.417ZM15.1249 7.667C15.1249 7.81287 15.067 7.95276 14.9638 8.05591C14.8607 8.15905 14.7208 8.217 14.5749 8.217H8.79994C8.65407 8.217 8.51418 8.15905 8.41103 8.05591C8.30789 7.95276 8.24994 7.81287 8.24994 7.667V7.425C8.24994 7.27913 8.30789 7.13924 8.41103 7.03609C8.51418 6.93295 8.65407 6.875 8.79994 6.875H14.5749C14.7208 6.875 14.8607 6.93295 14.9638 7.03609C15.067 7.13924 15.1249 7.27913 15.1249 7.425V7.667Z" fill="#F8F9FB"/>
</svg>
