<svg width="19" height="19" viewBox="0 0 19 19" fill="none" xmlns="http://www.w3.org/2000/svg">
  <path d="M18.5 2H16.85C16.492 2 16.1486 2.14223 15.8954 2.39541C15.6422 2.64858 15.5 2.99196 15.5 3.35V14.59C15.5 15.627 15.0881 16.6215 14.3548 17.3548C13.6215 18.0881 12.627 18.5 11.59 18.5C10.947 18.4996 10.314 18.3406 9.74707 18.0371C9.18017 17.7336 8.69687 17.2949 8.34 16.76L6.5 14H15.5" stroke="#62AD8F" stroke-linecap="round" stroke-linejoin="round"/>
  <path d="M2.61991 0.5C2.42277 0.696895 2.26638 0.930719 2.15968 1.1881C2.05297 1.44548 1.99805 1.72138 1.99805 2C1.99805 2.27862 2.05297 2.55452 2.15968 2.8119C2.26638 3.06928 2.42277 3.30311 2.61991 3.5V3.5C2.81705 3.69689 2.97345 3.93072 3.08015 4.1881C3.18686 4.44548 3.24178 4.72138 3.24178 5C3.24178 5.27862 3.18686 5.55452 3.08015 5.8119C2.97345 6.06928 2.81705 6.30311 2.61991 6.5" stroke="#62AD8F" stroke-linecap="round" stroke-linejoin="round"/>
  <path d="M7.11991 0.5C6.92277 0.696895 6.76638 0.930719 6.65968 1.1881C6.55297 1.44548 6.49805 1.72138 6.49805 2C6.49805 2.27862 6.55297 2.55452 6.65968 2.8119C6.76638 3.06928 6.92277 3.30311 7.11991 3.5V3.5C7.31705 3.69689 7.47345 3.93072 7.58015 4.1881C7.68686 4.44548 7.74178 4.72138 7.74178 5C7.74178 5.27862 7.68686 5.55452 7.58015 5.8119C7.47345 6.06928 7.31705 6.30311 7.11991 6.5" stroke="#62AD8F" stroke-linecap="round" stroke-linejoin="round"/>
  <path d="M11.6199 0.5C11.4228 0.696895 11.2664 0.930719 11.1597 1.1881C11.053 1.44548 10.998 1.72138 10.998 2C10.998 2.27862 11.053 2.55452 11.1597 2.8119C11.2664 3.06928 11.4228 3.30311 11.6199 3.5V3.5C11.8171 3.69689 11.9734 3.93072 12.0802 4.1881C12.1869 4.44548 12.2418 4.72138 12.2418 5C12.2418 5.27862 12.1869 5.55452 12.0802 5.8119C11.9734 6.06928 11.8171 6.30311 11.6199 6.5" stroke="#62AD8F" stroke-linecap="round" stroke-linejoin="round"/>
  <path d="M4.94 18.5H0.5V9.5H11" stroke="#62AD8F" stroke-linecap="round" stroke-linejoin="round"/>
</svg>
