<svg width="16" height="16" viewBox="0 0 16 16" fill="none" xmlns="http://www.w3.org/2000/svg">
  <path d="M15.2051 6.05022C15.2081 7.16402 14.9196 8.25712 14.3713 9.20918C13.8229 10.1612 13.036 10.9353 12.0972 11.4463C11.1583 11.9572 10.1039 12.1852 9.05012 12.105C7.99629 12.0249 6.98387 11.6398 6.1243 10.9921L1.4954 15.8718C1.46011 15.9094 1.41809 15.9393 1.37178 15.9597C1.32547 15.9801 1.27578 15.9906 1.22559 15.9906C1.1754 15.9906 1.12571 15.9801 1.0794 15.9597C1.03308 15.9393 0.991066 15.9094 0.95578 15.8718L0.112627 14.983C0.0769377 14.9458 0.0486031 14.9015 0.0292654 14.8526C0.00992775 14.8038 -3.05176e-05 14.7514 -3.05176e-05 14.6985C-3.05176e-05 14.6456 0.00992775 14.5932 0.0292654 14.5444C0.0486031 14.4956 0.0769377 14.4513 0.112627 14.4141L4.74153 9.53443C4.2245 8.75459 3.88886 7.85739 3.76177 6.91544C3.63467 5.97348 3.71969 5.01322 4.00995 4.11233C4.30021 3.21143 4.78756 2.39522 5.43256 1.72971C6.07757 1.0642 6.86212 0.568092 7.72275 0.281515C8.58337 -0.00506214 9.49591 -0.0740584 10.3865 0.0801082C11.2771 0.234275 12.1208 0.607275 12.8493 1.16893C13.5778 1.73059 14.1707 2.46513 14.5799 3.31313C14.9892 4.16113 15.2033 5.09878 15.2051 6.05022ZM13.2658 6.05022C13.2658 5.25563 13.0423 4.47888 12.6235 3.8182C12.2048 3.15753 11.6096 2.64259 10.9132 2.33852C10.2168 2.03444 9.45053 1.95488 8.71126 2.1099C7.97198 2.26491 7.29292 2.64754 6.75994 3.2094C6.22695 3.77126 5.86399 4.48712 5.71694 5.26644C5.56989 6.04576 5.64536 6.85355 5.93381 7.58765C6.22225 8.32176 6.71073 8.94921 7.33745 9.39066C7.96417 9.83211 8.701 10.0677 9.45475 10.0677C10.4655 10.0677 11.4349 9.64446 12.1496 8.89103C12.8643 8.1376 13.2658 7.11573 13.2658 6.05022Z" fill="#F8F9FB"/>
</svg>
