<svg width="18" height="19" viewBox="0 0 18 19" fill="none" xmlns="http://www.w3.org/2000/svg">
  <path d="M17.9999 9.68V8.32C17.9999 8.20065 17.9525 8.08619 17.8681 8.0018C17.7837 7.91741 17.6693 7.87 17.5499 7.87H15.9999C15.8964 7.86979 15.796 7.83386 15.7159 7.76828C15.6357 7.7027 15.5807 7.61147 15.5599 7.51C15.3895 6.76151 15.0918 6.04782 14.6799 5.4C14.6221 5.31282 14.5965 5.20824 14.6075 5.10421C14.6184 5.00019 14.6653 4.90323 14.7399 4.83L15.8199 3.75C15.8623 3.70815 15.8959 3.65832 15.9188 3.60339C15.9417 3.54846 15.9536 3.48953 15.9536 3.43C15.9536 3.37048 15.9417 3.31154 15.9188 3.25661C15.8959 3.20168 15.8623 3.15185 15.8199 3.11L14.8199 2.11C14.7781 2.06767 14.7283 2.03407 14.6733 2.01113C14.6184 1.9882 14.5595 1.97639 14.4999 1.97639C14.4404 1.97639 14.3815 1.9882 14.3266 2.01113C14.2716 2.03407 14.2218 2.06767 14.1799 2.11L13.1699 3.24C13.0967 3.31469 12.9997 3.36153 12.8957 3.37248C12.7917 3.38343 12.6871 3.3578 12.5999 3.3C11.9514 2.89163 11.2378 2.59738 10.4899 2.43C10.3901 2.40966 10.3002 2.35605 10.2348 2.27794C10.1694 2.19983 10.1324 2.10184 10.1299 2V0.45C10.1299 0.330653 10.0825 0.216193 9.99814 0.131802C9.91375 0.0474106 9.79929 0 9.67994 0L8.31994 0C8.20059 0 8.08613 0.0474106 8.00174 0.131802C7.91735 0.216193 7.86994 0.330653 7.86994 0.45V2C7.86973 2.10357 7.8338 2.20389 7.76822 2.28405C7.70264 2.36421 7.61141 2.41929 7.50994 2.44C6.76272 2.60428 6.0491 2.89514 5.39994 3.3C5.31276 3.3578 5.20817 3.38343 5.10415 3.37248C5.00013 3.36153 4.90317 3.31469 4.82994 3.24L3.74994 2.16C3.70809 2.11767 3.65826 2.08407 3.60333 2.06113C3.5484 2.0382 3.48946 2.02639 3.42994 2.02639C3.37041 2.02639 3.31148 2.0382 3.25655 2.06113C3.20162 2.08407 3.15179 2.11767 3.10994 2.16L2.10994 3.16C2.06761 3.20185 2.03401 3.25168 2.01107 3.30661C1.98813 3.36154 1.97632 3.42048 1.97632 3.48C1.97632 3.53953 1.98813 3.59846 2.01107 3.65339C2.03401 3.70832 2.06761 3.75815 2.10994 3.8L3.23994 4.83C3.31463 4.90323 3.36147 5.00019 3.37242 5.10421C3.38337 5.20824 3.35774 5.31282 3.29994 5.4C2.88789 6.04772 2.59023 6.76145 2.41994 7.51C2.40001 7.6082 2.34787 7.69694 2.27179 7.76216C2.19571 7.82737 2.10003 7.86532 1.99994 7.87H0.449939C0.330592 7.87 0.216132 7.91741 0.131741 8.0018C0.0473495 8.08619 -6.10352e-05 8.20065 -6.10352e-05 8.32L-6.10352e-05 9.68C-6.10352e-05 9.79935 0.0473495 9.91381 0.131741 9.9982C0.216132 10.0826 0.330592 10.13 0.449939 10.13H1.99994C2.10351 10.1302 2.20383 10.1661 2.28399 10.2317C2.36414 10.2973 2.41923 10.3885 2.43994 10.49C2.60623 11.2413 2.90052 11.9584 3.30994 12.61C3.36774 12.6972 3.39337 12.8018 3.38242 12.9058C3.37147 13.0098 3.32463 13.1068 3.24994 13.18L2.15994 14.25C2.11761 14.2919 2.08401 14.3417 2.06107 14.3966C2.03813 14.4515 2.02632 14.5105 2.02632 14.57C2.02632 14.6295 2.03813 14.6885 2.06107 14.7434C2.08401 14.7983 2.11761 14.8481 2.15994 14.89L3.15994 15.89C3.20179 15.9323 3.25162 15.9659 3.30655 15.9889C3.36148 16.0118 3.42041 16.0236 3.47994 16.0236C3.53946 16.0236 3.5984 16.0118 3.65333 15.9889C3.70826 15.9659 3.75809 15.9323 3.79994 15.89L4.86994 14.82C4.94317 14.7453 5.04013 14.6985 5.14415 14.6875C5.24817 14.6766 5.35276 14.7022 5.43994 14.76C6.09082 15.1729 6.80797 15.4706 7.55994 15.64C7.66141 15.6607 7.75264 15.7158 7.81822 15.796C7.8838 15.8761 7.91973 15.9764 7.91994 16.08V17.6C7.91994 17.7193 7.96735 17.8338 8.05174 17.9182C8.13613 18.0026 8.25059 18.05 8.36994 18.05H9.67994C9.79929 18.05 9.91375 18.0026 9.99814 17.9182C10.0825 17.8338 10.1299 17.7193 10.1299 17.6V16C10.1301 15.8964 10.1661 15.7961 10.2317 15.716C10.2972 15.6358 10.3885 15.5807 10.4899 15.56C11.2419 15.3906 11.9591 15.0929 12.6099 14.68C12.6971 14.6222 12.8017 14.5966 12.9057 14.6075C13.0097 14.6185 13.1067 14.6653 13.1799 14.74L14.2499 15.81C14.2918 15.8523 14.3416 15.8859 14.3966 15.9089C14.4515 15.9318 14.5104 15.9436 14.5699 15.9436C14.6295 15.9436 14.6884 15.9318 14.7433 15.9089C14.7983 15.8859 14.8481 15.8523 14.8899 15.81L15.8899 14.81C15.9323 14.7681 15.9659 14.7183 15.9888 14.6634C16.0117 14.6085 16.0236 14.5495 16.0236 14.49C16.0236 14.4305 16.0117 14.3715 15.9888 14.3166C15.9659 14.2617 15.9323 14.2119 15.8899 14.17L14.8099 13.09C14.7353 13.0168 14.6884 12.9198 14.6775 12.8158C14.6665 12.7118 14.6921 12.6072 14.7499 12.52C15.1594 11.8684 15.4536 11.1513 15.6199 10.4C15.6407 10.2985 15.6957 10.2073 15.7759 10.1417C15.856 10.0761 15.9564 10.0402 16.0599 10.04H17.5799C17.68 10.0353 17.7757 9.99737 17.8518 9.93216C17.9279 9.86694 17.98 9.7782 17.9999 9.68ZM8.99994 12.37C8.33582 12.37 7.6866 12.1732 7.13427 11.8044C6.58194 11.4357 6.15127 10.9115 5.89667 10.2981C5.64207 9.68474 5.57495 9.00967 5.70379 8.35817C5.83263 7.70666 6.15164 7.10795 6.62055 6.63765C7.08945 6.16735 7.68721 5.84656 8.33833 5.71579C8.98944 5.58501 9.66471 5.65013 10.2788 5.9029C10.893 6.15568 11.4184 6.58478 11.7888 7.13602C12.1592 7.68725 12.358 8.33588 12.3599 9C12.3613 9.44208 12.2753 9.88008 12.107 10.2889C11.9388 10.6977 11.6915 11.0693 11.3794 11.3823C11.0672 11.6954 10.6964 11.9438 10.2881 12.1133C9.87976 12.2828 9.44202 12.37 8.99994 12.37Z" fill="#F8F9FB"/>
</svg>
