<svg width="15" height="19" viewBox="0 0 15 19" fill="none" xmlns="http://www.w3.org/2000/svg">
  <path d="M0 15.4376V19.0001H2.375V16.6251H11.8655V19.0001H14.2405V15.4376H0Z" fill="#62AD8F"/>
  <path d="M6.498 3.59112H7.733C8.04039 3.59112 8.33518 3.71323 8.55254 3.93059C8.76989 4.14794 8.892 4.44274 8.892 4.75012H11.8655V1.36812C11.8655 1.00531 11.7214 0.65735 11.4648 0.4008C11.2083 0.14425 10.8603 0.00012207 10.4975 0.00012207L3.743 0.00012207C3.38018 0.00012207 3.03223 0.14425 2.77568 0.4008C2.51913 0.65735 2.375 1.00531 2.375 1.36812V4.75012H5.3485C5.34849 4.44438 5.46929 4.15101 5.6846 3.93393C5.8999 3.71684 6.19226 3.59363 6.498 3.59112Z" fill="#62AD8F"/>
  <path d="M11.8655 5.93762H8.892V6.65012C8.892 6.7761 8.84196 6.89692 8.75288 6.986C8.6638 7.07508 8.54298 7.12512 8.417 7.12512H5.8235C5.69752 7.12512 5.5767 7.07508 5.48762 6.986C5.39854 6.89692 5.3485 6.7761 5.3485 6.65012V5.93762H2.375L0 14.2501H14.25L11.8655 5.93762Z" fill="#62AD8F"/>
</svg>
