<svg width="15" height="16" viewBox="0 0 15 16" fill="none" xmlns="http://www.w3.org/2000/svg">
  <path d="M13.1617 1.94353C13.0639 2.0361 12.9344 2.08769 12.7998 2.08769C12.6651 2.08769 12.5356 2.0361 12.4378 1.94353C11.0066 0.690634 9.16919 0 7.26706 0C5.36494 0 3.52751 0.690634 2.09631 1.94353C2.04628 1.99255 2.00654 2.05106 1.9794 2.11563C1.95227 2.1802 1.93829 2.24954 1.93829 2.31958C1.93829 2.38963 1.95227 2.45896 1.9794 2.52354C2.00654 2.58811 2.04628 2.64662 2.09631 2.69564L3.18687 3.8238C3.28147 3.90773 3.40356 3.95408 3.53002 3.95408C3.65649 3.95408 3.77857 3.90773 3.87317 3.8238C4.79197 3.05268 5.94915 2.62299 7.14855 2.60757C8.34796 2.59215 9.5158 2.99195 10.4541 3.73919C10.5086 3.78854 10.5521 3.84876 10.5819 3.91595C10.6117 3.98315 10.6271 4.05584 10.6271 4.12935C10.6271 4.20285 10.6117 4.27554 10.5819 4.34274C10.5521 4.40994 10.5086 4.47015 10.4541 4.5195L9.21314 5.8545H14.4309V0.636741L13.1617 1.94353Z" fill="#F8F9FB"/>
  <path d="M1.30679 13.7611C1.40457 13.6685 1.5341 13.6169 1.66874 13.6169C1.80339 13.6169 1.93292 13.6685 2.03069 13.7611C3.46189 15.014 5.29932 15.7046 7.20144 15.7046C9.10357 15.7046 10.941 15.014 12.3722 13.7611C12.4222 13.712 12.462 13.6535 12.4891 13.589C12.5162 13.5244 12.5302 13.455 12.5302 13.385C12.5302 13.315 12.5162 13.2456 12.4891 13.181C12.462 13.1165 12.4222 13.058 12.3722 13.0089L11.2816 11.8808C11.187 11.7969 11.0649 11.7505 10.9385 11.7505C10.812 11.7505 10.6899 11.7969 10.5953 11.8808C9.67654 12.6519 8.51936 13.0816 7.31995 13.097C6.12054 13.1124 4.9527 12.7126 4.01438 11.9654C3.95991 11.916 3.91637 11.8558 3.88658 11.7886C3.85679 11.7214 3.8414 11.6487 3.8414 11.5752C3.8414 11.5017 3.85679 11.429 3.88658 11.3618C3.91637 11.2946 3.95991 11.2344 4.01438 11.1851L5.30237 9.89709H0V15.049L1.30679 13.7611Z" fill="#F8F9FB"/>
</svg>
